<svg width="94" height="94" viewBox="0 0 94 94" fill="none" xmlns="http://www.w3.org/2000/svg">
<g filter="url(#filter0_d)">
<rect x="7" y="7" width="80" height="80" rx="10" fill="#BBE1FA"/>
</g>
<path d="M27.986 68.264H24.318L23.73 70H21.224L24.78 60.172H27.552L31.108 70H28.574L27.986 68.264ZM27.37 66.416L26.152 62.818L24.948 66.416H27.37ZM35.3683 70.112C34.6869 70.112 34.0803 69.9953 33.5483 69.762C33.0163 69.5287 32.5963 69.2113 32.2883 68.81C31.9803 68.3993 31.8076 67.942 31.7703 67.438H34.1363C34.1643 67.7087 34.2903 67.928 34.5143 68.096C34.7383 68.264 35.0136 68.348 35.3403 68.348C35.6389 68.348 35.8676 68.292 36.0263 68.18C36.1943 68.0587 36.2783 67.9047 36.2783 67.718C36.2783 67.494 36.1616 67.3307 35.9283 67.228C35.6949 67.116 35.3169 66.9947 34.7943 66.864C34.2343 66.7333 33.7676 66.598 33.3943 66.458C33.0209 66.3087 32.6989 66.08 32.4283 65.772C32.1576 65.4547 32.0223 65.03 32.0223 64.498C32.0223 64.05 32.1436 63.644 32.3863 63.28C32.6383 62.9067 33.0023 62.6127 33.4783 62.398C33.9636 62.1833 34.5376 62.076 35.2003 62.076C36.1803 62.076 36.9503 62.3187 37.5103 62.804C38.0796 63.2893 38.4063 63.9333 38.4903 64.736H36.2783C36.2409 64.4653 36.1196 64.2507 35.9143 64.092C35.7183 63.9333 35.4569 63.854 35.1303 63.854C34.8503 63.854 34.6356 63.91 34.4863 64.022C34.3369 64.1247 34.2623 64.2693 34.2623 64.456C34.2623 64.68 34.3789 64.848 34.6123 64.96C34.8549 65.072 35.2283 65.184 35.7323 65.296C36.3109 65.4453 36.7823 65.5947 37.1463 65.744C37.5103 65.884 37.8276 66.1173 38.0983 66.444C38.3783 66.7613 38.5229 67.1907 38.5323 67.732C38.5323 68.1893 38.4016 68.6 38.1403 68.964C37.8883 69.3187 37.5196 69.5987 37.0343 69.804C36.5583 70.0093 36.0029 70.112 35.3683 70.112ZM43.1749 70.112C42.4936 70.112 41.8869 69.9953 41.3549 69.762C40.8229 69.5287 40.4029 69.2113 40.0949 68.81C39.7869 68.3993 39.6142 67.942 39.5769 67.438H41.9429C41.9709 67.7087 42.0969 67.928 42.3209 68.096C42.5449 68.264 42.8202 68.348 43.1469 68.348C43.4456 68.348 43.6742 68.292 43.8329 68.18C44.0009 68.0587 44.0849 67.9047 44.0849 67.718C44.0849 67.494 43.9682 67.3307 43.7349 67.228C43.5016 67.116 43.1236 66.9947 42.6009 66.864C42.0409 66.7333 41.5742 66.598 41.2009 66.458C40.8276 66.3087 40.5056 66.08 40.2349 65.772C39.9642 65.4547 39.8289 65.03 39.8289 64.498C39.8289 64.05 39.9502 63.644 40.1929 63.28C40.4449 62.9067 40.8089 62.6127 41.2849 62.398C41.7702 62.1833 42.3442 62.076 43.0069 62.076C43.9869 62.076 44.7569 62.3187 45.3169 62.804C45.8862 63.2893 46.2129 63.9333 46.2969 64.736H44.0849C44.0476 64.4653 43.9262 64.2507 43.7209 64.092C43.5249 63.9333 43.2636 63.854 42.9369 63.854C42.6569 63.854 42.4422 63.91 42.2929 64.022C42.1436 64.1247 42.0689 64.2693 42.0689 64.456C42.0689 64.68 42.1856 64.848 42.4189 64.96C42.6616 65.072 43.0349 65.184 43.5389 65.296C44.1176 65.4453 44.5889 65.5947 44.9529 65.744C45.3169 65.884 45.6342 66.1173 45.9049 66.444C46.1849 66.7613 46.3296 67.1907 46.3389 67.732C46.3389 68.1893 46.2082 68.6 45.9469 68.964C45.6949 69.3187 45.3262 69.5987 44.8409 69.804C44.3649 70.0093 43.8096 70.112 43.1749 70.112ZM55.1675 65.968C55.1675 66.192 55.1535 66.4253 55.1255 66.668H49.7075C49.7449 67.1533 49.8989 67.5267 50.1695 67.788C50.4495 68.04 50.7902 68.166 51.1915 68.166C51.7889 68.166 52.2042 67.914 52.4375 67.41H54.9855C54.8549 67.9233 54.6169 68.3853 54.2715 68.796C53.9355 69.2067 53.5109 69.5287 52.9975 69.762C52.4842 69.9953 51.9102 70.112 51.2755 70.112C50.5102 70.112 49.8289 69.9487 49.2315 69.622C48.6342 69.2953 48.1675 68.8287 47.8315 68.222C47.4955 67.6153 47.3275 66.906 47.3275 66.094C47.3275 65.282 47.4909 64.5727 47.8175 63.966C48.1535 63.3593 48.6202 62.8927 49.2175 62.566C49.8149 62.2393 50.5009 62.076 51.2755 62.076C52.0315 62.076 52.7035 62.2347 53.2915 62.552C53.8795 62.8693 54.3369 63.322 54.6635 63.91C54.9995 64.498 55.1675 65.184 55.1675 65.968ZM52.7175 65.338C52.7175 64.9273 52.5775 64.6007 52.2975 64.358C52.0175 64.1153 51.6675 63.994 51.2475 63.994C50.8462 63.994 50.5055 64.1107 50.2255 64.344C49.9549 64.5773 49.7869 64.9087 49.7215 65.338H52.7175ZM60.7845 67.97V70H59.5665C58.6985 70 58.0218 69.79 57.5365 69.37C57.0512 68.9407 56.8085 68.2453 56.8085 67.284V64.176H55.8565V62.188H56.8085V60.284H59.2025V62.188H60.7705V64.176H59.2025V67.312C59.2025 67.5453 59.2585 67.7133 59.3705 67.816C59.4825 67.9187 59.6692 67.97 59.9305 67.97H60.7845ZM65.296 70.112C64.6147 70.112 64.008 69.9953 63.476 69.762C62.944 69.5287 62.524 69.2113 62.216 68.81C61.908 68.3993 61.7353 67.942 61.698 67.438H64.064C64.092 67.7087 64.218 67.928 64.442 68.096C64.666 68.264 64.9413 68.348 65.268 68.348C65.5667 68.348 65.7953 68.292 65.954 68.18C66.122 68.0587 66.206 67.9047 66.206 67.718C66.206 67.494 66.0893 67.3307 65.856 67.228C65.6227 67.116 65.2447 66.9947 64.722 66.864C64.162 66.7333 63.6953 66.598 63.322 66.458C62.9487 66.3087 62.6267 66.08 62.356 65.772C62.0853 65.4547 61.95 65.03 61.95 64.498C61.95 64.05 62.0713 63.644 62.314 63.28C62.566 62.9067 62.93 62.6127 63.406 62.398C63.8913 62.1833 64.4653 62.076 65.128 62.076C66.108 62.076 66.878 62.3187 67.438 62.804C68.0073 63.2893 68.334 63.9333 68.418 64.736H66.206C66.1687 64.4653 66.0473 64.2507 65.842 64.092C65.646 63.9333 65.3847 63.854 65.058 63.854C64.778 63.854 64.5633 63.91 64.414 64.022C64.2647 64.1247 64.19 64.2693 64.19 64.456C64.19 64.68 64.3067 64.848 64.54 64.96C64.7827 65.072 65.156 65.184 65.66 65.296C66.2387 65.4453 66.71 65.5947 67.074 65.744C67.438 65.884 67.7553 66.1173 68.026 66.444C68.306 66.7613 68.4507 67.1907 68.46 67.732C68.46 68.1893 68.3293 68.6 68.068 68.964C67.816 69.3187 67.4473 69.5987 66.962 69.804C66.486 70.0093 65.9307 70.112 65.296 70.112Z" fill="#1B262C"/>
<g clip-path="url(#clip0)">
<rect width="44" height="44" transform="translate(25 14)" fill="#BBE1FA"/>
<path d="M29.3681 46.6805L47 40.9509L64.6319 46.6805L47 52.7055L29.3681 46.6805Z" fill="#BBE1FA" stroke="#1B262C" stroke-width="3"/>
<path d="M29.3681 41.1805L47 35.4509L64.6319 41.1805L47 47.2055L29.3681 41.1805Z" fill="#BBE1FA" stroke="#1B262C" stroke-width="3"/>
<path d="M29.3681 35.6805L47 29.9509L64.6319 35.6805L47 41.7055L29.3681 35.6805Z" fill="#BBE1FA" stroke="#1B262C" stroke-width="3"/>
<path d="M29.3681 30.1805L47 24.4509L64.6319 30.1805L47 36.2055L29.3681 30.1805Z" fill="#BBE1FA" stroke="#1B262C" stroke-width="3"/>
</g>
<defs>
<filter id="filter0_d" x="0" y="0" width="94" height="94" filterUnits="userSpaceOnUse" color-interpolation-filters="sRGB">
<feFlood flood-opacity="0" result="BackgroundImageFix"/>
<feColorMatrix in="SourceAlpha" type="matrix" values="0 0 0 0 0 0 0 0 0 0 0 0 0 0 0 0 0 0 127 0" result="hardAlpha"/>
<feMorphology radius="3" operator="dilate" in="SourceAlpha" result="effect1_dropShadow"/>
<feOffset/>
<feGaussianBlur stdDeviation="2"/>
<feComposite in2="hardAlpha" operator="out"/>
<feColorMatrix type="matrix" values="0 0 0 0 1 0 0 0 0 1 0 0 0 0 1 0 0 0 0.25 0"/>
<feBlend mode="normal" in2="BackgroundImageFix" result="effect1_dropShadow"/>
<feBlend mode="normal" in="SourceGraphic" in2="effect1_dropShadow" result="shape"/>
</filter>
<clipPath id="clip0">
<rect width="44" height="44" fill="white" transform="translate(25 14)"/>
</clipPath>
</defs>
</svg>
