<svg width="582" height="295" viewBox="0 0 582 295" fill="none" xmlns="http://www.w3.org/2000/svg">
<path d="M293 51V246" stroke="#0F4C75" stroke-width="5"/>
<path d="M293 259V265" stroke="#86C7F2" stroke-width="5"/>
<path d="M293 269V274" stroke="#BBE1FA" stroke-width="5"/>
<path d="M293 250V256" stroke="#54A8E0" stroke-width="5"/>
<path d="M302.334 52.9071C302.334 57.97 298.23 62.0743 293.167 62.0743C288.104 62.0743 284 57.97 284 52.9071C284 47.8442 288.104 43.7399 293.167 43.7399C298.23 43.7399 302.334 47.8442 302.334 52.9071Z" fill="#892CDC"/>
<rect x="318" y="12" width="217" height="80" rx="13" fill="#892CDC"/>
<path d="M338.209 36.4563H340.837V44.9114C340.837 45.8958 340.626 46.7249 340.204 47.3987C339.788 48.0725 339.211 48.5793 338.473 48.9192C337.74 49.259 336.896 49.429 335.941 49.429C334.986 49.429 334.137 49.259 333.393 48.9192C332.654 48.5793 332.074 48.0725 331.652 47.3987C331.236 46.7249 331.028 45.8958 331.028 44.9114V36.4563H333.665V44.9114C333.665 45.4856 333.756 45.9543 333.938 46.3176C334.119 46.6809 334.38 46.9475 334.72 47.1174C335.065 47.2874 335.473 47.3723 335.941 47.3723C336.422 47.3723 336.829 47.2874 337.163 47.1174C337.503 46.9475 337.761 46.6809 337.937 46.3176C338.118 45.9543 338.209 45.4856 338.209 44.9114V36.4563ZM345.328 41.7737V49.2532H342.797V39.7434H345.17L345.328 41.7737ZM344.959 44.1643H344.273C344.273 43.4612 344.364 42.8284 344.546 42.2659C344.728 41.6975 344.982 41.2141 345.311 40.8157C345.639 40.4114 346.028 40.1038 346.479 39.8928C346.937 39.676 347.446 39.5676 348.009 39.5676C348.454 39.5676 348.861 39.6321 349.23 39.761C349.6 39.8899 349.916 40.095 350.18 40.3762C350.449 40.6575 350.654 41.0295 350.795 41.4924C350.941 41.9553 351.015 42.5208 351.015 43.1887V49.2532H348.466V43.1799C348.466 42.7581 348.407 42.4299 348.29 42.1956C348.173 41.9612 348 41.7971 347.771 41.7034C347.549 41.6038 347.273 41.554 346.945 41.554C346.605 41.554 346.31 41.6213 346.058 41.7561C345.812 41.8909 345.606 42.0784 345.442 42.3186C345.284 42.553 345.164 42.8284 345.082 43.1448C345 43.4612 344.959 43.801 344.959 44.1643ZM355.611 39.7434V49.2532H353.071V39.7434H355.611ZM352.913 37.2649C352.913 36.8958 353.042 36.5911 353.3 36.3508C353.558 36.1106 353.903 35.9905 354.337 35.9905C354.765 35.9905 355.107 36.1106 355.365 36.3508C355.629 36.5911 355.761 36.8958 355.761 37.2649C355.761 37.634 355.629 37.9387 355.365 38.179C355.107 38.4192 354.765 38.5393 354.337 38.5393C353.903 38.5393 353.558 38.4192 353.3 38.179C353.042 37.9387 352.913 37.634 352.913 37.2649ZM360.938 47.4075L363.047 39.7434H365.692L362.484 49.2532H360.885L360.938 47.4075ZM359.487 39.7434L361.605 47.4163L361.649 49.2532H360.041L356.833 39.7434H359.487ZM371.08 49.429C370.342 49.429 369.68 49.3118 369.094 49.0774C368.508 48.8372 368.01 48.5061 367.6 48.0842C367.195 47.6624 366.885 47.1731 366.668 46.6165C366.451 46.054 366.343 45.4563 366.343 44.8235V44.4719C366.343 43.7512 366.445 43.092 366.65 42.4944C366.855 41.8967 367.148 41.3782 367.529 40.9387C367.916 40.4993 368.385 40.1624 368.936 39.928C369.486 39.6877 370.107 39.5676 370.799 39.5676C371.473 39.5676 372.07 39.679 372.592 39.9016C373.113 40.1243 373.55 40.4407 373.901 40.8508C374.259 41.261 374.528 41.7532 374.71 42.3274C374.892 42.8958 374.982 43.5286 374.982 44.2258V45.2805H367.424V43.593H372.495V43.3997C372.495 43.0481 372.431 42.7346 372.302 42.4592C372.179 42.178 371.991 41.9553 371.739 41.7913C371.487 41.6272 371.165 41.5452 370.772 41.5452C370.438 41.5452 370.151 41.6184 369.911 41.7649C369.671 41.9114 369.475 42.1165 369.322 42.3801C369.176 42.6438 369.064 42.9543 368.988 43.3118C368.918 43.6633 368.883 44.05 368.883 44.4719V44.8235C368.883 45.2043 368.936 45.5559 369.041 45.8782C369.152 46.2004 369.308 46.4788 369.507 46.7131C369.712 46.9475 369.958 47.1292 370.245 47.2581C370.538 47.387 370.869 47.4514 371.238 47.4514C371.695 47.4514 372.12 47.3635 372.513 47.1877C372.911 47.0061 373.254 46.7336 373.541 46.3704L374.771 47.7063C374.572 47.9934 374.3 48.2688 373.954 48.5325C373.614 48.7961 373.204 49.0129 372.724 49.1829C372.243 49.3469 371.695 49.429 371.08 49.429ZM378.955 41.8176V49.2532H376.424V39.7434H378.806L378.955 41.8176ZM381.82 39.6819L381.776 42.0286C381.653 42.011 381.504 41.9963 381.328 41.9846C381.158 41.967 381.003 41.9583 380.862 41.9583C380.505 41.9583 380.194 42.0051 379.931 42.0989C379.673 42.1868 379.456 42.3186 379.28 42.4944C379.11 42.6702 378.981 42.884 378.894 43.136C378.812 43.3879 378.765 43.675 378.753 43.9973L378.243 43.8391C378.243 43.2239 378.305 42.6584 378.428 42.1428C378.551 41.6213 378.729 41.1672 378.964 40.7805C379.204 40.3938 379.497 40.095 379.843 39.884C380.188 39.6731 380.584 39.5676 381.029 39.5676C381.17 39.5676 381.313 39.5793 381.46 39.6028C381.606 39.6204 381.727 39.6467 381.82 39.6819ZM388.157 46.6252C388.157 46.4436 388.104 46.2795 387.999 46.1331C387.894 45.9866 387.697 45.8518 387.41 45.7288C387.129 45.5999 386.722 45.4827 386.188 45.3772C385.708 45.2717 385.26 45.1399 384.844 44.9817C384.434 44.8176 384.076 44.6213 383.771 44.3928C383.473 44.1643 383.238 43.8948 383.068 43.5842C382.898 43.2678 382.813 42.9075 382.813 42.5032C382.813 42.1047 382.898 41.7297 383.068 41.3782C383.244 41.0266 383.493 40.7161 383.815 40.4465C384.144 40.1711 384.542 39.9573 385.011 39.8049C385.485 39.6467 386.019 39.5676 386.61 39.5676C387.437 39.5676 388.146 39.6995 388.737 39.9631C389.335 40.2268 389.792 40.5901 390.108 41.053C390.431 41.51 390.592 42.0315 390.592 42.6174H388.061C388.061 42.3713 388.008 42.1516 387.902 41.9583C387.803 41.759 387.645 41.6038 387.428 41.4924C387.217 41.3752 386.941 41.3167 386.602 41.3167C386.32 41.3167 386.077 41.3665 385.872 41.4661C385.667 41.5598 385.509 41.6887 385.397 41.8528C385.292 42.011 385.239 42.1868 385.239 42.3801C385.239 42.5266 385.269 42.6584 385.327 42.7756C385.392 42.887 385.494 42.9895 385.635 43.0833C385.775 43.177 385.957 43.2649 386.18 43.3469C386.408 43.4231 386.689 43.4934 387.023 43.5579C387.709 43.6985 388.321 43.8831 388.86 44.1116C389.399 44.3342 389.827 44.6389 390.144 45.0256C390.46 45.4065 390.618 45.9075 390.618 46.5286C390.618 46.9504 390.524 47.3372 390.337 47.6887C390.149 48.0403 389.88 48.3479 389.528 48.6116C389.177 48.8694 388.755 49.0715 388.263 49.218C387.776 49.3586 387.229 49.429 386.619 49.429C385.734 49.429 384.984 49.2708 384.369 48.9543C383.76 48.6379 383.297 48.2366 382.98 47.7502C382.67 47.2581 382.515 46.7542 382.515 46.2385H384.914C384.926 46.5842 385.014 46.8625 385.178 47.0735C385.348 47.2844 385.562 47.4368 385.819 47.5305C386.083 47.6243 386.367 47.6711 386.672 47.6711C387 47.6711 387.272 47.6272 387.489 47.5393C387.706 47.4456 387.87 47.3225 387.981 47.1702C388.099 47.012 388.157 46.8303 388.157 46.6252ZM394.934 39.7434V49.2532H392.394V39.7434H394.934ZM392.235 37.2649C392.235 36.8958 392.364 36.5911 392.622 36.3508C392.88 36.1106 393.226 35.9905 393.659 35.9905C394.087 35.9905 394.43 36.1106 394.688 36.3508C394.951 36.5911 395.083 36.8958 395.083 37.2649C395.083 37.634 394.951 37.9387 394.688 38.179C394.43 38.4192 394.087 38.5393 393.659 38.5393C393.226 38.5393 392.88 38.4192 392.622 38.179C392.364 37.9387 392.235 37.634 392.235 37.2649ZM401.684 39.7434V41.5364H396.146V39.7434H401.684ZM397.518 37.3967H400.049V46.3879C400.049 46.6633 400.084 46.8743 400.154 47.0208C400.23 47.1672 400.342 47.2698 400.488 47.3284C400.635 47.3811 400.819 47.4075 401.042 47.4075C401.2 47.4075 401.341 47.4016 401.464 47.3899C401.593 47.3723 401.701 47.3547 401.789 47.3372L401.798 49.2004C401.581 49.2708 401.347 49.3264 401.095 49.3674C400.843 49.4084 400.564 49.429 400.26 49.429C399.703 49.429 399.217 49.3381 398.801 49.1565C398.391 48.969 398.074 48.6702 397.852 48.26C397.629 47.8499 397.518 47.3108 397.518 46.6428V37.3967ZM408.258 47.1086V42.8723C408.258 42.5676 408.208 42.3069 408.108 42.0901C408.009 41.8674 407.854 41.6946 407.643 41.5715C407.438 41.4485 407.171 41.387 406.843 41.387C406.562 41.387 406.318 41.4368 406.113 41.5364C405.908 41.6301 405.75 41.7678 405.639 41.9495C405.527 42.1252 405.472 42.3333 405.472 42.5735H402.94C402.94 42.1692 403.034 41.7854 403.222 41.4221C403.409 41.0588 403.682 40.7395 404.039 40.4641C404.396 40.1829 404.821 39.9631 405.313 39.8049C405.812 39.6467 406.368 39.5676 406.983 39.5676C407.722 39.5676 408.378 39.6907 408.952 39.9368C409.526 40.1829 409.978 40.552 410.306 41.0442C410.64 41.5364 410.807 42.1516 410.807 42.8899V46.9592C410.807 47.4807 410.839 47.9084 410.903 48.2424C410.968 48.5706 411.062 48.8577 411.185 49.1038V49.2532H408.627C408.504 48.9954 408.41 48.6731 408.346 48.2864C408.287 47.8938 408.258 47.5012 408.258 47.1086ZM408.592 43.4612L408.609 44.8938H407.194C406.86 44.8938 406.57 44.9319 406.324 45.0081C406.078 45.0842 405.876 45.1926 405.718 45.3333C405.56 45.468 405.442 45.6262 405.366 45.8079C405.296 45.9895 405.261 46.1887 405.261 46.4055C405.261 46.6223 405.311 46.8186 405.41 46.9944C405.51 47.1643 405.653 47.2991 405.841 47.3987C406.028 47.4924 406.248 47.5393 406.5 47.5393C406.881 47.5393 407.212 47.4631 407.493 47.3108C407.774 47.1584 407.991 46.9709 408.144 46.7483C408.302 46.5256 408.384 46.3147 408.39 46.1155L409.058 47.1877C408.964 47.428 408.835 47.677 408.671 47.9348C408.513 48.1926 408.311 48.4358 408.064 48.6643C407.818 48.887 407.522 49.0715 407.177 49.218C406.831 49.3586 406.421 49.429 405.946 49.429C405.343 49.429 404.795 49.3088 404.303 49.0686C403.816 48.8225 403.43 48.4856 403.143 48.0579C402.861 47.6243 402.721 47.1321 402.721 46.5813C402.721 46.0833 402.814 45.6409 403.002 45.2542C403.189 44.8674 403.465 44.5422 403.828 44.2786C404.197 44.009 404.657 43.8069 405.208 43.6721C405.759 43.5315 406.397 43.4612 407.124 43.4612H408.592ZM417.899 46.6252C417.899 46.4436 417.847 46.2795 417.741 46.1331C417.636 45.9866 417.439 45.8518 417.152 45.7288C416.871 45.5999 416.464 45.4827 415.931 45.3772C415.45 45.2717 415.002 45.1399 414.586 44.9817C414.176 44.8176 413.818 44.6213 413.514 44.3928C413.215 44.1643 412.98 43.8948 412.811 43.5842C412.641 43.2678 412.556 42.9075 412.556 42.5032C412.556 42.1047 412.641 41.7297 412.811 41.3782C412.986 41.0266 413.235 40.7161 413.558 40.4465C413.886 40.1711 414.284 39.9573 414.753 39.8049C415.228 39.6467 415.761 39.5676 416.353 39.5676C417.179 39.5676 417.888 39.6995 418.479 39.9631C419.077 40.2268 419.534 40.5901 419.851 41.053C420.173 41.51 420.334 42.0315 420.334 42.6174H417.803C417.803 42.3713 417.75 42.1516 417.645 41.9583C417.545 41.759 417.387 41.6038 417.17 41.4924C416.959 41.3752 416.684 41.3167 416.344 41.3167C416.062 41.3167 415.819 41.3665 415.614 41.4661C415.409 41.5598 415.251 41.6887 415.14 41.8528C415.034 42.011 414.981 42.1868 414.981 42.3801C414.981 42.5266 415.011 42.6584 415.069 42.7756C415.134 42.887 415.236 42.9895 415.377 43.0833C415.518 43.177 415.699 43.2649 415.922 43.3469C416.15 43.4231 416.432 43.4934 416.766 43.5579C417.451 43.6985 418.063 43.8831 418.603 44.1116C419.142 44.3342 419.569 44.6389 419.886 45.0256C420.202 45.4065 420.36 45.9075 420.36 46.5286C420.36 46.9504 420.267 47.3372 420.079 47.6887C419.892 48.0403 419.622 48.3479 419.271 48.6116C418.919 48.8694 418.497 49.0715 418.005 49.218C417.519 49.3586 416.971 49.429 416.361 49.429C415.477 49.429 414.727 49.2708 414.111 48.9543C413.502 48.6379 413.039 48.2366 412.723 47.7502C412.412 47.2581 412.257 46.7542 412.257 46.2385H414.656C414.668 46.5842 414.756 46.8625 414.92 47.0735C415.09 47.2844 415.304 47.4368 415.562 47.5305C415.825 47.6243 416.109 47.6711 416.414 47.6711C416.742 47.6711 417.015 47.6272 417.231 47.5393C417.448 47.4456 417.612 47.3225 417.724 47.1702C417.841 47.012 417.899 46.8303 417.899 46.6252ZM436.787 42.5647V47.636C436.588 47.8762 436.28 48.137 435.864 48.4182C435.448 48.6936 434.912 48.9309 434.256 49.1301C433.6 49.3293 432.806 49.429 431.874 49.429C431.048 49.429 430.295 49.2942 429.615 49.0247C428.936 48.7493 428.35 48.3479 427.857 47.8206C427.371 47.2932 426.996 46.6487 426.732 45.887C426.469 45.1194 426.337 44.2434 426.337 43.259V42.4592C426.337 41.4749 426.463 40.5989 426.715 39.8313C426.973 39.0637 427.339 38.4163 427.813 37.8889C428.288 37.3616 428.854 36.9602 429.51 36.6848C430.166 36.4094 430.896 36.2717 431.698 36.2717C432.812 36.2717 433.726 36.4534 434.44 36.8167C435.155 37.1741 435.7 37.6721 436.075 38.3108C436.456 38.9436 436.69 39.6702 436.778 40.4905H434.221C434.156 40.0569 434.033 39.679 433.852 39.3567C433.67 39.0344 433.409 38.7825 433.069 38.6008C432.735 38.4192 432.302 38.3284 431.769 38.3284C431.329 38.3284 430.937 38.4192 430.591 38.6008C430.251 38.7766 429.964 39.0374 429.729 39.3831C429.495 39.7288 429.316 40.1565 429.193 40.6663C429.07 41.176 429.009 41.7678 429.009 42.4417V43.259C429.009 43.927 429.073 44.5188 429.202 45.0344C429.331 45.5442 429.521 45.9749 429.773 46.3264C430.031 46.6721 430.348 46.9329 430.723 47.1086C431.098 47.2844 431.534 47.3723 432.032 47.3723C432.448 47.3723 432.794 47.3372 433.069 47.2668C433.351 47.1965 433.576 47.1116 433.746 47.012C433.922 46.9065 434.057 46.8069 434.15 46.7131V44.4456H431.742V42.5647H436.787ZM444.381 46.9768V39.7434H446.912V49.2532H444.53L444.381 46.9768ZM444.662 45.0256L445.409 45.0081C445.409 45.6409 445.336 46.2297 445.189 46.7747C445.043 47.3137 444.823 47.7825 444.53 48.1809C444.237 48.5735 443.868 48.8811 443.423 49.1038C442.978 49.3206 442.453 49.429 441.85 49.429C441.387 49.429 440.959 49.3645 440.566 49.2356C440.18 49.1008 439.846 48.8928 439.564 48.6116C439.289 48.3245 439.072 47.9583 438.914 47.5129C438.762 47.0618 438.686 46.5198 438.686 45.887V39.7434H441.217V45.9045C441.217 46.1858 441.249 46.4231 441.313 46.6165C441.384 46.8098 441.48 46.968 441.604 47.0911C441.727 47.2141 441.87 47.302 442.034 47.3547C442.204 47.4075 442.392 47.4338 442.597 47.4338C443.118 47.4338 443.528 47.3284 443.827 47.1174C444.132 46.9065 444.346 46.6194 444.469 46.2561C444.598 45.887 444.662 45.4768 444.662 45.0256ZM451.324 41.7737V49.2532H448.793V39.7434H451.166L451.324 41.7737ZM450.955 44.1643H450.27C450.27 43.4612 450.36 42.8284 450.542 42.2659C450.724 41.6975 450.979 41.2141 451.307 40.8157C451.635 40.4114 452.024 40.1038 452.476 39.8928C452.933 39.676 453.442 39.5676 454.005 39.5676C454.45 39.5676 454.857 39.6321 455.227 39.761C455.596 39.8899 455.912 40.095 456.176 40.3762C456.445 40.6575 456.65 41.0295 456.791 41.4924C456.938 41.9553 457.011 42.5208 457.011 43.1887V49.2532H454.462V43.1799C454.462 42.7581 454.403 42.4299 454.286 42.1956C454.169 41.9612 453.996 41.7971 453.768 41.7034C453.545 41.6038 453.27 41.554 452.941 41.554C452.602 41.554 452.306 41.6213 452.054 41.7561C451.808 41.8909 451.603 42.0784 451.438 42.3186C451.28 42.553 451.16 42.8284 451.078 43.1448C450.996 43.4612 450.955 43.801 450.955 44.1643ZM464.068 47.1086V42.8723C464.068 42.5676 464.019 42.3069 463.919 42.0901C463.819 41.8674 463.664 41.6946 463.453 41.5715C463.248 41.4485 462.981 41.387 462.653 41.387C462.372 41.387 462.129 41.4368 461.924 41.5364C461.719 41.6301 461.561 41.7678 461.449 41.9495C461.338 42.1252 461.282 42.3333 461.282 42.5735H458.751C458.751 42.1692 458.845 41.7854 459.032 41.4221C459.22 41.0588 459.492 40.7395 459.85 40.4641C460.207 40.1829 460.632 39.9631 461.124 39.8049C461.622 39.6467 462.179 39.5676 462.794 39.5676C463.532 39.5676 464.188 39.6907 464.763 39.9368C465.337 40.1829 465.788 40.552 466.116 41.0442C466.45 41.5364 466.617 42.1516 466.617 42.8899V46.9592C466.617 47.4807 466.649 47.9084 466.714 48.2424C466.778 48.5706 466.872 48.8577 466.995 49.1038V49.2532H464.438C464.314 48.9954 464.221 48.6731 464.156 48.2864C464.098 47.8938 464.068 47.5012 464.068 47.1086ZM464.402 43.4612L464.42 44.8938H463.005C462.671 44.8938 462.381 44.9319 462.135 45.0081C461.889 45.0842 461.687 45.1926 461.528 45.3333C461.37 45.468 461.253 45.6262 461.177 45.8079C461.106 45.9895 461.071 46.1887 461.071 46.4055C461.071 46.6223 461.121 46.8186 461.221 46.9944C461.32 47.1643 461.464 47.2991 461.651 47.3987C461.839 47.4924 462.059 47.5393 462.311 47.5393C462.691 47.5393 463.022 47.4631 463.304 47.3108C463.585 47.1584 463.802 46.9709 463.954 46.7483C464.112 46.5256 464.194 46.3147 464.2 46.1155L464.868 47.1877C464.774 47.428 464.646 47.677 464.481 47.9348C464.323 48.1926 464.121 48.4358 463.875 48.6643C463.629 48.887 463.333 49.0715 462.987 49.218C462.642 49.3586 462.231 49.429 461.757 49.429C461.153 49.429 460.605 49.3088 460.113 49.0686C459.627 48.8225 459.24 48.4856 458.953 48.0579C458.672 47.6243 458.531 47.1321 458.531 46.5813C458.531 46.0833 458.625 45.6409 458.812 45.2542C459 44.8674 459.275 44.5422 459.639 44.2786C460.008 44.009 460.468 43.8069 461.019 43.6721C461.569 43.5315 462.208 43.4612 462.935 43.4612H464.402ZM474.185 47.179V35.7532H476.733V49.2532H474.439L474.185 47.179ZM468.173 44.6125V44.428C468.173 43.7014 468.255 43.0422 468.419 42.4504C468.583 41.8528 468.823 41.3401 469.14 40.9124C469.456 40.4846 469.846 40.1536 470.309 39.9192C470.771 39.6848 471.299 39.5676 471.891 39.5676C472.447 39.5676 472.934 39.6848 473.35 39.9192C473.771 40.1536 474.129 40.4875 474.422 40.9211C474.721 41.3489 474.961 41.8557 475.143 42.4417C475.324 43.0217 475.456 43.6575 475.538 44.3489V44.7532C475.456 45.4153 475.324 46.0305 475.143 46.5989C474.961 47.1672 474.721 47.6653 474.422 48.093C474.129 48.5149 473.771 48.843 473.35 49.0774C472.928 49.3118 472.436 49.429 471.873 49.429C471.281 49.429 470.754 49.3088 470.291 49.0686C469.834 48.8284 469.447 48.4915 469.131 48.0579C468.82 47.6243 468.583 47.1145 468.419 46.5286C468.255 45.9426 468.173 45.304 468.173 44.6125ZM470.704 44.428V44.6125C470.704 45.0051 470.733 45.3713 470.792 45.7112C470.856 46.051 470.959 46.3528 471.1 46.6165C471.246 46.8743 471.434 47.0764 471.662 47.2229C471.896 47.3635 472.181 47.4338 472.515 47.4338C472.948 47.4338 473.306 47.3372 473.587 47.1438C473.868 46.9446 474.082 46.6721 474.229 46.3264C474.381 45.9807 474.469 45.5823 474.492 45.1311V43.9797C474.475 43.6106 474.422 43.2795 474.334 42.9866C474.252 42.6877 474.129 42.4329 473.965 42.2219C473.807 42.011 473.607 41.8469 473.367 41.7297C473.133 41.6125 472.854 41.554 472.532 41.554C472.204 41.554 471.923 41.6301 471.688 41.7825C471.454 41.929 471.264 42.1311 471.117 42.3889C470.977 42.6467 470.871 42.9514 470.801 43.303C470.736 43.6487 470.704 44.0237 470.704 44.428ZM483.844 47.1086V42.8723C483.844 42.5676 483.794 42.3069 483.694 42.0901C483.595 41.8674 483.439 41.6946 483.229 41.5715C483.023 41.4485 482.757 41.387 482.429 41.387C482.147 41.387 481.904 41.4368 481.699 41.5364C481.494 41.6301 481.336 41.7678 481.225 41.9495C481.113 42.1252 481.058 42.3333 481.058 42.5735H478.526C478.526 42.1692 478.62 41.7854 478.808 41.4221C478.995 41.0588 479.268 40.7395 479.625 40.4641C479.982 40.1829 480.407 39.9631 480.899 39.8049C481.397 39.6467 481.954 39.5676 482.569 39.5676C483.308 39.5676 483.964 39.6907 484.538 39.9368C485.112 40.1829 485.563 40.552 485.892 41.0442C486.226 41.5364 486.393 42.1516 486.393 42.8899V46.9592C486.393 47.4807 486.425 47.9084 486.489 48.2424C486.554 48.5706 486.647 48.8577 486.771 49.1038V49.2532H484.213C484.09 48.9954 483.996 48.6731 483.932 48.2864C483.873 47.8938 483.844 47.5012 483.844 47.1086ZM484.178 43.4612L484.195 44.8938H482.78C482.446 44.8938 482.156 44.9319 481.91 45.0081C481.664 45.0842 481.462 45.1926 481.304 45.3333C481.146 45.468 481.028 45.6262 480.952 45.8079C480.882 45.9895 480.847 46.1887 480.847 46.4055C480.847 46.6223 480.896 46.8186 480.996 46.9944C481.096 47.1643 481.239 47.2991 481.427 47.3987C481.614 47.4924 481.834 47.5393 482.086 47.5393C482.467 47.5393 482.798 47.4631 483.079 47.3108C483.36 47.1584 483.577 46.9709 483.729 46.7483C483.888 46.5256 483.97 46.3147 483.976 46.1155L484.644 47.1877C484.55 47.428 484.421 47.677 484.257 47.9348C484.099 48.1926 483.896 48.4358 483.65 48.6643C483.404 48.887 483.108 49.0715 482.763 49.218C482.417 49.3586 482.007 49.429 481.532 49.429C480.929 49.429 480.381 49.3088 479.889 49.0686C479.402 48.8225 479.016 48.4856 478.729 48.0579C478.447 47.6243 478.307 47.1321 478.307 46.5813C478.307 46.0833 478.4 45.6409 478.588 45.2542C478.775 44.8674 479.051 44.5422 479.414 44.2786C479.783 44.009 480.243 43.8069 480.794 43.6721C481.345 43.5315 481.983 43.4612 482.71 43.4612H484.178ZM490.875 41.8176V49.2532H488.344V39.7434H490.726L490.875 41.8176ZM493.74 39.6819L493.696 42.0286C493.573 42.011 493.424 41.9963 493.248 41.9846C493.078 41.967 492.923 41.9583 492.782 41.9583C492.425 41.9583 492.114 42.0051 491.851 42.0989C491.593 42.1868 491.376 42.3186 491.2 42.4944C491.03 42.6702 490.901 42.884 490.813 43.136C490.731 43.3879 490.685 43.675 490.673 43.9973L490.163 43.8391C490.163 43.2239 490.225 42.6584 490.348 42.1428C490.471 41.6213 490.649 41.1672 490.884 40.7805C491.124 40.3938 491.417 40.095 491.763 39.884C492.108 39.6731 492.504 39.5676 492.949 39.5676C493.09 39.5676 493.233 39.5793 493.38 39.6028C493.526 39.6204 493.646 39.6467 493.74 39.6819ZM497.467 41.7122V49.2532H494.927V39.7434H497.309L497.467 41.7122ZM497.115 44.1643H496.412C496.412 43.5022 496.491 42.8928 496.649 42.3362C496.813 41.7737 497.051 41.2874 497.361 40.8772C497.678 40.4612 498.067 40.1389 498.53 39.9104C498.993 39.6819 499.529 39.5676 500.139 39.5676C500.561 39.5676 500.947 39.6321 501.299 39.761C501.65 39.884 501.952 40.0803 502.204 40.3499C502.462 40.6135 502.661 40.9592 502.802 41.387C502.942 41.8088 503.013 42.3157 503.013 42.9075V49.2532H500.481V43.1887C500.481 42.7551 500.423 42.4211 500.306 42.1868C500.188 41.9524 500.021 41.7883 499.805 41.6946C499.594 41.6008 499.339 41.554 499.04 41.554C498.712 41.554 498.425 41.6213 498.179 41.7561C497.938 41.8909 497.739 42.0784 497.581 42.3186C497.423 42.553 497.306 42.8284 497.229 43.1448C497.153 43.4612 497.115 43.801 497.115 44.1643ZM502.775 43.8743L501.87 43.9885C501.87 43.3674 501.946 42.7903 502.099 42.2571C502.257 41.7239 502.488 41.2551 502.793 40.8508C503.104 40.4465 503.487 40.1331 503.944 39.9104C504.401 39.6819 504.929 39.5676 505.526 39.5676C505.983 39.5676 506.399 39.635 506.774 39.7698C507.149 39.8987 507.469 40.1067 507.732 40.3938C508.002 40.675 508.207 41.0442 508.348 41.5012C508.494 41.9583 508.567 42.5178 508.567 43.1799V49.2532H506.027V43.1799C506.027 42.7405 505.969 42.4065 505.852 42.178C505.74 41.9436 505.576 41.7825 505.359 41.6946C505.148 41.6008 504.896 41.554 504.604 41.554C504.299 41.554 504.032 41.6155 503.804 41.7385C503.575 41.8557 503.385 42.0198 503.232 42.2307C503.08 42.4417 502.966 42.6877 502.89 42.969C502.813 43.2444 502.775 43.5461 502.775 43.8743ZM515.66 47.1086V42.8723C515.66 42.5676 515.61 42.3069 515.511 42.0901C515.411 41.8674 515.256 41.6946 515.045 41.5715C514.84 41.4485 514.573 41.387 514.245 41.387C513.964 41.387 513.721 41.4368 513.516 41.5364C513.311 41.6301 513.152 41.7678 513.041 41.9495C512.93 42.1252 512.874 42.3333 512.874 42.5735H510.343C510.343 42.1692 510.437 41.7854 510.624 41.4221C510.812 41.0588 511.084 40.7395 511.441 40.4641C511.799 40.1829 512.224 39.9631 512.716 39.8049C513.214 39.6467 513.771 39.5676 514.386 39.5676C515.124 39.5676 515.78 39.6907 516.354 39.9368C516.929 40.1829 517.38 40.552 517.708 41.0442C518.042 41.5364 518.209 42.1516 518.209 42.8899V46.9592C518.209 47.4807 518.241 47.9084 518.306 48.2424C518.37 48.5706 518.464 48.8577 518.587 49.1038V49.2532H516.029C515.906 48.9954 515.812 48.6731 515.748 48.2864C515.689 47.8938 515.66 47.5012 515.66 47.1086ZM515.994 43.4612L516.012 44.8938H514.597C514.263 44.8938 513.973 44.9319 513.727 45.0081C513.48 45.0842 513.278 45.1926 513.12 45.3333C512.962 45.468 512.845 45.6262 512.769 45.8079C512.698 45.9895 512.663 46.1887 512.663 46.4055C512.663 46.6223 512.713 46.8186 512.812 46.9944C512.912 47.1643 513.056 47.2991 513.243 47.3987C513.431 47.4924 513.65 47.5393 513.902 47.5393C514.283 47.5393 514.614 47.4631 514.896 47.3108C515.177 47.1584 515.394 46.9709 515.546 46.7483C515.704 46.5256 515.786 46.3147 515.792 46.1155L516.46 47.1877C516.366 47.428 516.237 47.677 516.073 47.9348C515.915 48.1926 515.713 48.4358 515.467 48.6643C515.221 48.887 514.925 49.0715 514.579 49.218C514.233 49.3586 513.823 49.429 513.349 49.429C512.745 49.429 512.197 49.3088 511.705 49.0686C511.219 48.8225 510.832 48.4856 510.545 48.0579C510.264 47.6243 510.123 47.1321 510.123 46.5813C510.123 46.0833 510.217 45.6409 510.404 45.2542C510.592 44.8674 510.867 44.5422 511.23 44.2786C511.6 44.009 512.06 43.8069 512.61 43.6721C513.161 43.5315 513.8 43.4612 514.526 43.4612H515.994Z" fill="#ECC8FF"/>
<path d="M336.824 65.5668V66.5316H330.774V65.6874L333.802 62.3168C334.175 61.9021 334.462 61.5508 334.666 61.2631C334.873 60.9711 335.017 60.7108 335.097 60.4823C335.182 60.2496 335.224 60.0126 335.224 59.7714C335.224 59.4667 335.161 59.1916 335.034 58.9462C334.911 58.6965 334.729 58.4976 334.488 58.3495C334.247 58.2014 333.955 58.1273 333.612 58.1273C333.201 58.1273 332.859 58.2077 332.583 58.3685C332.313 58.5251 332.11 58.7452 331.974 59.0287C331.839 59.3122 331.771 59.6381 331.771 60.0062H330.597C330.597 59.4857 330.711 59.0096 330.939 58.578C331.168 58.1464 331.507 57.8036 331.955 57.5497C332.404 57.2915 332.956 57.1625 333.612 57.1625C334.196 57.1625 334.695 57.2662 335.11 57.4735C335.525 57.6766 335.842 57.9644 336.062 58.3368C336.286 58.705 336.398 59.1366 336.398 59.6317C336.398 59.9025 336.352 60.1776 336.259 60.4569C336.17 60.732 336.045 61.007 335.884 61.2821C335.728 61.5572 335.544 61.828 335.332 62.0946C335.125 62.3612 334.903 62.6236 334.666 62.8817L332.19 65.5668H336.824ZM343.882 61.1742V62.5834C343.882 63.3409 343.815 63.9799 343.679 64.5004C343.544 65.0209 343.349 65.4398 343.095 65.7572C342.841 66.0746 342.535 66.3052 342.175 66.4491C341.819 66.5887 341.417 66.6586 340.969 66.6586C340.613 66.6586 340.285 66.6141 339.985 66.5253C339.684 66.4364 339.414 66.2946 339.172 66.1C338.935 65.9011 338.732 65.6429 338.563 65.3256C338.394 65.0082 338.265 64.6231 338.176 64.1703C338.087 63.7175 338.042 63.1885 338.042 62.5834V61.1742C338.042 60.4167 338.11 59.7819 338.246 59.2699C338.385 58.7579 338.582 58.3474 338.836 58.0385C339.09 57.7253 339.395 57.501 339.75 57.3656C340.11 57.2302 340.512 57.1625 340.956 57.1625C341.316 57.1625 341.646 57.2069 341.946 57.2958C342.251 57.3804 342.522 57.5179 342.759 57.7084C342.996 57.8946 343.197 58.1442 343.362 58.4574C343.531 58.7663 343.66 59.1451 343.749 59.5936C343.838 60.0422 343.882 60.5691 343.882 61.1742ZM342.702 62.7738V60.9774C342.702 60.5627 342.676 60.1988 342.625 59.8856C342.579 59.5682 342.509 59.2974 342.416 59.0731C342.323 58.8488 342.204 58.6669 342.061 58.5272C341.921 58.3876 341.758 58.286 341.572 58.2225C341.39 58.1548 341.185 58.121 340.956 58.121C340.677 58.121 340.429 58.1739 340.213 58.2797C339.998 58.3812 339.816 58.5441 339.667 58.7684C339.524 58.9927 339.414 59.2868 339.337 59.6508C339.261 60.0147 339.223 60.4569 339.223 60.9774V62.7738C339.223 63.1885 339.246 63.5546 339.293 63.8719C339.344 64.1893 339.418 64.4644 339.515 64.6971C339.612 64.9257 339.731 65.114 339.871 65.2621C340.01 65.4102 340.171 65.5202 340.353 65.5922C340.539 65.6599 340.744 65.6937 340.969 65.6937C341.257 65.6937 341.508 65.6387 341.724 65.5287C341.94 65.4187 342.12 65.2473 342.264 65.0145C342.412 64.7775 342.522 64.475 342.594 64.1068C342.666 63.7344 342.702 63.2901 342.702 62.7738ZM349.252 57.2386V66.5316H348.078V58.705L345.71 59.5682V58.5082L349.068 57.2386H349.252ZM353.874 65.5477H353.994C354.671 65.5477 355.221 65.4525 355.645 65.2621C356.068 65.0717 356.394 64.8156 356.622 64.494C356.851 64.1724 357.007 63.8106 357.092 63.4086C357.176 63.0023 357.219 62.5855 357.219 62.1581V60.7426C357.219 60.3236 357.17 59.9512 357.073 59.6254C356.98 59.2995 356.848 59.0266 356.679 58.8065C356.514 58.5865 356.326 58.4193 356.114 58.3051C355.903 58.1908 355.678 58.1337 355.441 58.1337C355.171 58.1337 354.927 58.1887 354.711 58.2987C354.5 58.4045 354.32 58.5547 354.172 58.7494C354.028 58.9441 353.918 59.1726 353.842 59.4349C353.766 59.6973 353.728 59.983 353.728 60.2919C353.728 60.5669 353.761 60.8335 353.829 61.0917C353.897 61.3498 354 61.5826 354.14 61.7899C354.28 61.9973 354.453 62.1623 354.661 62.285C354.872 62.4035 355.12 62.4628 355.403 62.4628C355.666 62.4628 355.911 62.412 356.14 62.3104C356.372 62.2046 356.578 62.0629 356.755 61.8851C356.937 61.7032 357.081 61.4979 357.187 61.2694C357.297 61.0409 357.361 60.8018 357.377 60.5521H357.936C357.936 60.9034 357.866 61.2504 357.727 61.5931C357.591 61.9317 357.401 62.2406 357.155 62.5199C356.91 62.7992 356.622 63.0235 356.292 63.1927C355.962 63.3578 355.602 63.4403 355.213 63.4403C354.756 63.4403 354.36 63.3514 354.026 63.1737C353.692 62.996 353.417 62.759 353.201 62.4628C352.989 62.1665 352.83 61.8365 352.725 61.4725C352.623 61.1044 352.572 60.732 352.572 60.3553C352.572 59.9152 352.634 59.5026 352.756 59.1176C352.879 58.7325 353.061 58.3939 353.302 58.1019C353.543 57.8057 353.842 57.5751 354.197 57.41C354.557 57.245 354.972 57.1625 355.441 57.1625C355.97 57.1625 356.421 57.2683 356.793 57.4799C357.166 57.6914 357.468 57.975 357.701 58.3304C357.938 58.6859 358.112 59.0858 358.222 59.5302C358.332 59.9745 358.387 60.4315 358.387 60.9012V61.3265C358.387 61.8047 358.355 62.2914 358.292 62.7865C358.232 63.2774 358.116 63.7471 357.942 64.1957C357.773 64.6442 357.526 65.0463 357.2 65.4017C356.874 65.753 356.449 66.0323 355.924 66.2396C355.403 66.4427 354.76 66.5443 353.994 66.5443H353.874V65.5477ZM365.813 62.12V63.0848H362.716V62.12H365.813ZM376.116 65.5668V66.5316H370.066V65.6874L373.094 62.3168C373.467 61.9021 373.754 61.5508 373.958 61.2631C374.165 60.9711 374.309 60.7108 374.389 60.4823C374.474 60.2496 374.516 60.0126 374.516 59.7714C374.516 59.4667 374.453 59.1916 374.326 58.9462C374.203 58.6965 374.021 58.4976 373.78 58.3495C373.539 58.2014 373.247 58.1273 372.904 58.1273C372.493 58.1273 372.151 58.2077 371.875 58.3685C371.605 58.5251 371.402 58.7452 371.266 59.0287C371.131 59.3122 371.063 59.6381 371.063 60.0062H369.889C369.889 59.4857 370.003 59.0096 370.231 58.578C370.46 58.1464 370.799 57.8036 371.247 57.5497C371.696 57.2915 372.248 57.1625 372.904 57.1625C373.488 57.1625 373.987 57.2662 374.402 57.4735C374.817 57.6766 375.134 57.9644 375.354 58.3368C375.578 58.705 375.69 59.1366 375.69 59.6317C375.69 59.9025 375.644 60.1776 375.551 60.4569C375.462 60.732 375.337 61.007 375.176 61.2821C375.02 61.5572 374.836 61.828 374.624 62.0946C374.417 62.3612 374.194 62.6236 373.958 62.8817L371.482 65.5668H376.116ZM383.174 61.1742V62.5834C383.174 63.3409 383.107 63.9799 382.971 64.5004C382.836 65.0209 382.641 65.4398 382.387 65.7572C382.133 66.0746 381.826 66.3052 381.467 66.4491C381.111 66.5887 380.709 66.6586 380.261 66.6586C379.905 66.6586 379.577 66.6141 379.277 66.5253C378.976 66.4364 378.706 66.2946 378.464 66.1C378.227 65.9011 378.024 65.6429 377.855 65.3256C377.686 65.0082 377.557 64.6231 377.468 64.1703C377.379 63.7175 377.334 63.1885 377.334 62.5834V61.1742C377.334 60.4167 377.402 59.7819 377.538 59.2699C377.677 58.7579 377.874 58.3474 378.128 58.0385C378.382 57.7253 378.687 57.501 379.042 57.3656C379.402 57.2302 379.804 57.1625 380.248 57.1625C380.608 57.1625 380.938 57.2069 381.238 57.2958C381.543 57.3804 381.814 57.5179 382.051 57.7084C382.288 57.8946 382.489 58.1442 382.654 58.4574C382.823 58.7663 382.952 59.1451 383.041 59.5936C383.13 60.0422 383.174 60.5691 383.174 61.1742ZM381.994 62.7738V60.9774C381.994 60.5627 381.968 60.1988 381.917 59.8856C381.871 59.5682 381.801 59.2974 381.708 59.0731C381.615 58.8488 381.496 58.6669 381.353 58.5272C381.213 58.3876 381.05 58.286 380.864 58.2225C380.682 58.1548 380.477 58.121 380.248 58.121C379.969 58.121 379.721 58.1739 379.505 58.2797C379.29 58.3812 379.108 58.5441 378.959 58.7684C378.816 58.9927 378.706 59.2868 378.629 59.6508C378.553 60.0147 378.515 60.4569 378.515 60.9774V62.7738C378.515 63.1885 378.538 63.5546 378.585 63.8719C378.636 64.1893 378.71 64.4644 378.807 64.6971C378.904 64.9257 379.023 65.114 379.163 65.2621C379.302 65.4102 379.463 65.5202 379.645 65.5922C379.831 65.6599 380.036 65.6937 380.261 65.6937C380.549 65.6937 380.8 65.6387 381.016 65.5287C381.232 65.4187 381.412 65.2473 381.556 65.0145C381.704 64.7775 381.814 64.475 381.886 64.1068C381.958 63.7344 381.994 63.2901 381.994 62.7738ZM390.741 65.5668V66.5316H384.691V65.6874L387.719 62.3168C388.092 61.9021 388.379 61.5508 388.583 61.2631C388.79 60.9711 388.934 60.7108 389.014 60.4823C389.099 60.2496 389.141 60.0126 389.141 59.7714C389.141 59.4667 389.078 59.1916 388.951 58.9462C388.828 58.6965 388.646 58.4976 388.405 58.3495C388.164 58.2014 387.872 58.1273 387.529 58.1273C387.118 58.1273 386.776 58.2077 386.5 58.3685C386.23 58.5251 386.027 58.7452 385.891 59.0287C385.756 59.3122 385.688 59.6381 385.688 60.0062H384.514C384.514 59.4857 384.628 59.0096 384.856 58.578C385.085 58.1464 385.424 57.8036 385.872 57.5497C386.321 57.2915 386.873 57.1625 387.529 57.1625C388.113 57.1625 388.612 57.2662 389.027 57.4735C389.442 57.6766 389.759 57.9644 389.979 58.3368C390.203 58.705 390.315 59.1366 390.315 59.6317C390.315 59.9025 390.269 60.1776 390.176 60.4569C390.087 60.732 389.962 61.007 389.801 61.2821C389.645 61.5572 389.461 61.828 389.249 62.0946C389.042 62.3612 388.819 62.6236 388.583 62.8817L386.107 65.5668H390.741ZM393.711 61.3329H394.549C394.96 61.3329 395.298 61.2652 395.565 61.1298C395.836 60.9901 396.037 60.8018 396.168 60.5648C396.303 60.3236 396.371 60.0528 396.371 59.7523C396.371 59.3969 396.312 59.0985 396.193 58.8573C396.075 58.6161 395.897 58.4341 395.66 58.3114C395.423 58.1887 395.123 58.1273 394.759 58.1273C394.429 58.1273 394.137 58.1929 393.883 58.3241C393.633 58.451 393.436 58.633 393.292 58.87C393.153 59.107 393.083 59.3863 393.083 59.7079H391.909C391.909 59.2382 392.027 58.8108 392.264 58.4257C392.501 58.0406 392.833 57.7338 393.261 57.5052C393.692 57.2767 394.192 57.1625 394.759 57.1625C395.317 57.1625 395.806 57.2619 396.225 57.4608C396.644 57.6555 396.97 57.9475 397.203 58.3368C397.435 58.7219 397.552 59.2022 397.552 59.7777C397.552 60.0105 397.497 60.2601 397.387 60.5267C397.281 60.7891 397.114 61.0345 396.885 61.2631C396.661 61.4916 396.369 61.6799 396.009 61.828C395.65 61.9719 395.218 62.0438 394.714 62.0438H393.711V61.3329ZM393.711 62.2977V61.5931H394.714C395.303 61.5931 395.789 61.663 396.174 61.8026C396.559 61.9423 396.862 62.1285 397.082 62.3612C397.306 62.594 397.463 62.85 397.552 63.1293C397.645 63.4043 397.691 63.6794 397.691 63.9545C397.691 64.3861 397.617 64.7691 397.469 65.1034C397.325 65.4377 397.12 65.7212 396.854 65.954C396.591 66.1867 396.282 66.3623 395.927 66.4808C395.571 66.5993 395.184 66.6586 394.765 66.6586C394.363 66.6586 393.984 66.6014 393.629 66.4872C393.278 66.3729 392.967 66.2079 392.696 65.9921C392.425 65.772 392.213 65.5033 392.061 65.1859C391.909 64.8643 391.833 64.4983 391.833 64.0878H393.007C393.007 64.4094 393.077 64.6908 393.216 64.932C393.36 65.1732 393.563 65.3615 393.826 65.4969C394.092 65.6281 394.405 65.6937 394.765 65.6937C395.125 65.6937 395.434 65.6324 395.692 65.5096C395.954 65.3827 396.155 65.1923 396.295 64.9384C396.439 64.6844 396.511 64.3649 396.511 63.9799C396.511 63.5948 396.43 63.2795 396.27 63.0341C396.109 62.7844 395.88 62.6003 395.584 62.4818C395.292 62.3591 394.947 62.2977 394.549 62.2977H393.711Z" fill="#ECC8FF"/>
<path d="M302.084 209.728C302.084 214.79 297.979 218.895 292.916 218.895C287.854 218.895 283.749 214.79 283.749 209.728C283.749 204.665 287.854 200.56 292.916 200.56C297.979 200.56 302.084 204.665 302.084 209.728Z" fill="#3282B8"/>
<rect x="316" y="171" width="192" height="80" rx="13" fill="#3282B8"/>
<path d="M336.805 204.651C336.805 204.423 336.77 204.218 336.699 204.036C336.635 203.849 336.512 203.679 336.33 203.526C336.148 203.368 335.894 203.213 335.565 203.061C335.237 202.908 334.812 202.75 334.291 202.586C333.711 202.398 333.16 202.188 332.639 201.953C332.123 201.719 331.666 201.446 331.268 201.136C330.875 200.819 330.564 200.453 330.336 200.037C330.113 199.621 330.002 199.138 330.002 198.587C330.002 198.054 330.119 197.57 330.354 197.137C330.588 196.697 330.916 196.322 331.338 196.012C331.76 195.695 332.258 195.452 332.832 195.282C333.412 195.112 334.048 195.027 334.739 195.027C335.683 195.027 336.506 195.197 337.209 195.537C337.912 195.877 338.457 196.343 338.844 196.935C339.236 197.526 339.433 198.203 339.433 198.965H336.813C336.813 198.59 336.734 198.262 336.576 197.98C336.424 197.693 336.189 197.468 335.873 197.304C335.562 197.14 335.17 197.058 334.695 197.058C334.238 197.058 333.857 197.128 333.553 197.269C333.248 197.403 333.02 197.588 332.867 197.822C332.715 198.051 332.639 198.309 332.639 198.596C332.639 198.812 332.691 199.009 332.797 199.185C332.908 199.36 333.072 199.524 333.289 199.677C333.506 199.829 333.772 199.973 334.089 200.107C334.405 200.242 334.771 200.374 335.188 200.503C335.885 200.714 336.497 200.951 337.024 201.215C337.558 201.479 338.003 201.774 338.36 202.103C338.718 202.431 338.987 202.803 339.169 203.219C339.351 203.635 339.441 204.106 339.441 204.634C339.441 205.19 339.333 205.688 339.116 206.128C338.899 206.567 338.586 206.939 338.176 207.244C337.766 207.549 337.276 207.78 336.708 207.938C336.14 208.097 335.504 208.176 334.801 208.176C334.168 208.176 333.544 208.094 332.929 207.93C332.313 207.76 331.754 207.505 331.25 207.165C330.752 206.825 330.354 206.392 330.055 205.864C329.756 205.337 329.606 204.713 329.606 203.992H332.252C332.252 204.391 332.313 204.728 332.437 205.003C332.56 205.278 332.732 205.501 332.955 205.671C333.184 205.841 333.453 205.964 333.764 206.04C334.08 206.116 334.426 206.154 334.801 206.154C335.258 206.154 335.633 206.09 335.926 205.961C336.225 205.832 336.444 205.653 336.585 205.425C336.731 205.196 336.805 204.938 336.805 204.651ZM342.438 195.203H344.671L347.958 204.599L351.245 195.203H353.478L348.854 208H347.062L342.438 195.203ZM341.234 195.203H343.458L343.862 204.361V208H341.234V195.203ZM352.458 195.203H354.69V208H352.054V204.361L352.458 195.203ZM361.985 203.438H358.725V201.382H361.985C362.489 201.382 362.899 201.3 363.216 201.136C363.532 200.966 363.764 200.731 363.91 200.433C364.057 200.134 364.13 199.797 364.13 199.422C364.13 199.041 364.057 198.687 363.91 198.358C363.764 198.03 363.532 197.767 363.216 197.567C362.899 197.368 362.489 197.269 361.985 197.269H359.639V208H357.002V195.203H361.985C362.987 195.203 363.846 195.385 364.561 195.748C365.281 196.105 365.832 196.601 366.213 197.233C366.594 197.866 366.784 198.59 366.784 199.404C366.784 200.23 366.594 200.945 366.213 201.549C365.832 202.152 365.281 202.618 364.561 202.946C363.846 203.274 362.987 203.438 361.985 203.438ZM380.504 203.755H383.132C383.079 204.616 382.842 205.381 382.42 206.049C382.004 206.717 381.421 207.238 380.671 207.613C379.927 207.988 379.03 208.176 377.981 208.176C377.161 208.176 376.426 208.035 375.775 207.754C375.125 207.467 374.568 207.057 374.105 206.523C373.648 205.99 373.3 205.346 373.06 204.59C372.819 203.834 372.699 202.987 372.699 202.05V201.162C372.699 200.225 372.822 199.378 373.068 198.622C373.32 197.86 373.678 197.213 374.141 196.68C374.609 196.146 375.169 195.736 375.819 195.449C376.47 195.162 377.196 195.019 377.999 195.019C379.065 195.019 379.965 195.212 380.697 195.599C381.436 195.985 382.007 196.519 382.411 197.198C382.821 197.878 383.067 198.651 383.149 199.519H380.513C380.483 199.003 380.381 198.566 380.205 198.209C380.029 197.846 379.763 197.573 379.405 197.392C379.054 197.204 378.585 197.11 377.999 197.11C377.56 197.11 377.176 197.192 376.848 197.356C376.52 197.521 376.244 197.77 376.021 198.104C375.799 198.438 375.632 198.859 375.521 199.369C375.415 199.873 375.362 200.465 375.362 201.145V202.05C375.362 202.712 375.412 203.295 375.512 203.799C375.611 204.297 375.764 204.719 375.969 205.064C376.18 205.404 376.449 205.662 376.777 205.838C377.111 206.008 377.513 206.093 377.981 206.093C378.532 206.093 378.986 206.005 379.344 205.829C379.701 205.653 379.974 205.393 380.161 205.047C380.354 204.701 380.469 204.271 380.504 203.755ZM387.377 198.49V208H384.837V198.49H387.377ZM384.679 196.012C384.679 195.643 384.808 195.338 385.065 195.098C385.323 194.857 385.669 194.737 386.103 194.737C386.53 194.737 386.873 194.857 387.131 195.098C387.395 195.338 387.526 195.643 387.526 196.012C387.526 196.381 387.395 196.686 387.131 196.926C386.873 197.166 386.53 197.286 386.103 197.286C385.669 197.286 385.323 197.166 385.065 196.926C384.808 196.686 384.679 196.381 384.679 196.012ZM394.127 198.49V200.283H388.59V198.49H394.127ZM389.961 196.144H392.492V205.135C392.492 205.41 392.527 205.621 392.598 205.768C392.674 205.914 392.785 206.017 392.932 206.075C393.078 206.128 393.263 206.154 393.485 206.154C393.644 206.154 393.784 206.148 393.907 206.137C394.036 206.119 394.145 206.102 394.232 206.084L394.241 207.947C394.024 208.018 393.79 208.073 393.538 208.114C393.286 208.155 393.008 208.176 392.703 208.176C392.146 208.176 391.66 208.085 391.244 207.903C390.834 207.716 390.518 207.417 390.295 207.007C390.072 206.597 389.961 206.058 389.961 205.39V196.144ZM398.1 200.564V208H395.568V198.49H397.95L398.1 200.564ZM400.965 198.429L400.921 200.775C400.798 200.758 400.648 200.743 400.473 200.731C400.303 200.714 400.147 200.705 400.007 200.705C399.649 200.705 399.339 200.752 399.075 200.846C398.817 200.934 398.601 201.065 398.425 201.241C398.255 201.417 398.126 201.631 398.038 201.883C397.956 202.135 397.909 202.422 397.897 202.744L397.388 202.586C397.388 201.971 397.449 201.405 397.572 200.89C397.695 200.368 397.874 199.914 398.108 199.527C398.349 199.141 398.642 198.842 398.987 198.631C399.333 198.42 399.729 198.314 400.174 198.314C400.314 198.314 400.458 198.326 400.604 198.35C400.751 198.367 400.871 198.394 400.965 198.429ZM406.994 205.855V201.619C406.994 201.314 406.944 201.054 406.845 200.837C406.745 200.614 406.59 200.441 406.379 200.318C406.174 200.195 405.907 200.134 405.579 200.134C405.298 200.134 405.055 200.184 404.85 200.283C404.645 200.377 404.486 200.515 404.375 200.696C404.264 200.872 404.208 201.08 404.208 201.32H401.677C401.677 200.916 401.771 200.532 401.958 200.169C402.146 199.806 402.418 199.486 402.775 199.211C403.133 198.93 403.558 198.71 404.05 198.552C404.548 198.394 405.104 198.314 405.72 198.314C406.458 198.314 407.114 198.438 407.688 198.684C408.263 198.93 408.714 199.299 409.042 199.791C409.376 200.283 409.543 200.898 409.543 201.637V205.706C409.543 206.228 409.575 206.655 409.64 206.989C409.704 207.317 409.798 207.604 409.921 207.851V208H407.363C407.24 207.742 407.146 207.42 407.082 207.033C407.023 206.641 406.994 206.248 406.994 205.855ZM407.328 202.208L407.346 203.641H405.931C405.597 203.641 405.307 203.679 405.061 203.755C404.814 203.831 404.612 203.939 404.454 204.08C404.296 204.215 404.179 204.373 404.103 204.555C404.032 204.736 403.997 204.936 403.997 205.152C403.997 205.369 404.047 205.565 404.146 205.741C404.246 205.911 404.39 206.046 404.577 206.146C404.765 206.239 404.984 206.286 405.236 206.286C405.617 206.286 405.948 206.21 406.229 206.058C406.511 205.905 406.728 205.718 406.88 205.495C407.038 205.272 407.12 205.062 407.126 204.862L407.794 205.935C407.7 206.175 407.571 206.424 407.407 206.682C407.249 206.939 407.047 207.183 406.801 207.411C406.555 207.634 406.259 207.818 405.913 207.965C405.567 208.105 405.157 208.176 404.683 208.176C404.079 208.176 403.531 208.056 403.039 207.815C402.553 207.569 402.166 207.232 401.879 206.805C401.598 206.371 401.457 205.879 401.457 205.328C401.457 204.83 401.551 204.388 401.738 204.001C401.926 203.614 402.201 203.289 402.564 203.025C402.934 202.756 403.394 202.554 403.944 202.419C404.495 202.278 405.134 202.208 405.86 202.208H407.328ZM426.55 195.203V208H423.913L418.771 199.422V208H416.135V195.203H418.771L423.922 203.79V195.203H426.55ZM434.311 205.724V198.49H436.842V208H434.46L434.311 205.724ZM434.592 203.772L435.339 203.755C435.339 204.388 435.266 204.977 435.119 205.521C434.973 206.061 434.753 206.529 434.46 206.928C434.167 207.32 433.798 207.628 433.353 207.851C432.907 208.067 432.383 208.176 431.779 208.176C431.316 208.176 430.889 208.111 430.496 207.982C430.109 207.848 429.775 207.64 429.494 207.358C429.219 207.071 429.002 206.705 428.844 206.26C428.691 205.809 428.615 205.267 428.615 204.634V198.49H431.146V204.651C431.146 204.933 431.179 205.17 431.243 205.363C431.313 205.557 431.41 205.715 431.533 205.838C431.656 205.961 431.8 206.049 431.964 206.102C432.134 206.154 432.321 206.181 432.526 206.181C433.048 206.181 433.458 206.075 433.757 205.864C434.062 205.653 434.275 205.366 434.398 205.003C434.527 204.634 434.592 204.224 434.592 203.772ZM443.917 205.372C443.917 205.19 443.864 205.026 443.759 204.88C443.653 204.733 443.457 204.599 443.17 204.476C442.889 204.347 442.481 204.229 441.948 204.124C441.468 204.019 441.02 203.887 440.604 203.729C440.193 203.564 439.836 203.368 439.531 203.14C439.232 202.911 438.998 202.642 438.828 202.331C438.658 202.015 438.573 201.654 438.573 201.25C438.573 200.852 438.658 200.477 438.828 200.125C439.004 199.773 439.253 199.463 439.575 199.193C439.903 198.918 440.302 198.704 440.771 198.552C441.245 198.394 441.778 198.314 442.37 198.314C443.196 198.314 443.905 198.446 444.497 198.71C445.095 198.974 445.552 199.337 445.868 199.8C446.19 200.257 446.352 200.778 446.352 201.364H443.82C443.82 201.118 443.768 200.898 443.662 200.705C443.562 200.506 443.404 200.351 443.188 200.239C442.977 200.122 442.701 200.063 442.361 200.063C442.08 200.063 441.837 200.113 441.632 200.213C441.427 200.307 441.269 200.436 441.157 200.6C441.052 200.758 440.999 200.934 440.999 201.127C440.999 201.273 441.028 201.405 441.087 201.522C441.151 201.634 441.254 201.736 441.395 201.83C441.535 201.924 441.717 202.012 441.939 202.094C442.168 202.17 442.449 202.24 442.783 202.305C443.469 202.445 444.081 202.63 444.62 202.858C445.159 203.081 445.587 203.386 445.903 203.772C446.22 204.153 446.378 204.654 446.378 205.275C446.378 205.697 446.284 206.084 446.097 206.436C445.909 206.787 445.64 207.095 445.288 207.358C444.937 207.616 444.515 207.818 444.022 207.965C443.536 208.105 442.988 208.176 442.379 208.176C441.494 208.176 440.744 208.018 440.129 207.701C439.52 207.385 439.057 206.983 438.74 206.497C438.43 206.005 438.274 205.501 438.274 204.985H440.674C440.686 205.331 440.773 205.609 440.938 205.82C441.107 206.031 441.321 206.184 441.579 206.277C441.843 206.371 442.127 206.418 442.432 206.418C442.76 206.418 443.032 206.374 443.249 206.286C443.466 206.192 443.63 206.069 443.741 205.917C443.858 205.759 443.917 205.577 443.917 205.372ZM453.154 205.855V201.619C453.154 201.314 453.104 201.054 453.005 200.837C452.905 200.614 452.75 200.441 452.539 200.318C452.334 200.195 452.067 200.134 451.739 200.134C451.458 200.134 451.215 200.184 451.01 200.283C450.805 200.377 450.646 200.515 450.535 200.696C450.424 200.872 450.368 201.08 450.368 201.32H447.837C447.837 200.916 447.931 200.532 448.118 200.169C448.306 199.806 448.578 199.486 448.936 199.211C449.293 198.93 449.718 198.71 450.21 198.552C450.708 198.394 451.265 198.314 451.88 198.314C452.618 198.314 453.274 198.438 453.849 198.684C454.423 198.93 454.874 199.299 455.202 199.791C455.536 200.283 455.703 200.898 455.703 201.637V205.706C455.703 206.228 455.735 206.655 455.8 206.989C455.864 207.317 455.958 207.604 456.081 207.851V208H453.523C453.4 207.742 453.307 207.42 453.242 207.033C453.184 206.641 453.154 206.248 453.154 205.855ZM453.488 202.208L453.506 203.641H452.091C451.757 203.641 451.467 203.679 451.221 203.755C450.975 203.831 450.772 203.939 450.614 204.08C450.456 204.215 450.339 204.373 450.263 204.555C450.192 204.736 450.157 204.936 450.157 205.152C450.157 205.369 450.207 205.565 450.307 205.741C450.406 205.911 450.55 206.046 450.737 206.146C450.925 206.239 451.145 206.286 451.396 206.286C451.777 206.286 452.108 206.21 452.39 206.058C452.671 205.905 452.888 205.718 453.04 205.495C453.198 205.272 453.28 205.062 453.286 204.862L453.954 205.935C453.86 206.175 453.731 206.424 453.567 206.682C453.409 206.939 453.207 207.183 452.961 207.411C452.715 207.634 452.419 207.818 452.073 207.965C451.728 208.105 451.317 208.176 450.843 208.176C450.239 208.176 449.691 208.056 449.199 207.815C448.713 207.569 448.326 207.232 448.039 206.805C447.758 206.371 447.617 205.879 447.617 205.328C447.617 204.83 447.711 204.388 447.898 204.001C448.086 203.614 448.361 203.289 448.725 203.025C449.094 202.756 449.554 202.554 450.104 202.419C450.655 202.278 451.294 202.208 452.021 202.208H453.488Z" fill="#BBE1FA"/>
<path d="M335.824 222.76V223.725H329.774V222.881L332.802 219.51C333.175 219.095 333.462 218.744 333.666 218.456C333.873 218.164 334.017 217.904 334.097 217.676C334.182 217.443 334.224 217.206 334.224 216.965C334.224 216.66 334.161 216.385 334.034 216.14C333.911 215.89 333.729 215.691 333.488 215.543C333.247 215.395 332.955 215.321 332.612 215.321C332.201 215.321 331.859 215.401 331.583 215.562C331.313 215.718 331.11 215.939 330.974 216.222C330.839 216.506 330.771 216.831 330.771 217.2H329.597C329.597 216.679 329.711 216.203 329.939 215.771C330.168 215.34 330.507 214.997 330.955 214.743C331.404 214.485 331.956 214.356 332.612 214.356C333.196 214.356 333.695 214.46 334.11 214.667C334.525 214.87 334.842 215.158 335.062 215.53C335.286 215.898 335.398 216.33 335.398 216.825C335.398 217.096 335.352 217.371 335.259 217.65C335.17 217.925 335.045 218.2 334.884 218.475C334.728 218.751 334.544 219.021 334.332 219.288C334.125 219.555 333.903 219.817 333.666 220.075L331.19 222.76H335.824ZM342.882 218.368V219.777C342.882 220.534 342.815 221.173 342.679 221.694C342.544 222.214 342.349 222.633 342.095 222.951C341.841 223.268 341.535 223.499 341.175 223.642C340.819 223.782 340.417 223.852 339.969 223.852C339.613 223.852 339.285 223.807 338.985 223.719C338.684 223.63 338.414 223.488 338.172 223.293C337.935 223.094 337.732 222.836 337.563 222.519C337.394 222.202 337.265 221.816 337.176 221.364C337.087 220.911 337.042 220.382 337.042 219.777V218.368C337.042 217.61 337.11 216.975 337.246 216.463C337.385 215.951 337.582 215.541 337.836 215.232C338.09 214.919 338.395 214.694 338.75 214.559C339.11 214.424 339.512 214.356 339.956 214.356C340.316 214.356 340.646 214.4 340.946 214.489C341.251 214.574 341.522 214.711 341.759 214.902C341.996 215.088 342.197 215.338 342.362 215.651C342.531 215.96 342.66 216.338 342.749 216.787C342.838 217.236 342.882 217.762 342.882 218.368ZM341.702 219.967V218.171C341.702 217.756 341.676 217.392 341.625 217.079C341.579 216.762 341.509 216.491 341.416 216.266C341.323 216.042 341.204 215.86 341.061 215.721C340.921 215.581 340.758 215.479 340.572 215.416C340.39 215.348 340.185 215.314 339.956 215.314C339.677 215.314 339.429 215.367 339.213 215.473C338.998 215.575 338.816 215.738 338.667 215.962C338.524 216.186 338.414 216.48 338.337 216.844C338.261 217.208 338.223 217.65 338.223 218.171V219.967C338.223 220.382 338.246 220.748 338.293 221.065C338.344 221.383 338.418 221.658 338.515 221.891C338.612 222.119 338.731 222.307 338.871 222.455C339.01 222.604 339.171 222.714 339.353 222.786C339.539 222.853 339.744 222.887 339.969 222.887C340.257 222.887 340.508 222.832 340.724 222.722C340.94 222.612 341.12 222.441 341.264 222.208C341.412 221.971 341.522 221.668 341.594 221.3C341.666 220.928 341.702 220.483 341.702 219.967ZM348.252 214.432V223.725H347.078V215.898L344.71 216.762V215.702L348.068 214.432H348.252ZM353.419 218.526H354.257C354.668 218.526 355.006 218.459 355.273 218.323C355.544 218.183 355.745 217.995 355.876 217.758C356.011 217.517 356.079 217.246 356.079 216.946C356.079 216.59 356.02 216.292 355.901 216.051C355.783 215.809 355.605 215.627 355.368 215.505C355.131 215.382 354.831 215.321 354.467 215.321C354.137 215.321 353.845 215.386 353.591 215.517C353.341 215.644 353.144 215.826 353 216.063C352.861 216.3 352.791 216.58 352.791 216.901H351.617C351.617 216.432 351.735 216.004 351.972 215.619C352.209 215.234 352.541 214.927 352.969 214.699C353.4 214.47 353.9 214.356 354.467 214.356C355.025 214.356 355.514 214.455 355.933 214.654C356.352 214.849 356.678 215.141 356.911 215.53C357.143 215.915 357.26 216.396 357.26 216.971C357.26 217.204 357.205 217.453 357.095 217.72C356.989 217.982 356.822 218.228 356.593 218.456C356.369 218.685 356.077 218.873 355.717 219.021C355.358 219.165 354.926 219.237 354.422 219.237H353.419V218.526ZM353.419 219.491V218.786H354.422C355.011 218.786 355.497 218.856 355.882 218.996C356.267 219.136 356.57 219.322 356.79 219.555C357.014 219.787 357.171 220.043 357.26 220.323C357.353 220.598 357.399 220.873 357.399 221.148C357.399 221.579 357.325 221.962 357.177 222.297C357.033 222.631 356.828 222.915 356.562 223.147C356.299 223.38 355.99 223.556 355.635 223.674C355.279 223.793 354.892 223.852 354.473 223.852C354.071 223.852 353.692 223.795 353.337 223.681C352.986 223.566 352.675 223.401 352.404 223.185C352.133 222.965 351.921 222.697 351.769 222.379C351.617 222.058 351.541 221.692 351.541 221.281H352.715C352.715 221.603 352.785 221.884 352.924 222.125C353.068 222.367 353.271 222.555 353.534 222.69C353.8 222.821 354.113 222.887 354.473 222.887C354.833 222.887 355.142 222.826 355.4 222.703C355.662 222.576 355.863 222.386 356.003 222.132C356.147 221.878 356.219 221.558 356.219 221.173C356.219 220.788 356.138 220.473 355.978 220.227C355.817 219.978 355.588 219.794 355.292 219.675C355 219.552 354.655 219.491 354.257 219.491H353.419ZM364.813 219.313V220.278H361.716V219.313H364.813ZM375.116 222.76V223.725H369.066V222.881L372.094 219.51C372.467 219.095 372.754 218.744 372.958 218.456C373.165 218.164 373.309 217.904 373.389 217.676C373.474 217.443 373.516 217.206 373.516 216.965C373.516 216.66 373.453 216.385 373.326 216.14C373.203 215.89 373.021 215.691 372.78 215.543C372.539 215.395 372.247 215.321 371.904 215.321C371.493 215.321 371.151 215.401 370.875 215.562C370.605 215.718 370.402 215.939 370.266 216.222C370.131 216.506 370.063 216.831 370.063 217.2H368.889C368.889 216.679 369.003 216.203 369.231 215.771C369.46 215.34 369.799 214.997 370.247 214.743C370.696 214.485 371.248 214.356 371.904 214.356C372.488 214.356 372.987 214.46 373.402 214.667C373.817 214.87 374.134 215.158 374.354 215.53C374.578 215.898 374.69 216.33 374.69 216.825C374.69 217.096 374.644 217.371 374.551 217.65C374.462 217.925 374.337 218.2 374.176 218.475C374.02 218.751 373.836 219.021 373.624 219.288C373.417 219.555 373.194 219.817 372.958 220.075L370.482 222.76H375.116ZM382.174 218.368V219.777C382.174 220.534 382.107 221.173 381.971 221.694C381.836 222.214 381.641 222.633 381.387 222.951C381.133 223.268 380.826 223.499 380.467 223.642C380.111 223.782 379.709 223.852 379.261 223.852C378.905 223.852 378.577 223.807 378.277 223.719C377.976 223.63 377.706 223.488 377.464 223.293C377.227 223.094 377.024 222.836 376.855 222.519C376.686 222.202 376.557 221.816 376.468 221.364C376.379 220.911 376.334 220.382 376.334 219.777V218.368C376.334 217.61 376.402 216.975 376.538 216.463C376.677 215.951 376.874 215.541 377.128 215.232C377.382 214.919 377.687 214.694 378.042 214.559C378.402 214.424 378.804 214.356 379.248 214.356C379.608 214.356 379.938 214.4 380.238 214.489C380.543 214.574 380.814 214.711 381.051 214.902C381.288 215.088 381.489 215.338 381.654 215.651C381.823 215.96 381.952 216.338 382.041 216.787C382.13 217.236 382.174 217.762 382.174 218.368ZM380.994 219.967V218.171C380.994 217.756 380.968 217.392 380.917 217.079C380.871 216.762 380.801 216.491 380.708 216.266C380.615 216.042 380.496 215.86 380.353 215.721C380.213 215.581 380.05 215.479 379.864 215.416C379.682 215.348 379.477 215.314 379.248 215.314C378.969 215.314 378.721 215.367 378.505 215.473C378.29 215.575 378.108 215.738 377.959 215.962C377.816 216.186 377.706 216.48 377.629 216.844C377.553 217.208 377.515 217.65 377.515 218.171V219.967C377.515 220.382 377.538 220.748 377.585 221.065C377.636 221.383 377.71 221.658 377.807 221.891C377.904 222.119 378.023 222.307 378.163 222.455C378.302 222.604 378.463 222.714 378.645 222.786C378.831 222.853 379.036 222.887 379.261 222.887C379.549 222.887 379.8 222.832 380.016 222.722C380.232 222.612 380.412 222.441 380.556 222.208C380.704 221.971 380.814 221.668 380.886 221.3C380.958 220.928 380.994 220.483 380.994 219.967ZM387.544 214.432V223.725H386.37V215.898L384.002 216.762V215.702L387.36 214.432H387.544ZM395.504 214.47H395.606V215.467H395.504C394.882 215.467 394.362 215.568 393.943 215.771C393.524 215.97 393.192 216.239 392.946 216.578C392.701 216.912 392.523 217.288 392.413 217.707C392.307 218.126 392.254 218.552 392.254 218.983V220.342C392.254 220.752 392.303 221.116 392.4 221.433C392.498 221.747 392.631 222.011 392.8 222.227C392.97 222.443 393.16 222.606 393.372 222.716C393.587 222.826 393.812 222.881 394.044 222.881C394.315 222.881 394.556 222.83 394.768 222.728C394.98 222.623 395.157 222.477 395.301 222.29C395.449 222.1 395.562 221.876 395.638 221.618C395.714 221.359 395.752 221.076 395.752 220.767C395.752 220.492 395.718 220.227 395.65 219.974C395.583 219.715 395.479 219.487 395.339 219.288C395.2 219.085 395.024 218.926 394.812 218.812C394.605 218.693 394.358 218.634 394.07 218.634C393.744 218.634 393.439 218.715 393.156 218.875C392.876 219.032 392.646 219.239 392.464 219.497C392.286 219.751 392.185 220.029 392.159 220.329L391.537 220.323C391.596 219.849 391.706 219.445 391.867 219.11C392.032 218.772 392.235 218.497 392.477 218.285C392.722 218.069 392.995 217.913 393.295 217.815C393.6 217.714 393.922 217.663 394.26 217.663C394.722 217.663 395.119 217.75 395.454 217.923C395.788 218.097 396.063 218.329 396.279 218.621C396.495 218.909 396.653 219.235 396.755 219.599C396.861 219.959 396.914 220.329 396.914 220.71C396.914 221.146 396.852 221.554 396.729 221.935C396.607 222.316 396.423 222.65 396.177 222.938C395.936 223.226 395.638 223.45 395.282 223.611C394.927 223.772 394.514 223.852 394.044 223.852C393.545 223.852 393.109 223.75 392.737 223.547C392.364 223.34 392.056 223.065 391.81 222.722C391.565 222.379 391.381 221.998 391.258 221.579C391.135 221.161 391.074 220.735 391.074 220.304V219.751C391.074 219.1 391.139 218.461 391.271 217.834C391.402 217.208 391.628 216.641 391.95 216.133C392.276 215.625 392.726 215.221 393.302 214.921C393.877 214.62 394.611 214.47 395.504 214.47Z" fill="#BBE1FA"/>
<path d="M302.334 131.328C302.334 136.391 298.23 140.495 293.167 140.495C288.104 140.495 284 136.391 284 131.328C284 126.265 288.104 122.161 293.167 122.161C298.23 122.161 302.334 126.265 302.334 131.328Z" fill="#BBE1FA"/>
<rect x="77" y="91" width="192" height="80" rx="13" fill="#BBE1FA"/>
<path d="M114.178 116.651C114.178 116.423 114.143 116.218 114.072 116.036C114.008 115.849 113.885 115.679 113.703 115.526C113.521 115.368 113.267 115.213 112.938 115.061C112.61 114.908 112.186 114.75 111.664 114.586C111.084 114.398 110.533 114.188 110.012 113.953C109.496 113.719 109.039 113.446 108.641 113.136C108.248 112.819 107.938 112.453 107.709 112.037C107.486 111.621 107.375 111.138 107.375 110.587C107.375 110.054 107.492 109.57 107.727 109.137C107.961 108.697 108.289 108.322 108.711 108.012C109.133 107.695 109.631 107.452 110.205 107.282C110.785 107.112 111.421 107.027 112.112 107.027C113.056 107.027 113.879 107.197 114.582 107.537C115.285 107.877 115.83 108.343 116.217 108.935C116.609 109.526 116.806 110.203 116.806 110.965H114.187C114.187 110.59 114.107 110.262 113.949 109.98C113.797 109.693 113.562 109.468 113.246 109.304C112.936 109.14 112.543 109.058 112.068 109.058C111.611 109.058 111.23 109.128 110.926 109.269C110.621 109.403 110.393 109.588 110.24 109.822C110.088 110.051 110.012 110.309 110.012 110.596C110.012 110.812 110.064 111.009 110.17 111.185C110.281 111.36 110.445 111.524 110.662 111.677C110.879 111.829 111.146 111.973 111.462 112.107C111.778 112.242 112.145 112.374 112.561 112.503C113.258 112.714 113.87 112.951 114.397 113.215C114.931 113.479 115.376 113.774 115.733 114.103C116.091 114.431 116.36 114.803 116.542 115.219C116.724 115.635 116.814 116.106 116.814 116.634C116.814 117.19 116.706 117.688 116.489 118.128C116.272 118.567 115.959 118.939 115.549 119.244C115.139 119.549 114.649 119.78 114.081 119.938C113.513 120.097 112.877 120.176 112.174 120.176C111.541 120.176 110.917 120.094 110.302 119.93C109.687 119.76 109.127 119.505 108.623 119.165C108.125 118.825 107.727 118.392 107.428 117.864C107.129 117.337 106.979 116.713 106.979 115.992H109.625C109.625 116.391 109.687 116.728 109.81 117.003C109.933 117.278 110.105 117.501 110.328 117.671C110.557 117.841 110.826 117.964 111.137 118.04C111.453 118.116 111.799 118.154 112.174 118.154C112.631 118.154 113.006 118.09 113.299 117.961C113.598 117.832 113.817 117.653 113.958 117.425C114.104 117.196 114.178 116.938 114.178 116.651ZM119.812 107.203H122.044L125.331 116.599L128.618 107.203H130.851L126.228 120H124.435L119.812 107.203ZM118.607 107.203H120.831L121.235 116.361V120H118.607V107.203ZM129.831 107.203H132.063V120H129.427V116.361L129.831 107.203ZM137.012 107.203V120H134.375V107.203H137.012ZM144.676 107.203L139.604 113.522L136.678 116.669L136.203 114.173L138.181 111.466L141.441 107.203H144.676ZM141.679 120L137.908 114.085L139.859 112.45L144.799 120H141.679ZM155.311 114.384H152.023L152.006 112.573H154.766C155.252 112.573 155.65 112.512 155.961 112.389C156.271 112.26 156.503 112.075 156.655 111.835C156.813 111.589 156.893 111.29 156.893 110.938C156.893 110.54 156.816 110.218 156.664 109.972C156.518 109.726 156.286 109.547 155.97 109.436C155.659 109.324 155.258 109.269 154.766 109.269H152.938V120H150.301V107.203H154.766C155.51 107.203 156.175 107.273 156.761 107.414C157.353 107.555 157.854 107.769 158.264 108.056C158.674 108.343 158.987 108.706 159.204 109.146C159.421 109.579 159.529 110.095 159.529 110.692C159.529 111.22 159.409 111.706 159.169 112.151C158.935 112.597 158.562 112.96 158.053 113.241C157.549 113.522 156.89 113.678 156.075 113.707L155.311 114.384ZM155.196 120H151.303L152.331 117.943H155.196C155.659 117.943 156.037 117.87 156.33 117.724C156.623 117.571 156.84 117.366 156.98 117.108C157.121 116.851 157.191 116.555 157.191 116.221C157.191 115.846 157.127 115.521 156.998 115.245C156.875 114.97 156.676 114.759 156.4 114.612C156.125 114.46 155.762 114.384 155.311 114.384H152.771L152.788 112.573H155.952L156.559 113.285C157.338 113.273 157.965 113.411 158.439 113.698C158.92 113.979 159.269 114.346 159.485 114.797C159.708 115.248 159.819 115.731 159.819 116.247C159.819 117.067 159.641 117.759 159.283 118.321C158.926 118.878 158.401 119.297 157.71 119.578C157.024 119.859 156.187 120 155.196 120ZM166.771 117.855V113.619C166.771 113.314 166.722 113.054 166.622 112.837C166.522 112.614 166.367 112.441 166.156 112.318C165.951 112.195 165.685 112.134 165.356 112.134C165.075 112.134 164.832 112.184 164.627 112.283C164.422 112.377 164.264 112.515 164.152 112.696C164.041 112.872 163.985 113.08 163.985 113.32H161.454C161.454 112.916 161.548 112.532 161.735 112.169C161.923 111.806 162.195 111.486 162.553 111.211C162.91 110.93 163.335 110.71 163.827 110.552C164.325 110.394 164.882 110.314 165.497 110.314C166.235 110.314 166.892 110.438 167.466 110.684C168.04 110.93 168.491 111.299 168.819 111.791C169.153 112.283 169.32 112.898 169.32 113.637V117.706C169.32 118.228 169.353 118.655 169.417 118.989C169.481 119.317 169.575 119.604 169.698 119.851V120H167.141C167.018 119.742 166.924 119.42 166.859 119.033C166.801 118.641 166.771 118.248 166.771 117.855ZM167.105 114.208L167.123 115.641H165.708C165.374 115.641 165.084 115.679 164.838 115.755C164.592 115.831 164.39 115.939 164.231 116.08C164.073 116.215 163.956 116.373 163.88 116.555C163.81 116.736 163.774 116.936 163.774 117.152C163.774 117.369 163.824 117.565 163.924 117.741C164.023 117.911 164.167 118.046 164.354 118.146C164.542 118.239 164.762 118.286 165.014 118.286C165.395 118.286 165.726 118.21 166.007 118.058C166.288 117.905 166.505 117.718 166.657 117.495C166.815 117.272 166.897 117.062 166.903 116.862L167.571 117.935C167.478 118.175 167.349 118.424 167.185 118.682C167.026 118.939 166.824 119.183 166.578 119.411C166.332 119.634 166.036 119.818 165.69 119.965C165.345 120.105 164.935 120.176 164.46 120.176C163.856 120.176 163.309 120.056 162.816 119.815C162.33 119.569 161.943 119.232 161.656 118.805C161.375 118.371 161.234 117.879 161.234 117.328C161.234 116.83 161.328 116.388 161.516 116.001C161.703 115.614 161.979 115.289 162.342 115.025C162.711 114.756 163.171 114.554 163.722 114.419C164.272 114.278 164.911 114.208 165.638 114.208H167.105ZM173.75 112.521V120H171.219V110.49H173.592L173.75 112.521ZM173.381 114.911H172.695C172.695 114.208 172.786 113.575 172.968 113.013C173.149 112.444 173.404 111.961 173.732 111.562C174.061 111.158 174.45 110.851 174.901 110.64C175.358 110.423 175.868 110.314 176.431 110.314C176.876 110.314 177.283 110.379 177.652 110.508C178.021 110.637 178.338 110.842 178.602 111.123C178.871 111.404 179.076 111.776 179.217 112.239C179.363 112.702 179.437 113.268 179.437 113.936V120H176.888V113.927C176.888 113.505 176.829 113.177 176.712 112.942C176.595 112.708 176.422 112.544 176.193 112.45C175.971 112.351 175.695 112.301 175.367 112.301C175.027 112.301 174.731 112.368 174.479 112.503C174.233 112.638 174.028 112.825 173.864 113.065C173.706 113.3 173.586 113.575 173.504 113.892C173.422 114.208 173.381 114.548 173.381 114.911ZM187.382 110.49H189.676V119.684C189.676 120.551 189.482 121.286 189.096 121.89C188.715 122.499 188.182 122.959 187.496 123.27C186.811 123.586 186.014 123.744 185.105 123.744C184.707 123.744 184.285 123.691 183.84 123.586C183.4 123.48 182.979 123.316 182.574 123.094C182.176 122.871 181.842 122.59 181.572 122.25L182.688 120.756C182.981 121.096 183.321 121.359 183.708 121.547C184.095 121.74 184.522 121.837 184.991 121.837C185.448 121.837 185.835 121.752 186.151 121.582C186.468 121.418 186.711 121.175 186.881 120.853C187.051 120.536 187.136 120.152 187.136 119.701V112.688L187.382 110.49ZM180.983 115.359V115.175C180.983 114.448 181.071 113.789 181.247 113.197C181.429 112.6 181.684 112.087 182.012 111.659C182.346 111.231 182.75 110.9 183.225 110.666C183.699 110.432 184.235 110.314 184.833 110.314C185.466 110.314 185.996 110.432 186.424 110.666C186.852 110.9 187.203 111.234 187.479 111.668C187.754 112.096 187.968 112.603 188.12 113.188C188.278 113.769 188.401 114.404 188.489 115.096V115.5C188.401 116.162 188.27 116.777 188.094 117.346C187.918 117.914 187.687 118.412 187.399 118.84C187.112 119.262 186.755 119.59 186.327 119.824C185.905 120.059 185.401 120.176 184.815 120.176C184.229 120.176 183.699 120.056 183.225 119.815C182.756 119.575 182.354 119.238 182.021 118.805C181.687 118.371 181.429 117.861 181.247 117.275C181.071 116.689 180.983 116.051 180.983 115.359ZM183.515 115.175V115.359C183.515 115.752 183.553 116.118 183.629 116.458C183.705 116.798 183.822 117.1 183.98 117.363C184.145 117.621 184.347 117.823 184.587 117.97C184.833 118.11 185.123 118.181 185.457 118.181C185.92 118.181 186.298 118.084 186.591 117.891C186.884 117.691 187.104 117.419 187.25 117.073C187.396 116.728 187.481 116.329 187.505 115.878V114.727C187.493 114.357 187.443 114.026 187.355 113.733C187.268 113.435 187.145 113.18 186.986 112.969C186.828 112.758 186.623 112.594 186.371 112.477C186.119 112.359 185.82 112.301 185.475 112.301C185.141 112.301 184.851 112.377 184.604 112.529C184.364 112.676 184.162 112.878 183.998 113.136C183.84 113.394 183.72 113.698 183.638 114.05C183.556 114.396 183.515 114.771 183.515 115.175ZM197.27 117.724V110.49H199.801V120H197.419L197.27 117.724ZM197.551 115.772L198.298 115.755C198.298 116.388 198.225 116.977 198.078 117.521C197.932 118.061 197.712 118.529 197.419 118.928C197.126 119.32 196.757 119.628 196.312 119.851C195.866 120.067 195.342 120.176 194.738 120.176C194.275 120.176 193.848 120.111 193.455 119.982C193.068 119.848 192.734 119.64 192.453 119.358C192.178 119.071 191.961 118.705 191.803 118.26C191.65 117.809 191.574 117.267 191.574 116.634V110.49H194.105V116.651C194.105 116.933 194.138 117.17 194.202 117.363C194.272 117.557 194.369 117.715 194.492 117.838C194.615 117.961 194.759 118.049 194.923 118.102C195.093 118.154 195.28 118.181 195.485 118.181C196.007 118.181 196.417 118.075 196.716 117.864C197.021 117.653 197.234 117.366 197.357 117.003C197.486 116.634 197.551 116.224 197.551 115.772ZM204.213 112.521V120H201.682V110.49H204.055L204.213 112.521ZM203.844 114.911H203.158C203.158 114.208 203.249 113.575 203.431 113.013C203.612 112.444 203.867 111.961 204.195 111.562C204.523 111.158 204.913 110.851 205.364 110.64C205.821 110.423 206.331 110.314 206.894 110.314C207.339 110.314 207.746 110.379 208.115 110.508C208.484 110.637 208.801 110.842 209.064 111.123C209.334 111.404 209.539 111.776 209.68 112.239C209.826 112.702 209.899 113.268 209.899 113.936V120H207.351V113.927C207.351 113.505 207.292 113.177 207.175 112.942C207.058 112.708 206.885 112.544 206.656 112.45C206.434 112.351 206.158 112.301 205.83 112.301C205.49 112.301 205.194 112.368 204.942 112.503C204.696 112.638 204.491 112.825 204.327 113.065C204.169 113.3 204.049 113.575 203.967 113.892C203.885 114.208 203.844 114.548 203.844 114.911ZM226.88 107.203V120H224.243L219.102 111.422V120H216.465V107.203H219.102L224.252 115.79V107.203H226.88ZM234.641 117.724V110.49H237.172V120H234.79L234.641 117.724ZM234.922 115.772L235.669 115.755C235.669 116.388 235.596 116.977 235.449 117.521C235.303 118.061 235.083 118.529 234.79 118.928C234.497 119.32 234.128 119.628 233.683 119.851C233.237 120.067 232.713 120.176 232.109 120.176C231.646 120.176 231.219 120.111 230.826 119.982C230.439 119.848 230.105 119.64 229.824 119.358C229.549 119.071 229.332 118.705 229.174 118.26C229.021 117.809 228.945 117.267 228.945 116.634V110.49H231.477V116.651C231.477 116.933 231.509 117.17 231.573 117.363C231.644 117.557 231.74 117.715 231.863 117.838C231.986 117.961 232.13 118.049 232.294 118.102C232.464 118.154 232.651 118.181 232.856 118.181C233.378 118.181 233.788 118.075 234.087 117.864C234.392 117.653 234.605 117.366 234.729 117.003C234.857 116.634 234.922 116.224 234.922 115.772ZM244.247 117.372C244.247 117.19 244.194 117.026 244.089 116.88C243.983 116.733 243.787 116.599 243.5 116.476C243.219 116.347 242.812 116.229 242.278 116.124C241.798 116.019 241.35 115.887 240.934 115.729C240.523 115.564 240.166 115.368 239.861 115.14C239.562 114.911 239.328 114.642 239.158 114.331C238.988 114.015 238.903 113.654 238.903 113.25C238.903 112.852 238.988 112.477 239.158 112.125C239.334 111.773 239.583 111.463 239.905 111.193C240.233 110.918 240.632 110.704 241.101 110.552C241.575 110.394 242.108 110.314 242.7 110.314C243.526 110.314 244.235 110.446 244.827 110.71C245.425 110.974 245.882 111.337 246.198 111.8C246.521 112.257 246.682 112.778 246.682 113.364H244.15C244.15 113.118 244.098 112.898 243.992 112.705C243.893 112.506 243.734 112.351 243.518 112.239C243.307 112.122 243.031 112.063 242.691 112.063C242.41 112.063 242.167 112.113 241.962 112.213C241.757 112.307 241.599 112.436 241.487 112.6C241.382 112.758 241.329 112.934 241.329 113.127C241.329 113.273 241.358 113.405 241.417 113.522C241.481 113.634 241.584 113.736 241.725 113.83C241.865 113.924 242.047 114.012 242.27 114.094C242.498 114.17 242.779 114.24 243.113 114.305C243.799 114.445 244.411 114.63 244.95 114.858C245.489 115.081 245.917 115.386 246.233 115.772C246.55 116.153 246.708 116.654 246.708 117.275C246.708 117.697 246.614 118.084 246.427 118.436C246.239 118.787 245.97 119.095 245.618 119.358C245.267 119.616 244.845 119.818 244.353 119.965C243.866 120.105 243.318 120.176 242.709 120.176C241.824 120.176 241.074 120.018 240.459 119.701C239.85 119.385 239.387 118.983 239.07 118.497C238.76 118.005 238.604 117.501 238.604 116.985H241.004C241.016 117.331 241.104 117.609 241.268 117.82C241.438 118.031 241.651 118.184 241.909 118.277C242.173 118.371 242.457 118.418 242.762 118.418C243.09 118.418 243.362 118.374 243.579 118.286C243.796 118.192 243.96 118.069 244.071 117.917C244.188 117.759 244.247 117.577 244.247 117.372ZM253.484 117.855V113.619C253.484 113.314 253.435 113.054 253.335 112.837C253.235 112.614 253.08 112.441 252.869 112.318C252.664 112.195 252.397 112.134 252.069 112.134C251.788 112.134 251.545 112.184 251.34 112.283C251.135 112.377 250.977 112.515 250.865 112.696C250.754 112.872 250.698 113.08 250.698 113.32H248.167C248.167 112.916 248.261 112.532 248.448 112.169C248.636 111.806 248.908 111.486 249.266 111.211C249.623 110.93 250.048 110.71 250.54 110.552C251.038 110.394 251.595 110.314 252.21 110.314C252.948 110.314 253.604 110.438 254.179 110.684C254.753 110.93 255.204 111.299 255.532 111.791C255.866 112.283 256.033 112.898 256.033 113.637V117.706C256.033 118.228 256.065 118.655 256.13 118.989C256.194 119.317 256.288 119.604 256.411 119.851V120H253.854C253.73 119.742 253.637 119.42 253.572 119.033C253.514 118.641 253.484 118.248 253.484 117.855ZM253.818 114.208L253.836 115.641H252.421C252.087 115.641 251.797 115.679 251.551 115.755C251.305 115.831 251.103 115.939 250.944 116.08C250.786 116.215 250.669 116.373 250.593 116.555C250.522 116.736 250.487 116.936 250.487 117.152C250.487 117.369 250.537 117.565 250.637 117.741C250.736 117.911 250.88 118.046 251.067 118.146C251.255 118.239 251.475 118.286 251.727 118.286C252.107 118.286 252.438 118.21 252.72 118.058C253.001 117.905 253.218 117.718 253.37 117.495C253.528 117.272 253.61 117.062 253.616 116.862L254.284 117.935C254.19 118.175 254.062 118.424 253.897 118.682C253.739 118.939 253.537 119.183 253.291 119.411C253.045 119.634 252.749 119.818 252.403 119.965C252.058 120.105 251.647 120.176 251.173 120.176C250.569 120.176 250.021 120.056 249.529 119.815C249.043 119.569 248.656 119.232 248.369 118.805C248.088 118.371 247.947 117.879 247.947 117.328C247.947 116.83 248.041 116.388 248.229 116.001C248.416 115.614 248.691 115.289 249.055 115.025C249.424 114.756 249.884 114.554 250.435 114.419C250.985 114.278 251.624 114.208 252.351 114.208H253.818ZM202.771 135.384H199.484L199.467 133.573H202.227C202.713 133.573 203.111 133.512 203.422 133.389C203.732 133.26 203.964 133.075 204.116 132.835C204.274 132.589 204.354 132.29 204.354 131.938C204.354 131.54 204.277 131.218 204.125 130.972C203.979 130.726 203.747 130.547 203.431 130.436C203.12 130.324 202.719 130.269 202.227 130.269H200.398V141H197.762V128.203H202.227C202.971 128.203 203.636 128.273 204.222 128.414C204.813 128.555 205.314 128.769 205.725 129.056C206.135 129.343 206.448 129.706 206.665 130.146C206.882 130.579 206.99 131.095 206.99 131.692C206.99 132.22 206.87 132.706 206.63 133.151C206.396 133.597 206.023 133.96 205.514 134.241C205.01 134.522 204.351 134.678 203.536 134.707L202.771 135.384ZM202.657 141H198.764L199.792 138.943H202.657C203.12 138.943 203.498 138.87 203.791 138.724C204.084 138.571 204.301 138.366 204.441 138.108C204.582 137.851 204.652 137.555 204.652 137.221C204.652 136.846 204.588 136.521 204.459 136.245C204.336 135.97 204.137 135.759 203.861 135.612C203.586 135.46 203.223 135.384 202.771 135.384H200.231L200.249 133.573H203.413L204.02 134.285C204.799 134.273 205.426 134.411 205.9 134.698C206.381 134.979 206.729 135.346 206.946 135.797C207.169 136.248 207.28 136.731 207.28 137.247C207.28 138.067 207.102 138.759 206.744 139.321C206.387 139.878 205.862 140.297 205.171 140.578C204.485 140.859 203.647 141 202.657 141ZM214.232 138.855V134.619C214.232 134.314 214.183 134.054 214.083 133.837C213.983 133.614 213.828 133.441 213.617 133.318C213.412 133.195 213.146 133.134 212.817 133.134C212.536 133.134 212.293 133.184 212.088 133.283C211.883 133.377 211.725 133.515 211.613 133.696C211.502 133.872 211.446 134.08 211.446 134.32H208.915C208.915 133.916 209.009 133.532 209.196 133.169C209.384 132.806 209.656 132.486 210.014 132.211C210.371 131.93 210.796 131.71 211.288 131.552C211.786 131.394 212.343 131.314 212.958 131.314C213.696 131.314 214.353 131.438 214.927 131.684C215.501 131.93 215.952 132.299 216.28 132.791C216.614 133.283 216.781 133.898 216.781 134.637V138.706C216.781 139.228 216.813 139.655 216.878 139.989C216.942 140.317 217.036 140.604 217.159 140.851V141H214.602C214.479 140.742 214.385 140.42 214.32 140.033C214.262 139.641 214.232 139.248 214.232 138.855ZM214.566 135.208L214.584 136.641H213.169C212.835 136.641 212.545 136.679 212.299 136.755C212.053 136.831 211.851 136.939 211.692 137.08C211.534 137.215 211.417 137.373 211.341 137.555C211.271 137.736 211.235 137.936 211.235 138.152C211.235 138.369 211.285 138.565 211.385 138.741C211.484 138.911 211.628 139.046 211.815 139.146C212.003 139.239 212.223 139.286 212.475 139.286C212.855 139.286 213.187 139.21 213.468 139.058C213.749 138.905 213.966 138.718 214.118 138.495C214.276 138.272 214.358 138.062 214.364 137.862L215.032 138.935C214.938 139.175 214.81 139.424 214.646 139.682C214.487 139.939 214.285 140.183 214.039 140.411C213.793 140.634 213.497 140.818 213.151 140.965C212.806 141.105 212.396 141.176 211.921 141.176C211.317 141.176 210.77 141.056 210.277 140.815C209.791 140.569 209.404 140.232 209.117 139.805C208.836 139.371 208.695 138.879 208.695 138.328C208.695 137.83 208.789 137.388 208.977 137.001C209.164 136.614 209.439 136.289 209.803 136.025C210.172 135.756 210.632 135.554 211.183 135.419C211.733 135.278 212.372 135.208 213.099 135.208H214.566ZM221.211 133.521V141H218.68V131.49H221.053L221.211 133.521ZM220.842 135.911H220.156C220.156 135.208 220.247 134.575 220.429 134.013C220.61 133.444 220.865 132.961 221.193 132.562C221.521 132.158 221.911 131.851 222.362 131.64C222.819 131.423 223.329 131.314 223.892 131.314C224.337 131.314 224.744 131.379 225.113 131.508C225.482 131.637 225.799 131.842 226.062 132.123C226.332 132.404 226.537 132.776 226.678 133.239C226.824 133.702 226.897 134.268 226.897 134.936V141H224.349V134.927C224.349 134.505 224.29 134.177 224.173 133.942C224.056 133.708 223.883 133.544 223.654 133.45C223.432 133.351 223.156 133.301 222.828 133.301C222.488 133.301 222.192 133.368 221.94 133.503C221.694 133.638 221.489 133.825 221.325 134.065C221.167 134.3 221.047 134.575 220.965 134.892C220.883 135.208 220.842 135.548 220.842 135.911ZM234.843 131.49H237.137V140.684C237.137 141.551 236.943 142.286 236.557 142.89C236.176 143.499 235.643 143.959 234.957 144.27C234.271 144.586 233.475 144.744 232.566 144.744C232.168 144.744 231.746 144.691 231.301 144.586C230.861 144.48 230.439 144.316 230.035 144.094C229.637 143.871 229.303 143.59 229.033 143.25L230.149 141.756C230.442 142.096 230.782 142.359 231.169 142.547C231.556 142.74 231.983 142.837 232.452 142.837C232.909 142.837 233.296 142.752 233.612 142.582C233.929 142.418 234.172 142.175 234.342 141.853C234.512 141.536 234.597 141.152 234.597 140.701V133.688L234.843 131.49ZM228.444 136.359V136.175C228.444 135.448 228.532 134.789 228.708 134.197C228.89 133.6 229.145 133.087 229.473 132.659C229.807 132.231 230.211 131.9 230.686 131.666C231.16 131.432 231.696 131.314 232.294 131.314C232.927 131.314 233.457 131.432 233.885 131.666C234.312 131.9 234.664 132.234 234.939 132.668C235.215 133.096 235.429 133.603 235.581 134.188C235.739 134.769 235.862 135.404 235.95 136.096V136.5C235.862 137.162 235.73 137.777 235.555 138.346C235.379 138.914 235.147 139.412 234.86 139.84C234.573 140.262 234.216 140.59 233.788 140.824C233.366 141.059 232.862 141.176 232.276 141.176C231.69 141.176 231.16 141.056 230.686 140.815C230.217 140.575 229.815 140.238 229.481 139.805C229.147 139.371 228.89 138.861 228.708 138.275C228.532 137.689 228.444 137.051 228.444 136.359ZM230.976 136.175V136.359C230.976 136.752 231.014 137.118 231.09 137.458C231.166 137.798 231.283 138.1 231.441 138.363C231.605 138.621 231.808 138.823 232.048 138.97C232.294 139.11 232.584 139.181 232.918 139.181C233.381 139.181 233.759 139.084 234.052 138.891C234.345 138.691 234.564 138.419 234.711 138.073C234.857 137.728 234.942 137.329 234.966 136.878V135.727C234.954 135.357 234.904 135.026 234.816 134.733C234.729 134.435 234.605 134.18 234.447 133.969C234.289 133.758 234.084 133.594 233.832 133.477C233.58 133.359 233.281 133.301 232.936 133.301C232.602 133.301 232.312 133.377 232.065 133.529C231.825 133.676 231.623 133.878 231.459 134.136C231.301 134.394 231.181 134.698 231.099 135.05C231.017 135.396 230.976 135.771 230.976 136.175ZM244.247 138.372C244.247 138.19 244.194 138.026 244.089 137.88C243.983 137.733 243.787 137.599 243.5 137.476C243.219 137.347 242.812 137.229 242.278 137.124C241.798 137.019 241.35 136.887 240.934 136.729C240.523 136.564 240.166 136.368 239.861 136.14C239.562 135.911 239.328 135.642 239.158 135.331C238.988 135.015 238.903 134.654 238.903 134.25C238.903 133.852 238.988 133.477 239.158 133.125C239.334 132.773 239.583 132.463 239.905 132.193C240.233 131.918 240.632 131.704 241.101 131.552C241.575 131.394 242.108 131.314 242.7 131.314C243.526 131.314 244.235 131.446 244.827 131.71C245.425 131.974 245.882 132.337 246.198 132.8C246.521 133.257 246.682 133.778 246.682 134.364H244.15C244.15 134.118 244.098 133.898 243.992 133.705C243.893 133.506 243.734 133.351 243.518 133.239C243.307 133.122 243.031 133.063 242.691 133.063C242.41 133.063 242.167 133.113 241.962 133.213C241.757 133.307 241.599 133.436 241.487 133.6C241.382 133.758 241.329 133.934 241.329 134.127C241.329 134.273 241.358 134.405 241.417 134.522C241.481 134.634 241.584 134.736 241.725 134.83C241.865 134.924 242.047 135.012 242.27 135.094C242.498 135.17 242.779 135.24 243.113 135.305C243.799 135.445 244.411 135.63 244.95 135.858C245.489 136.081 245.917 136.386 246.233 136.772C246.55 137.153 246.708 137.654 246.708 138.275C246.708 138.697 246.614 139.084 246.427 139.436C246.239 139.787 245.97 140.095 245.618 140.358C245.267 140.616 244.845 140.818 244.353 140.965C243.866 141.105 243.318 141.176 242.709 141.176C241.824 141.176 241.074 141.018 240.459 140.701C239.85 140.385 239.387 139.983 239.07 139.497C238.76 139.005 238.604 138.501 238.604 137.985H241.004C241.016 138.331 241.104 138.609 241.268 138.82C241.438 139.031 241.651 139.184 241.909 139.277C242.173 139.371 242.457 139.418 242.762 139.418C243.09 139.418 243.362 139.374 243.579 139.286C243.796 139.192 243.96 139.069 244.071 138.917C244.188 138.759 244.247 138.577 244.247 138.372ZM253.484 138.855V134.619C253.484 134.314 253.435 134.054 253.335 133.837C253.235 133.614 253.08 133.441 252.869 133.318C252.664 133.195 252.397 133.134 252.069 133.134C251.788 133.134 251.545 133.184 251.34 133.283C251.135 133.377 250.977 133.515 250.865 133.696C250.754 133.872 250.698 134.08 250.698 134.32H248.167C248.167 133.916 248.261 133.532 248.448 133.169C248.636 132.806 248.908 132.486 249.266 132.211C249.623 131.93 250.048 131.71 250.54 131.552C251.038 131.394 251.595 131.314 252.21 131.314C252.948 131.314 253.604 131.438 254.179 131.684C254.753 131.93 255.204 132.299 255.532 132.791C255.866 133.283 256.033 133.898 256.033 134.637V138.706C256.033 139.228 256.065 139.655 256.13 139.989C256.194 140.317 256.288 140.604 256.411 140.851V141H253.854C253.73 140.742 253.637 140.42 253.572 140.033C253.514 139.641 253.484 139.248 253.484 138.855ZM253.818 135.208L253.836 136.641H252.421C252.087 136.641 251.797 136.679 251.551 136.755C251.305 136.831 251.103 136.939 250.944 137.08C250.786 137.215 250.669 137.373 250.593 137.555C250.522 137.736 250.487 137.936 250.487 138.152C250.487 138.369 250.537 138.565 250.637 138.741C250.736 138.911 250.88 139.046 251.067 139.146C251.255 139.239 251.475 139.286 251.727 139.286C252.107 139.286 252.438 139.21 252.72 139.058C253.001 138.905 253.218 138.718 253.37 138.495C253.528 138.272 253.61 138.062 253.616 137.862L254.284 138.935C254.19 139.175 254.062 139.424 253.897 139.682C253.739 139.939 253.537 140.183 253.291 140.411C253.045 140.634 252.749 140.818 252.403 140.965C252.058 141.105 251.647 141.176 251.173 141.176C250.569 141.176 250.021 141.056 249.529 140.815C249.043 140.569 248.656 140.232 248.369 139.805C248.088 139.371 247.947 138.879 247.947 138.328C247.947 137.83 248.041 137.388 248.229 137.001C248.416 136.614 248.691 136.289 249.055 136.025C249.424 135.756 249.884 135.554 250.435 135.419C250.985 135.278 251.624 135.208 252.351 135.208H253.818Z" fill="#0F4C75"/>
<path d="M194.824 157.035V158H188.774V157.156L191.802 153.785C192.175 153.37 192.462 153.019 192.666 152.731C192.873 152.439 193.017 152.179 193.097 151.951C193.182 151.718 193.224 151.481 193.224 151.24C193.224 150.935 193.161 150.66 193.034 150.415C192.911 150.165 192.729 149.966 192.488 149.818C192.247 149.67 191.955 149.596 191.612 149.596C191.201 149.596 190.859 149.676 190.583 149.837C190.313 149.993 190.11 150.214 189.974 150.497C189.839 150.781 189.771 151.106 189.771 151.475H188.597C188.597 150.954 188.711 150.478 188.939 150.046C189.168 149.615 189.507 149.272 189.955 149.018C190.404 148.76 190.956 148.631 191.612 148.631C192.196 148.631 192.695 148.735 193.11 148.942C193.525 149.145 193.842 149.433 194.062 149.805C194.286 150.173 194.398 150.605 194.398 151.1C194.398 151.371 194.352 151.646 194.259 151.925C194.17 152.2 194.045 152.475 193.884 152.75C193.728 153.026 193.544 153.296 193.332 153.563C193.125 153.83 192.903 154.092 192.666 154.35L190.19 157.035H194.824ZM201.882 152.643V154.052C201.882 154.809 201.815 155.448 201.679 155.969C201.544 156.489 201.349 156.908 201.095 157.226C200.841 157.543 200.535 157.774 200.175 157.917C199.819 158.057 199.417 158.127 198.969 158.127C198.613 158.127 198.285 158.083 197.985 157.994C197.684 157.905 197.414 157.763 197.172 157.568C196.935 157.369 196.732 157.111 196.563 156.794C196.394 156.477 196.265 156.091 196.176 155.639C196.087 155.186 196.042 154.657 196.042 154.052V152.643C196.042 151.885 196.11 151.25 196.246 150.738C196.385 150.226 196.582 149.816 196.836 149.507C197.09 149.194 197.395 148.969 197.75 148.834C198.11 148.699 198.512 148.631 198.956 148.631C199.316 148.631 199.646 148.675 199.946 148.764C200.251 148.849 200.522 148.986 200.759 149.177C200.996 149.363 201.197 149.613 201.362 149.926C201.531 150.235 201.66 150.613 201.749 151.062C201.838 151.511 201.882 152.037 201.882 152.643ZM200.702 154.242V152.446C200.702 152.031 200.676 151.667 200.625 151.354C200.579 151.037 200.509 150.766 200.416 150.542C200.323 150.317 200.204 150.135 200.061 149.996C199.921 149.856 199.758 149.754 199.572 149.691C199.39 149.623 199.185 149.589 198.956 149.589C198.677 149.589 198.429 149.642 198.213 149.748C197.998 149.85 197.816 150.013 197.667 150.237C197.524 150.461 197.414 150.755 197.337 151.119C197.261 151.483 197.223 151.925 197.223 152.446V154.242C197.223 154.657 197.246 155.023 197.293 155.34C197.344 155.658 197.418 155.933 197.515 156.166C197.612 156.394 197.731 156.582 197.871 156.73C198.01 156.879 198.171 156.989 198.353 157.061C198.539 157.128 198.744 157.162 198.969 157.162C199.257 157.162 199.508 157.107 199.724 156.997C199.94 156.887 200.12 156.716 200.264 156.483C200.412 156.246 200.522 155.943 200.594 155.575C200.666 155.203 200.702 154.758 200.702 154.242ZM207.252 148.707V158H206.078V150.173L203.71 151.037V149.977L207.068 148.707H207.252ZM215.212 148.745H215.314V149.742H215.212C214.59 149.742 214.07 149.843 213.651 150.046C213.232 150.245 212.9 150.514 212.654 150.853C212.409 151.187 212.231 151.563 212.121 151.982C212.015 152.401 211.962 152.827 211.962 153.258V154.617C211.962 155.027 212.011 155.391 212.108 155.708C212.206 156.022 212.339 156.286 212.508 156.502C212.678 156.718 212.868 156.881 213.08 156.991C213.295 157.101 213.52 157.156 213.752 157.156C214.023 157.156 214.264 157.105 214.476 157.003C214.688 156.898 214.865 156.752 215.009 156.565C215.157 156.375 215.27 156.151 215.346 155.893C215.422 155.634 215.46 155.351 215.46 155.042C215.46 154.767 215.426 154.502 215.358 154.249C215.291 153.99 215.187 153.762 215.047 153.563C214.908 153.36 214.732 153.201 214.521 153.087C214.313 152.968 214.066 152.909 213.778 152.909C213.452 152.909 213.147 152.99 212.864 153.15C212.584 153.307 212.354 153.514 212.172 153.772C211.994 154.026 211.893 154.304 211.867 154.604L211.245 154.598C211.304 154.124 211.414 153.72 211.575 153.385C211.74 153.047 211.943 152.772 212.185 152.56C212.43 152.344 212.703 152.188 213.003 152.09C213.308 151.989 213.63 151.938 213.968 151.938C214.43 151.938 214.827 152.025 215.162 152.198C215.496 152.372 215.771 152.604 215.987 152.896C216.203 153.184 216.361 153.51 216.463 153.874C216.569 154.234 216.622 154.604 216.622 154.985C216.622 155.421 216.56 155.829 216.438 156.21C216.315 156.591 216.131 156.925 215.885 157.213C215.644 157.501 215.346 157.725 214.99 157.886C214.635 158.047 214.222 158.127 213.752 158.127C213.253 158.127 212.817 158.025 212.445 157.822C212.072 157.615 211.764 157.34 211.518 156.997C211.273 156.654 211.089 156.273 210.966 155.854C210.843 155.436 210.782 155.01 210.782 154.579V154.026C210.782 153.375 210.847 152.736 210.979 152.109C211.11 151.483 211.336 150.916 211.658 150.408C211.984 149.9 212.434 149.496 213.01 149.196C213.585 148.895 214.319 148.745 215.212 148.745ZM223.813 153.588V154.553H220.716V153.588H223.813ZM234.116 157.035V158H228.066V157.156L231.094 153.785C231.467 153.37 231.754 153.019 231.958 152.731C232.165 152.439 232.309 152.179 232.389 151.951C232.474 151.718 232.516 151.481 232.516 151.24C232.516 150.935 232.453 150.66 232.326 150.415C232.203 150.165 232.021 149.966 231.78 149.818C231.539 149.67 231.247 149.596 230.904 149.596C230.493 149.596 230.151 149.676 229.875 149.837C229.605 149.993 229.402 150.214 229.266 150.497C229.131 150.781 229.063 151.106 229.063 151.475H227.889C227.889 150.954 228.003 150.478 228.231 150.046C228.46 149.615 228.799 149.272 229.247 149.018C229.696 148.76 230.248 148.631 230.904 148.631C231.488 148.631 231.987 148.735 232.402 148.942C232.817 149.145 233.134 149.433 233.354 149.805C233.578 150.173 233.69 150.605 233.69 151.1C233.69 151.371 233.644 151.646 233.551 151.925C233.462 152.2 233.337 152.475 233.176 152.75C233.02 153.026 232.836 153.296 232.624 153.563C232.417 153.83 232.194 154.092 231.958 154.35L229.482 157.035H234.116ZM241.174 152.643V154.052C241.174 154.809 241.107 155.448 240.971 155.969C240.836 156.489 240.641 156.908 240.387 157.226C240.133 157.543 239.826 157.774 239.467 157.917C239.111 158.057 238.709 158.127 238.261 158.127C237.905 158.127 237.577 158.083 237.277 157.994C236.976 157.905 236.706 157.763 236.464 157.568C236.227 157.369 236.024 157.111 235.855 156.794C235.686 156.477 235.557 156.091 235.468 155.639C235.379 155.186 235.334 154.657 235.334 154.052V152.643C235.334 151.885 235.402 151.25 235.538 150.738C235.677 150.226 235.874 149.816 236.128 149.507C236.382 149.194 236.687 148.969 237.042 148.834C237.402 148.699 237.804 148.631 238.248 148.631C238.608 148.631 238.938 148.675 239.238 148.764C239.543 148.849 239.814 148.986 240.051 149.177C240.288 149.363 240.489 149.613 240.654 149.926C240.823 150.235 240.952 150.613 241.041 151.062C241.13 151.511 241.174 152.037 241.174 152.643ZM239.994 154.242V152.446C239.994 152.031 239.968 151.667 239.917 151.354C239.871 151.037 239.801 150.766 239.708 150.542C239.615 150.317 239.496 150.135 239.353 149.996C239.213 149.856 239.05 149.754 238.864 149.691C238.682 149.623 238.477 149.589 238.248 149.589C237.969 149.589 237.721 149.642 237.505 149.748C237.29 149.85 237.108 150.013 236.959 150.237C236.816 150.461 236.706 150.755 236.629 151.119C236.553 151.483 236.515 151.925 236.515 152.446V154.242C236.515 154.657 236.538 155.023 236.585 155.34C236.636 155.658 236.71 155.933 236.807 156.166C236.904 156.394 237.023 156.582 237.163 156.73C237.302 156.879 237.463 156.989 237.645 157.061C237.831 157.128 238.036 157.162 238.261 157.162C238.549 157.162 238.8 157.107 239.016 156.997C239.232 156.887 239.412 156.716 239.556 156.483C239.704 156.246 239.814 155.943 239.886 155.575C239.958 155.203 239.994 154.758 239.994 154.242ZM246.544 148.707V158H245.37V150.173L243.002 151.037V149.977L246.36 148.707H246.544ZM251.166 157.016H251.286C251.963 157.016 252.513 156.921 252.937 156.73C253.36 156.54 253.686 156.284 253.914 155.962C254.143 155.641 254.299 155.279 254.384 154.877C254.468 154.471 254.511 154.054 254.511 153.626V152.211C254.511 151.792 254.462 151.42 254.365 151.094C254.272 150.768 254.14 150.495 253.971 150.275C253.806 150.055 253.618 149.888 253.406 149.773C253.195 149.659 252.97 149.602 252.733 149.602C252.463 149.602 252.219 149.657 252.003 149.767C251.792 149.873 251.612 150.023 251.464 150.218C251.32 150.412 251.21 150.641 251.134 150.903C251.058 151.166 251.02 151.451 251.02 151.76C251.02 152.035 251.053 152.302 251.121 152.56C251.189 152.818 251.292 153.051 251.432 153.258C251.572 153.466 251.745 153.631 251.953 153.753C252.164 153.872 252.412 153.931 252.695 153.931C252.958 153.931 253.203 153.88 253.432 153.779C253.664 153.673 253.87 153.531 254.047 153.354C254.229 153.172 254.373 152.966 254.479 152.738C254.589 152.509 254.653 152.27 254.669 152.021H255.228C255.228 152.372 255.158 152.719 255.019 153.062C254.883 153.4 254.693 153.709 254.447 153.988C254.202 154.268 253.914 154.492 253.584 154.661C253.254 154.826 252.894 154.909 252.505 154.909C252.048 154.909 251.652 154.82 251.318 154.642C250.984 154.464 250.708 154.227 250.493 153.931C250.281 153.635 250.122 153.305 250.017 152.941C249.915 152.573 249.864 152.2 249.864 151.824C249.864 151.384 249.926 150.971 250.048 150.586C250.171 150.201 250.353 149.862 250.594 149.57C250.835 149.274 251.134 149.043 251.489 148.878C251.849 148.713 252.264 148.631 252.733 148.631C253.262 148.631 253.713 148.737 254.085 148.948C254.458 149.16 254.76 149.443 254.993 149.799C255.23 150.154 255.404 150.554 255.514 150.999C255.624 151.443 255.679 151.9 255.679 152.37V152.795C255.679 153.273 255.647 153.76 255.583 154.255C255.524 154.746 255.408 155.215 255.234 155.664C255.065 156.113 254.818 156.515 254.492 156.87C254.166 157.221 253.741 157.501 253.216 157.708C252.695 157.911 252.052 158.013 251.286 158.013H251.166V157.016Z" fill="#0F4C75"/>
</svg>
