<svg width="329" height="229" viewBox="0 0 329 229" fill="none" xmlns="http://www.w3.org/2000/svg">
<path d="M164 30V208" stroke="#0F4C75" stroke-width="5"/>
<path d="M164 218V222" stroke="#86C7F2" stroke-width="5"/>
<path d="M164 225V229" stroke="#BBE1FA" stroke-width="5"/>
<path d="M164 211V215" stroke="#54A8E0" stroke-width="5"/>
<path d="M169 30C169 32.7614 166.761 35 164 35C161.239 35 159 32.7614 159 30C159 27.2386 161.239 25 164 25C166.761 25 169 27.2386 169 30Z" fill="#892CDC"/>
<rect x="182" width="147" height="60" rx="13" fill="#892CDC"/>
<path d="M198.219 13.4688V19.0879C198.219 20.0215 197.926 20.7598 197.34 21.3027C196.758 21.8457 195.961 22.1172 194.949 22.1172C193.953 22.1172 193.162 21.8535 192.576 21.3262C191.99 20.7988 191.691 20.0742 191.68 19.1523V13.4688H193.438V19.0996C193.438 19.6582 193.57 20.0664 193.836 20.3242C194.105 20.5781 194.477 20.7051 194.949 20.7051C195.938 20.7051 196.439 20.1855 196.455 19.1465V13.4688H198.219ZM201.107 15.6602L201.16 16.3926C201.613 15.8262 202.221 15.543 202.982 15.543C203.654 15.543 204.154 15.7402 204.482 16.1348C204.811 16.5293 204.979 17.1191 204.986 17.9043V22H203.293V17.9453C203.293 17.5859 203.215 17.3262 203.059 17.166C202.902 17.002 202.643 16.9199 202.279 16.9199C201.803 16.9199 201.445 17.123 201.207 17.5293V22H199.514V15.6602H201.107ZM208.062 22H206.363V15.6602H208.062V22ZM206.264 14.0195C206.264 13.7656 206.348 13.5566 206.516 13.3926C206.688 13.2285 206.92 13.1465 207.213 13.1465C207.502 13.1465 207.732 13.2285 207.904 13.3926C208.076 13.5566 208.162 13.7656 208.162 14.0195C208.162 14.2773 208.074 14.4883 207.898 14.6523C207.727 14.8164 207.498 14.8984 207.213 14.8984C206.928 14.8984 206.697 14.8164 206.521 14.6523C206.35 14.4883 206.264 14.2773 206.264 14.0195ZM211.836 19.9316L213.014 15.6602H214.783L212.645 22H211.027L208.889 15.6602H210.658L211.836 19.9316ZM218.369 22.1172C217.439 22.1172 216.682 21.832 216.096 21.2617C215.514 20.6914 215.223 19.9316 215.223 18.9824V18.8184C215.223 18.1816 215.346 17.6133 215.592 17.1133C215.838 16.6094 216.186 16.2227 216.635 15.9531C217.088 15.6797 217.604 15.543 218.182 15.543C219.049 15.543 219.73 15.8164 220.227 16.3633C220.727 16.9102 220.977 17.6855 220.977 18.6895V19.3809H216.939C216.994 19.7949 217.158 20.127 217.432 20.377C217.709 20.627 218.059 20.752 218.48 20.752C219.133 20.752 219.643 20.5156 220.01 20.043L220.842 20.9746C220.588 21.334 220.244 21.6152 219.811 21.8184C219.377 22.0176 218.896 22.1172 218.369 22.1172ZM218.176 16.9141C217.84 16.9141 217.566 17.0273 217.355 17.2539C217.148 17.4805 217.016 17.8047 216.957 18.2266H219.312V18.0918C219.305 17.7168 219.203 17.4277 219.008 17.2246C218.812 17.0176 218.535 16.9141 218.176 16.9141ZM225.506 17.248C225.275 17.2168 225.072 17.2012 224.896 17.2012C224.256 17.2012 223.836 17.418 223.637 17.8516V22H221.943V15.6602H223.543L223.59 16.416C223.93 15.834 224.4 15.543 225.002 15.543C225.189 15.543 225.365 15.5684 225.529 15.6191L225.506 17.248ZM229.76 20.248C229.76 20.041 229.656 19.8789 229.449 19.7617C229.246 19.6406 228.918 19.5332 228.465 19.4395C226.957 19.123 226.203 18.4824 226.203 17.5176C226.203 16.9551 226.436 16.4863 226.9 16.1113C227.369 15.7324 227.98 15.543 228.734 15.543C229.539 15.543 230.182 15.7324 230.662 16.1113C231.146 16.4902 231.389 16.9824 231.389 17.5879H229.695C229.695 17.3457 229.617 17.1465 229.461 16.9902C229.305 16.8301 229.061 16.75 228.729 16.75C228.443 16.75 228.223 16.8145 228.066 16.9434C227.91 17.0723 227.832 17.2363 227.832 17.4355C227.832 17.623 227.92 17.7754 228.096 17.8926C228.275 18.0059 228.576 18.1055 228.998 18.1914C229.42 18.2734 229.775 18.3672 230.064 18.4727C230.959 18.8008 231.406 19.3691 231.406 20.1777C231.406 20.7559 231.158 21.2246 230.662 21.584C230.166 21.9395 229.525 22.1172 228.74 22.1172C228.209 22.1172 227.736 22.0234 227.322 21.8359C226.912 21.6445 226.59 21.3848 226.355 21.0566C226.121 20.7246 226.004 20.3672 226.004 19.9844H227.609C227.625 20.2852 227.736 20.5156 227.943 20.6758C228.15 20.8359 228.428 20.916 228.775 20.916C229.1 20.916 229.344 20.8555 229.508 20.7344C229.676 20.6094 229.76 20.4473 229.76 20.248ZM234.289 22H232.59V15.6602H234.289V22ZM232.49 14.0195C232.49 13.7656 232.574 13.5566 232.742 13.3926C232.914 13.2285 233.146 13.1465 233.439 13.1465C233.729 13.1465 233.959 13.2285 234.131 13.3926C234.303 13.5566 234.389 13.7656 234.389 14.0195C234.389 14.2773 234.301 14.4883 234.125 14.6523C233.953 14.8164 233.725 14.8984 233.439 14.8984C233.154 14.8984 232.924 14.8164 232.748 14.6523C232.576 14.4883 232.49 14.2773 232.49 14.0195ZM237.717 14.1016V15.6602H238.801V16.9023H237.717V20.0664C237.717 20.3008 237.762 20.4688 237.852 20.5703C237.941 20.6719 238.113 20.7227 238.367 20.7227C238.555 20.7227 238.721 20.709 238.865 20.6816V21.9648C238.533 22.0664 238.191 22.1172 237.84 22.1172C236.652 22.1172 236.047 21.5176 236.023 20.3184V16.9023H235.098V15.6602H236.023V14.1016H237.717ZM243.418 22C243.34 21.8477 243.283 21.6582 243.248 21.4316C242.838 21.8887 242.305 22.1172 241.648 22.1172C241.027 22.1172 240.512 21.9375 240.102 21.5781C239.695 21.2188 239.492 20.7656 239.492 20.2188C239.492 19.5469 239.74 19.0312 240.236 18.6719C240.736 18.3125 241.457 18.1309 242.398 18.127H243.178V17.7637C243.178 17.4707 243.102 17.2363 242.949 17.0605C242.801 16.8848 242.564 16.7969 242.24 16.7969C241.955 16.7969 241.73 16.8652 241.566 17.002C241.406 17.1387 241.326 17.3262 241.326 17.5645H239.633C239.633 17.1973 239.746 16.8574 239.973 16.5449C240.199 16.2324 240.52 15.9883 240.934 15.8125C241.348 15.6328 241.812 15.543 242.328 15.543C243.109 15.543 243.729 15.7402 244.186 16.1348C244.646 16.5254 244.877 17.0762 244.877 17.7871V20.5352C244.881 21.1367 244.965 21.5918 245.129 21.9004V22H243.418ZM242.018 20.8223C242.268 20.8223 242.498 20.7676 242.709 20.6582C242.92 20.5449 243.076 20.3945 243.178 20.207V19.1172H242.545C241.697 19.1172 241.246 19.4102 241.191 19.9961L241.186 20.0957C241.186 20.3066 241.26 20.4805 241.408 20.6172C241.557 20.7539 241.76 20.8223 242.018 20.8223ZM249.611 20.248C249.611 20.041 249.508 19.8789 249.301 19.7617C249.098 19.6406 248.77 19.5332 248.316 19.4395C246.809 19.123 246.055 18.4824 246.055 17.5176C246.055 16.9551 246.287 16.4863 246.752 16.1113C247.221 15.7324 247.832 15.543 248.586 15.543C249.391 15.543 250.033 15.7324 250.514 16.1113C250.998 16.4902 251.24 16.9824 251.24 17.5879H249.547C249.547 17.3457 249.469 17.1465 249.312 16.9902C249.156 16.8301 248.912 16.75 248.58 16.75C248.295 16.75 248.074 16.8145 247.918 16.9434C247.762 17.0723 247.684 17.2363 247.684 17.4355C247.684 17.623 247.771 17.7754 247.947 17.8926C248.127 18.0059 248.428 18.1055 248.85 18.1914C249.271 18.2734 249.627 18.3672 249.916 18.4727C250.811 18.8008 251.258 19.3691 251.258 20.1777C251.258 20.7559 251.01 21.2246 250.514 21.584C250.018 21.9395 249.377 22.1172 248.592 22.1172C248.061 22.1172 247.588 22.0234 247.174 21.8359C246.764 21.6445 246.441 21.3848 246.207 21.0566C245.973 20.7246 245.855 20.3672 245.855 19.9844H247.461C247.477 20.2852 247.588 20.5156 247.795 20.6758C248.002 20.8359 248.279 20.916 248.627 20.916C248.951 20.916 249.195 20.8555 249.359 20.7344C249.527 20.6094 249.611 20.4473 249.611 20.248ZM262.203 20.9219C261.887 21.3008 261.439 21.5957 260.861 21.8066C260.283 22.0137 259.643 22.1172 258.939 22.1172C258.201 22.1172 257.553 21.957 256.994 21.6367C256.439 21.3125 256.01 20.8438 255.705 20.2305C255.404 19.6172 255.25 18.8965 255.242 18.0684V17.4883C255.242 16.6367 255.385 15.9004 255.67 15.2793C255.959 14.6543 256.373 14.1777 256.912 13.8496C257.455 13.5176 258.09 13.3516 258.816 13.3516C259.828 13.3516 260.619 13.5938 261.189 14.0781C261.76 14.5586 262.098 15.2598 262.203 16.1816H260.492C260.414 15.6934 260.24 15.3359 259.971 15.1094C259.705 14.8828 259.338 14.7695 258.869 14.7695C258.271 14.7695 257.816 14.9941 257.504 15.4434C257.191 15.8926 257.033 16.5605 257.029 17.4473V17.9922C257.029 18.8867 257.199 19.5625 257.539 20.0195C257.879 20.4766 258.377 20.7051 259.033 20.7051C259.693 20.7051 260.164 20.5645 260.445 20.2832V18.8125H258.846V17.5176H262.203V20.9219ZM267.318 21.3555C266.9 21.8633 266.322 22.1172 265.584 22.1172C264.904 22.1172 264.385 21.9219 264.025 21.5312C263.67 21.1406 263.488 20.5684 263.48 19.8145V15.6602H265.174V19.7559C265.174 20.416 265.475 20.7461 266.076 20.7461C266.65 20.7461 267.045 20.5469 267.26 20.1484V15.6602H268.959V22H267.365L267.318 21.3555ZM271.795 15.6602L271.848 16.3926C272.301 15.8262 272.908 15.543 273.67 15.543C274.342 15.543 274.842 15.7402 275.17 16.1348C275.498 16.5293 275.666 17.1191 275.674 17.9043V22H273.98V17.9453C273.98 17.5859 273.902 17.3262 273.746 17.166C273.59 17.002 273.33 16.9199 272.967 16.9199C272.49 16.9199 272.133 17.123 271.895 17.5293V22H270.201V15.6602H271.795ZM280.637 22C280.559 21.8477 280.502 21.6582 280.467 21.4316C280.057 21.8887 279.523 22.1172 278.867 22.1172C278.246 22.1172 277.73 21.9375 277.32 21.5781C276.914 21.2188 276.711 20.7656 276.711 20.2188C276.711 19.5469 276.959 19.0312 277.455 18.6719C277.955 18.3125 278.676 18.1309 279.617 18.127H280.396V17.7637C280.396 17.4707 280.32 17.2363 280.168 17.0605C280.02 16.8848 279.783 16.7969 279.459 16.7969C279.174 16.7969 278.949 16.8652 278.785 17.002C278.625 17.1387 278.545 17.3262 278.545 17.5645H276.852C276.852 17.1973 276.965 16.8574 277.191 16.5449C277.418 16.2324 277.738 15.9883 278.152 15.8125C278.566 15.6328 279.031 15.543 279.547 15.543C280.328 15.543 280.947 15.7402 281.404 16.1348C281.865 16.5254 282.096 17.0762 282.096 17.7871V20.5352C282.1 21.1367 282.184 21.5918 282.348 21.9004V22H280.637ZM279.236 20.8223C279.486 20.8223 279.717 20.7676 279.928 20.6582C280.139 20.5449 280.295 20.3945 280.396 20.207V19.1172H279.764C278.916 19.1172 278.465 19.4102 278.41 19.9961L278.404 20.0957C278.404 20.3066 278.479 20.4805 278.627 20.6172C278.775 20.7539 278.979 20.8223 279.236 20.8223ZM283.133 18.7832C283.133 17.7949 283.354 17.0078 283.795 16.4219C284.24 15.8359 284.848 15.543 285.617 15.543C286.234 15.543 286.744 15.7734 287.146 16.2344V13H288.846V22H287.316L287.234 21.3262C286.812 21.8535 286.27 22.1172 285.605 22.1172C284.859 22.1172 284.26 21.8242 283.807 21.2383C283.357 20.6484 283.133 19.8301 283.133 18.7832ZM284.826 18.9062C284.826 19.5 284.93 19.9551 285.137 20.2715C285.344 20.5879 285.645 20.7461 286.039 20.7461C286.562 20.7461 286.932 20.5254 287.146 20.084V17.582C286.936 17.1406 286.57 16.9199 286.051 16.9199C285.234 16.9199 284.826 17.582 284.826 18.9062ZM293.832 22C293.754 21.8477 293.697 21.6582 293.662 21.4316C293.252 21.8887 292.719 22.1172 292.062 22.1172C291.441 22.1172 290.926 21.9375 290.516 21.5781C290.109 21.2188 289.906 20.7656 289.906 20.2188C289.906 19.5469 290.154 19.0312 290.65 18.6719C291.15 18.3125 291.871 18.1309 292.812 18.127H293.592V17.7637C293.592 17.4707 293.516 17.2363 293.363 17.0605C293.215 16.8848 292.979 16.7969 292.654 16.7969C292.369 16.7969 292.145 16.8652 291.98 17.002C291.82 17.1387 291.74 17.3262 291.74 17.5645H290.047C290.047 17.1973 290.16 16.8574 290.387 16.5449C290.613 16.2324 290.934 15.9883 291.348 15.8125C291.762 15.6328 292.227 15.543 292.742 15.543C293.523 15.543 294.143 15.7402 294.6 16.1348C295.061 16.5254 295.291 17.0762 295.291 17.7871V20.5352C295.295 21.1367 295.379 21.5918 295.543 21.9004V22H293.832ZM292.432 20.8223C292.682 20.8223 292.912 20.7676 293.123 20.6582C293.334 20.5449 293.49 20.3945 293.592 20.207V19.1172H292.959C292.111 19.1172 291.66 19.4102 291.605 19.9961L291.6 20.0957C291.6 20.3066 291.674 20.4805 291.822 20.6172C291.971 20.7539 292.174 20.8223 292.432 20.8223ZM300.154 17.248C299.924 17.2168 299.721 17.2012 299.545 17.2012C298.904 17.2012 298.484 17.418 298.285 17.8516V22H296.592V15.6602H298.191L298.238 16.416C298.578 15.834 299.049 15.543 299.65 15.543C299.838 15.543 300.014 15.5684 300.178 15.6191L300.154 17.248ZM302.562 15.6602L302.615 16.3691C303.064 15.8184 303.672 15.543 304.438 15.543C305.254 15.543 305.814 15.8652 306.119 16.5098C306.564 15.8652 307.199 15.543 308.023 15.543C308.711 15.543 309.223 15.7441 309.559 16.1465C309.895 16.5449 310.062 17.1465 310.062 17.9512V22H308.363V17.957C308.363 17.5977 308.293 17.3359 308.152 17.1719C308.012 17.0039 307.764 16.9199 307.408 16.9199C306.9 16.9199 306.549 17.1621 306.354 17.6465L306.359 22H304.666V17.9629C304.666 17.5957 304.594 17.3301 304.449 17.166C304.305 17.002 304.059 16.9199 303.711 16.9199C303.23 16.9199 302.883 17.1191 302.668 17.5176V22H300.975V15.6602H302.562ZM315.043 22C314.965 21.8477 314.908 21.6582 314.873 21.4316C314.463 21.8887 313.93 22.1172 313.273 22.1172C312.652 22.1172 312.137 21.9375 311.727 21.5781C311.32 21.2188 311.117 20.7656 311.117 20.2188C311.117 19.5469 311.365 19.0312 311.861 18.6719C312.361 18.3125 313.082 18.1309 314.023 18.127H314.803V17.7637C314.803 17.4707 314.727 17.2363 314.574 17.0605C314.426 16.8848 314.189 16.7969 313.865 16.7969C313.58 16.7969 313.355 16.8652 313.191 17.002C313.031 17.1387 312.951 17.3262 312.951 17.5645H311.258C311.258 17.1973 311.371 16.8574 311.598 16.5449C311.824 16.2324 312.145 15.9883 312.559 15.8125C312.973 15.6328 313.438 15.543 313.953 15.543C314.734 15.543 315.354 15.7402 315.811 16.1348C316.271 16.5254 316.502 17.0762 316.502 17.7871V20.5352C316.506 21.1367 316.59 21.5918 316.754 21.9004V22H315.043ZM313.643 20.8223C313.893 20.8223 314.123 20.7676 314.334 20.6582C314.545 20.5449 314.701 20.3945 314.803 20.207V19.1172H314.17C313.322 19.1172 312.871 19.4102 312.816 19.9961L312.811 20.0957C312.811 20.3066 312.885 20.4805 313.033 20.6172C313.182 20.7539 313.385 20.8223 313.643 20.8223Z" fill="#ECC8FF"/>
<path d="M196.249 44H191.591V43.3506L194.052 40.6162C194.416 40.2028 194.667 39.8675 194.804 39.6104C194.944 39.3499 195.014 39.0814 195.014 38.8047C195.014 38.4336 194.901 38.1292 194.677 37.8916C194.452 37.654 194.153 37.5352 193.778 37.5352C193.329 37.5352 192.979 37.6637 192.729 37.9209C192.481 38.1748 192.357 38.5296 192.357 38.9854H191.454C191.454 38.3311 191.664 37.8021 192.084 37.3984C192.507 36.9948 193.072 36.793 193.778 36.793C194.439 36.793 194.962 36.9671 195.346 37.3154C195.73 37.6605 195.922 38.1211 195.922 38.6973C195.922 39.3971 195.476 40.2305 194.584 41.1973L192.68 43.2627H196.249V44ZM201.664 40.9678C201.664 42.0257 201.483 42.8118 201.122 43.3262C200.761 43.8405 200.196 44.0977 199.428 44.0977C198.669 44.0977 198.108 43.847 197.743 43.3457C197.379 42.8411 197.19 42.0892 197.177 41.0898V39.8838C197.177 38.8389 197.357 38.0625 197.719 37.5547C198.08 37.0469 198.646 36.793 199.418 36.793C200.183 36.793 200.746 37.0387 201.107 37.5303C201.469 38.0186 201.654 38.7738 201.664 39.7959V40.9678ZM200.761 39.7324C200.761 38.9674 200.653 38.4108 200.438 38.0625C200.224 37.7109 199.883 37.5352 199.418 37.5352C198.956 37.5352 198.619 37.7093 198.407 38.0576C198.196 38.4059 198.087 38.9414 198.08 39.6641V41.1094C198.08 41.8776 198.191 42.4456 198.412 42.8135C198.637 43.1781 198.975 43.3604 199.428 43.3604C199.874 43.3604 200.204 43.1878 200.419 42.8428C200.637 42.4977 200.751 41.9541 200.761 41.2119V39.7324ZM205.79 44H204.882V37.9795L203.061 38.6484V37.8281L205.648 36.8564H205.79V44ZM211.898 40.875C211.71 41.0996 211.483 41.2803 211.22 41.417C210.959 41.5537 210.673 41.6221 210.36 41.6221C209.95 41.6221 209.592 41.5212 209.286 41.3193C208.983 41.1175 208.749 40.8343 208.583 40.4697C208.417 40.1019 208.334 39.6966 208.334 39.2539C208.334 38.7786 208.424 38.3506 208.603 37.9697C208.785 37.5889 209.042 37.2975 209.374 37.0957C209.706 36.8939 210.093 36.793 210.536 36.793C211.239 36.793 211.793 37.0566 212.196 37.584C212.603 38.1081 212.807 38.8242 212.807 39.7324V39.9961C212.807 41.3796 212.533 42.3903 211.986 43.0283C211.439 43.6631 210.614 43.9886 209.511 44.0049H209.335V43.2432H209.525C210.271 43.2301 210.844 43.0365 211.244 42.6621C211.645 42.2845 211.863 41.6888 211.898 40.875ZM210.507 40.875C210.81 40.875 211.088 40.7822 211.342 40.5967C211.599 40.4111 211.786 40.1816 211.903 39.9082V39.5469C211.903 38.9544 211.775 38.4727 211.518 38.1016C211.26 37.7305 210.935 37.5449 210.541 37.5449C210.144 37.5449 209.825 37.6979 209.584 38.0039C209.343 38.3066 209.223 38.707 209.223 39.2051C209.223 39.6901 209.338 40.0905 209.569 40.4062C209.804 40.7188 210.116 40.875 210.507 40.875ZM218.505 41.3486H216.122V40.6113H218.505V41.3486ZM226.435 44H221.776V43.3506L224.237 40.6162C224.602 40.2028 224.853 39.8675 224.989 39.6104C225.129 39.3499 225.199 39.0814 225.199 38.8047C225.199 38.4336 225.087 38.1292 224.862 37.8916C224.638 37.654 224.338 37.5352 223.964 37.5352C223.515 37.5352 223.165 37.6637 222.914 37.9209C222.667 38.1748 222.543 38.5296 222.543 38.9854H221.64C221.64 38.3311 221.85 37.8021 222.27 37.3984C222.693 36.9948 223.257 36.793 223.964 36.793C224.625 36.793 225.147 36.9671 225.531 37.3154C225.915 37.6605 226.107 38.1211 226.107 38.6973C226.107 39.3971 225.661 40.2305 224.77 41.1973L222.865 43.2627H226.435V44ZM231.85 40.9678C231.85 42.0257 231.669 42.8118 231.308 43.3262C230.946 43.8405 230.382 44.0977 229.613 44.0977C228.855 44.0977 228.293 43.847 227.929 43.3457C227.564 42.8411 227.375 42.0892 227.362 41.0898V39.8838C227.362 38.8389 227.543 38.0625 227.904 37.5547C228.266 37.0469 228.832 36.793 229.604 36.793C230.368 36.793 230.932 37.0387 231.293 37.5303C231.654 38.0186 231.84 38.7738 231.85 39.7959V40.9678ZM230.946 39.7324C230.946 38.9674 230.839 38.4108 230.624 38.0625C230.409 37.7109 230.069 37.5352 229.604 37.5352C229.141 37.5352 228.804 37.7093 228.593 38.0576C228.381 38.4059 228.272 38.9414 228.266 39.6641V41.1094C228.266 41.8776 228.376 42.4456 228.598 42.8135C228.822 43.1781 229.161 43.3604 229.613 43.3604C230.059 43.3604 230.39 43.1878 230.604 42.8428C230.823 42.4977 230.937 41.9541 230.946 41.2119V39.7324ZM237.665 44H233.007V43.3506L235.468 40.6162C235.832 40.2028 236.083 39.8675 236.22 39.6104C236.36 39.3499 236.43 39.0814 236.43 38.8047C236.43 38.4336 236.317 38.1292 236.093 37.8916C235.868 37.654 235.569 37.5352 235.194 37.5352C234.745 37.5352 234.395 37.6637 234.145 37.9209C233.897 38.1748 233.773 38.5296 233.773 38.9854H232.87C232.87 38.3311 233.08 37.8021 233.5 37.3984C233.923 36.9948 234.488 36.793 235.194 36.793C235.855 36.793 236.378 36.9671 236.762 37.3154C237.146 37.6605 237.338 38.1211 237.338 38.6973C237.338 39.3971 236.892 40.2305 236 41.1973L234.096 43.2627H237.665V44ZM239.936 40.0059H240.614C241.041 39.9993 241.376 39.887 241.62 39.6689C241.864 39.4508 241.986 39.1562 241.986 38.7852C241.986 37.9518 241.571 37.5352 240.741 37.5352C240.351 37.5352 240.038 37.6475 239.804 37.8721C239.573 38.0934 239.457 38.388 239.457 38.7559H238.554C238.554 38.1927 238.759 37.7256 239.169 37.3545C239.582 36.9801 240.106 36.793 240.741 36.793C241.412 36.793 241.938 36.9704 242.318 37.3252C242.699 37.68 242.89 38.1732 242.89 38.8047C242.89 39.1139 242.789 39.4134 242.587 39.7031C242.388 39.9928 242.117 40.2093 241.771 40.3525C242.162 40.4762 242.463 40.6813 242.675 40.9678C242.89 41.2542 242.997 41.6042 242.997 42.0176C242.997 42.6556 242.789 43.1618 242.372 43.5361C241.955 43.9105 241.413 44.0977 240.746 44.0977C240.079 44.0977 239.535 43.917 239.115 43.5557C238.699 43.1943 238.49 42.7174 238.49 42.125H239.398C239.398 42.4993 239.521 42.7988 239.765 43.0234C240.009 43.248 240.336 43.3604 240.746 43.3604C241.182 43.3604 241.516 43.2464 241.747 43.0186C241.978 42.7907 242.094 42.4635 242.094 42.0371C242.094 41.6237 241.967 41.3063 241.713 41.085C241.459 40.8636 241.093 40.7497 240.614 40.7432H239.936V40.0059Z" fill="#ECC8FF"/>
<path d="M169 178C169 180.761 166.761 183 164 183C161.239 183 159 180.761 159 178C159 175.239 161.239 173 164 173C166.761 173 169 175.239 169 178Z" fill="#3282B8"/>
<rect x="181" y="148" width="147" height="60" rx="13" fill="#3282B8"/>
<path d="M195.186 167.762C195.186 167.43 195.068 167.176 194.834 167C194.6 166.82 194.178 166.633 193.568 166.438C192.959 166.238 192.477 166.043 192.121 165.852C191.152 165.328 190.668 164.623 190.668 163.736C190.668 163.275 190.797 162.865 191.055 162.506C191.316 162.143 191.689 161.859 192.174 161.656C192.662 161.453 193.209 161.352 193.814 161.352C194.424 161.352 194.967 161.463 195.443 161.686C195.92 161.904 196.289 162.215 196.551 162.617C196.816 163.02 196.949 163.477 196.949 163.988H195.191C195.191 163.598 195.068 163.295 194.822 163.08C194.576 162.861 194.23 162.752 193.785 162.752C193.355 162.752 193.021 162.844 192.783 163.027C192.545 163.207 192.426 163.445 192.426 163.742C192.426 164.02 192.564 164.252 192.842 164.439C193.123 164.627 193.535 164.803 194.078 164.967C195.078 165.268 195.807 165.641 196.264 166.086C196.721 166.531 196.949 167.086 196.949 167.75C196.949 168.488 196.67 169.068 196.111 169.49C195.553 169.908 194.801 170.117 193.855 170.117C193.199 170.117 192.602 169.998 192.062 169.76C191.523 169.518 191.111 169.188 190.826 168.77C190.545 168.352 190.404 167.867 190.404 167.316H192.168C192.168 168.258 192.73 168.729 193.855 168.729C194.273 168.729 194.6 168.645 194.834 168.477C195.068 168.305 195.186 168.066 195.186 167.762ZM200.441 161.469L202.633 167.656L204.812 161.469H207.121V170H205.357V167.668L205.533 163.643L203.23 170H202.023L199.727 163.648L199.902 167.668V170H198.145V161.469H200.441ZM210.414 166.994V170H208.656V161.469H211.984C212.625 161.469 213.188 161.586 213.672 161.82C214.16 162.055 214.535 162.389 214.797 162.822C215.059 163.252 215.189 163.742 215.189 164.293C215.189 165.129 214.902 165.789 214.328 166.273C213.758 166.754 212.967 166.994 211.955 166.994H210.414ZM210.414 165.57H211.984C212.449 165.57 212.803 165.461 213.045 165.242C213.291 165.023 213.414 164.711 213.414 164.305C213.414 163.887 213.291 163.549 213.045 163.291C212.799 163.033 212.459 162.9 212.025 162.893H210.414V165.57ZM226.088 167.158C226.021 168.076 225.682 168.799 225.068 169.326C224.459 169.854 223.654 170.117 222.654 170.117C221.561 170.117 220.699 169.75 220.07 169.016C219.445 168.277 219.133 167.266 219.133 165.98V165.459C219.133 164.639 219.277 163.916 219.566 163.291C219.855 162.666 220.268 162.188 220.803 161.855C221.342 161.52 221.967 161.352 222.678 161.352C223.662 161.352 224.455 161.615 225.057 162.143C225.658 162.67 226.006 163.41 226.1 164.363H224.342C224.299 163.812 224.145 163.414 223.879 163.168C223.617 162.918 223.217 162.793 222.678 162.793C222.092 162.793 221.652 163.004 221.359 163.426C221.07 163.844 220.922 164.494 220.914 165.377V166.021C220.914 166.943 221.053 167.617 221.33 168.043C221.611 168.469 222.053 168.682 222.654 168.682C223.197 168.682 223.602 168.559 223.867 168.312C224.137 168.062 224.291 167.678 224.33 167.158H226.088ZM228.918 170H227.219V163.66H228.918V170ZM227.119 162.02C227.119 161.766 227.203 161.557 227.371 161.393C227.543 161.229 227.775 161.146 228.068 161.146C228.357 161.146 228.588 161.229 228.76 161.393C228.932 161.557 229.018 161.766 229.018 162.02C229.018 162.277 228.93 162.488 228.754 162.652C228.582 162.816 228.354 162.898 228.068 162.898C227.783 162.898 227.553 162.816 227.377 162.652C227.205 162.488 227.119 162.277 227.119 162.02ZM232.346 162.102V163.66H233.43V164.902H232.346V168.066C232.346 168.301 232.391 168.469 232.48 168.57C232.57 168.672 232.742 168.723 232.996 168.723C233.184 168.723 233.35 168.709 233.494 168.682V169.965C233.162 170.066 232.82 170.117 232.469 170.117C231.281 170.117 230.676 169.518 230.652 168.318V164.902H229.727V163.66H230.652V162.102H232.346ZM237.936 165.248C237.705 165.217 237.502 165.201 237.326 165.201C236.686 165.201 236.266 165.418 236.066 165.852V170H234.373V163.66H235.973L236.02 164.416C236.359 163.834 236.83 163.543 237.432 163.543C237.619 163.543 237.795 163.568 237.959 163.619L237.936 165.248ZM242.254 170C242.176 169.848 242.119 169.658 242.084 169.432C241.674 169.889 241.141 170.117 240.484 170.117C239.863 170.117 239.348 169.938 238.938 169.578C238.531 169.219 238.328 168.766 238.328 168.219C238.328 167.547 238.576 167.031 239.072 166.672C239.572 166.312 240.293 166.131 241.234 166.127H242.014V165.764C242.014 165.471 241.938 165.236 241.785 165.061C241.637 164.885 241.4 164.797 241.076 164.797C240.791 164.797 240.566 164.865 240.402 165.002C240.242 165.139 240.162 165.326 240.162 165.564H238.469C238.469 165.197 238.582 164.857 238.809 164.545C239.035 164.232 239.355 163.988 239.77 163.812C240.184 163.633 240.648 163.543 241.164 163.543C241.945 163.543 242.564 163.74 243.021 164.135C243.482 164.525 243.713 165.076 243.713 165.787V168.535C243.717 169.137 243.801 169.592 243.965 169.9V170H242.254ZM240.854 168.822C241.104 168.822 241.334 168.768 241.545 168.658C241.756 168.545 241.912 168.395 242.014 168.207V167.117H241.381C240.533 167.117 240.082 167.41 240.027 167.996L240.021 168.096C240.021 168.307 240.096 168.48 240.244 168.617C240.393 168.754 240.596 168.822 240.854 168.822ZM255.051 170H253.293L249.871 164.387V170H248.113V161.469H249.871L253.299 167.094V161.469H255.051V170ZM260.271 169.355C259.854 169.863 259.275 170.117 258.537 170.117C257.857 170.117 257.338 169.922 256.979 169.531C256.623 169.141 256.441 168.568 256.434 167.814V163.66H258.127V167.756C258.127 168.416 258.428 168.746 259.029 168.746C259.604 168.746 259.998 168.547 260.213 168.148V163.66H261.912V170H260.318L260.271 169.355ZM266.623 168.248C266.623 168.041 266.52 167.879 266.312 167.762C266.109 167.641 265.781 167.533 265.328 167.439C263.82 167.123 263.066 166.482 263.066 165.518C263.066 164.955 263.299 164.486 263.764 164.111C264.232 163.732 264.844 163.543 265.598 163.543C266.402 163.543 267.045 163.732 267.525 164.111C268.01 164.49 268.252 164.982 268.252 165.588H266.559C266.559 165.346 266.48 165.146 266.324 164.99C266.168 164.83 265.924 164.75 265.592 164.75C265.307 164.75 265.086 164.814 264.93 164.943C264.773 165.072 264.695 165.236 264.695 165.436C264.695 165.623 264.783 165.775 264.959 165.893C265.139 166.006 265.439 166.105 265.861 166.191C266.283 166.273 266.639 166.367 266.928 166.473C267.822 166.801 268.27 167.369 268.27 168.178C268.27 168.756 268.021 169.225 267.525 169.584C267.029 169.939 266.389 170.117 265.604 170.117C265.072 170.117 264.6 170.023 264.186 169.836C263.775 169.645 263.453 169.385 263.219 169.057C262.984 168.725 262.867 168.367 262.867 167.984H264.473C264.488 168.285 264.6 168.516 264.807 168.676C265.014 168.836 265.291 168.916 265.639 168.916C265.963 168.916 266.207 168.855 266.371 168.734C266.539 168.609 266.623 168.447 266.623 168.248ZM273.039 170C272.961 169.848 272.904 169.658 272.869 169.432C272.459 169.889 271.926 170.117 271.27 170.117C270.648 170.117 270.133 169.938 269.723 169.578C269.316 169.219 269.113 168.766 269.113 168.219C269.113 167.547 269.361 167.031 269.857 166.672C270.357 166.312 271.078 166.131 272.02 166.127H272.799V165.764C272.799 165.471 272.723 165.236 272.57 165.061C272.422 164.885 272.186 164.797 271.861 164.797C271.576 164.797 271.352 164.865 271.188 165.002C271.027 165.139 270.947 165.326 270.947 165.564H269.254C269.254 165.197 269.367 164.857 269.594 164.545C269.82 164.232 270.141 163.988 270.555 163.812C270.969 163.633 271.434 163.543 271.949 163.543C272.73 163.543 273.35 163.74 273.807 164.135C274.268 164.525 274.498 165.076 274.498 165.787V168.535C274.502 169.137 274.586 169.592 274.75 169.9V170H273.039ZM271.639 168.822C271.889 168.822 272.119 168.768 272.33 168.658C272.541 168.545 272.697 168.395 272.799 168.207V167.117H272.166C271.318 167.117 270.867 167.41 270.812 167.996L270.807 168.096C270.807 168.307 270.881 168.48 271.029 168.617C271.178 168.754 271.381 168.822 271.639 168.822Z" fill="#BBE1FA"/>
<path d="M195.249 192H190.591V191.351L193.052 188.616C193.416 188.203 193.667 187.868 193.804 187.61C193.944 187.35 194.014 187.081 194.014 186.805C194.014 186.434 193.901 186.129 193.677 185.892C193.452 185.654 193.153 185.535 192.778 185.535C192.329 185.535 191.979 185.664 191.729 185.921C191.481 186.175 191.357 186.53 191.357 186.985H190.454C190.454 186.331 190.664 185.802 191.084 185.398C191.507 184.995 192.072 184.793 192.778 184.793C193.439 184.793 193.962 184.967 194.346 185.315C194.73 185.66 194.922 186.121 194.922 186.697C194.922 187.397 194.476 188.23 193.584 189.197L191.68 191.263H195.249V192ZM200.664 188.968C200.664 190.026 200.483 190.812 200.122 191.326C199.761 191.84 199.196 192.098 198.428 192.098C197.669 192.098 197.108 191.847 196.743 191.346C196.379 190.841 196.19 190.089 196.177 189.09V187.884C196.177 186.839 196.357 186.062 196.719 185.555C197.08 185.047 197.646 184.793 198.418 184.793C199.183 184.793 199.746 185.039 200.107 185.53C200.469 186.019 200.654 186.774 200.664 187.796V188.968ZM199.761 187.732C199.761 186.967 199.653 186.411 199.438 186.062C199.224 185.711 198.883 185.535 198.418 185.535C197.956 185.535 197.619 185.709 197.407 186.058C197.196 186.406 197.087 186.941 197.08 187.664V189.109C197.08 189.878 197.191 190.446 197.412 190.813C197.637 191.178 197.975 191.36 198.428 191.36C198.874 191.36 199.204 191.188 199.419 190.843C199.637 190.498 199.751 189.954 199.761 189.212V187.732ZM204.79 192H203.882V185.979L202.061 186.648V185.828L204.648 184.856H204.79V192ZM210.898 188.875C210.71 189.1 210.483 189.28 210.22 189.417C209.959 189.554 209.673 189.622 209.36 189.622C208.95 189.622 208.592 189.521 208.286 189.319C207.983 189.118 207.749 188.834 207.583 188.47C207.417 188.102 207.334 187.697 207.334 187.254C207.334 186.779 207.424 186.351 207.603 185.97C207.785 185.589 208.042 185.298 208.374 185.096C208.706 184.894 209.093 184.793 209.536 184.793C210.239 184.793 210.793 185.057 211.196 185.584C211.603 186.108 211.807 186.824 211.807 187.732V187.996C211.807 189.38 211.533 190.39 210.986 191.028C210.439 191.663 209.614 191.989 208.511 192.005H208.335V191.243H208.525C209.271 191.23 209.844 191.036 210.244 190.662C210.645 190.285 210.863 189.689 210.898 188.875ZM209.507 188.875C209.81 188.875 210.088 188.782 210.342 188.597C210.599 188.411 210.786 188.182 210.903 187.908V187.547C210.903 186.954 210.775 186.473 210.518 186.102C210.26 185.73 209.935 185.545 209.541 185.545C209.144 185.545 208.825 185.698 208.584 186.004C208.343 186.307 208.223 186.707 208.223 187.205C208.223 187.69 208.338 188.09 208.569 188.406C208.804 188.719 209.116 188.875 209.507 188.875ZM217.505 189.349H215.122V188.611H217.505V189.349ZM225.435 192H220.776V191.351L223.237 188.616C223.602 188.203 223.853 187.868 223.989 187.61C224.129 187.35 224.199 187.081 224.199 186.805C224.199 186.434 224.087 186.129 223.862 185.892C223.638 185.654 223.338 185.535 222.964 185.535C222.515 185.535 222.165 185.664 221.914 185.921C221.667 186.175 221.543 186.53 221.543 186.985H220.64C220.64 186.331 220.85 185.802 221.27 185.398C221.693 184.995 222.257 184.793 222.964 184.793C223.625 184.793 224.147 184.967 224.531 185.315C224.915 185.66 225.107 186.121 225.107 186.697C225.107 187.397 224.661 188.23 223.77 189.197L221.865 191.263H225.435V192ZM230.85 188.968C230.85 190.026 230.669 190.812 230.308 191.326C229.946 191.84 229.382 192.098 228.613 192.098C227.855 192.098 227.293 191.847 226.929 191.346C226.564 190.841 226.375 190.089 226.362 189.09V187.884C226.362 186.839 226.543 186.062 226.904 185.555C227.266 185.047 227.832 184.793 228.604 184.793C229.368 184.793 229.932 185.039 230.293 185.53C230.654 186.019 230.84 186.774 230.85 187.796V188.968ZM229.946 187.732C229.946 186.967 229.839 186.411 229.624 186.062C229.409 185.711 229.069 185.535 228.604 185.535C228.141 185.535 227.804 185.709 227.593 186.058C227.381 186.406 227.272 186.941 227.266 187.664V189.109C227.266 189.878 227.376 190.446 227.598 190.813C227.822 191.178 228.161 191.36 228.613 191.36C229.059 191.36 229.39 191.188 229.604 190.843C229.823 190.498 229.937 189.954 229.946 189.212V187.732ZM236.665 192H232.007V191.351L234.468 188.616C234.832 188.203 235.083 187.868 235.22 187.61C235.36 187.35 235.43 187.081 235.43 186.805C235.43 186.434 235.317 186.129 235.093 185.892C234.868 185.654 234.569 185.535 234.194 185.535C233.745 185.535 233.395 185.664 233.145 185.921C232.897 186.175 232.773 186.53 232.773 186.985H231.87C231.87 186.331 232.08 185.802 232.5 185.398C232.923 184.995 233.488 184.793 234.194 184.793C234.855 184.793 235.378 184.967 235.762 185.315C236.146 185.66 236.338 186.121 236.338 186.697C236.338 187.397 235.892 188.23 235 189.197L233.096 191.263H236.665V192ZM238.936 188.006H239.614C240.041 187.999 240.376 187.887 240.62 187.669C240.864 187.451 240.986 187.156 240.986 186.785C240.986 185.952 240.571 185.535 239.741 185.535C239.351 185.535 239.038 185.647 238.804 185.872C238.573 186.093 238.457 186.388 238.457 186.756H237.554C237.554 186.193 237.759 185.726 238.169 185.354C238.582 184.98 239.106 184.793 239.741 184.793C240.412 184.793 240.938 184.97 241.318 185.325C241.699 185.68 241.89 186.173 241.89 186.805C241.89 187.114 241.789 187.413 241.587 187.703C241.388 187.993 241.117 188.209 240.771 188.353C241.162 188.476 241.463 188.681 241.675 188.968C241.89 189.254 241.997 189.604 241.997 190.018C241.997 190.656 241.789 191.162 241.372 191.536C240.955 191.91 240.413 192.098 239.746 192.098C239.079 192.098 238.535 191.917 238.115 191.556C237.699 191.194 237.49 190.717 237.49 190.125H238.398C238.398 190.499 238.521 190.799 238.765 191.023C239.009 191.248 239.336 191.36 239.746 191.36C240.182 191.36 240.516 191.246 240.747 191.019C240.978 190.791 241.094 190.464 241.094 190.037C241.094 189.624 240.967 189.306 240.713 189.085C240.459 188.864 240.093 188.75 239.614 188.743H238.936V188.006Z" fill="#BBE1FA"/>
<path d="M169 111C169 113.761 166.761 116 164 116C161.239 116 159 113.761 159 111C159 108.239 161.239 106 164 106C166.761 106 169 108.239 169 111Z" fill="#BBE1FA"/>
<rect y="77" width="141" height="66" rx="13" fill="#BBE1FA"/>
<path d="M29.7793 97.7617C29.7793 97.4297 29.6621 97.1758 29.4277 97C29.1934 96.8203 28.7715 96.6328 28.1621 96.4375C27.5527 96.2383 27.0703 96.043 26.7148 95.8516C25.7461 95.3281 25.2617 94.623 25.2617 93.7363C25.2617 93.2754 25.3906 92.8652 25.6484 92.5059C25.9102 92.1426 26.2832 91.8594 26.7676 91.6562C27.2559 91.4531 27.8027 91.3516 28.4082 91.3516C29.0176 91.3516 29.5605 91.4629 30.0371 91.6855C30.5137 91.9043 30.8828 92.2148 31.1445 92.6172C31.4102 93.0195 31.543 93.4766 31.543 93.9883H29.7852C29.7852 93.5977 29.6621 93.2949 29.416 93.0801C29.1699 92.8613 28.8242 92.752 28.3789 92.752C27.9492 92.752 27.6152 92.8438 27.377 93.0273C27.1387 93.207 27.0195 93.4453 27.0195 93.7422C27.0195 94.0195 27.1582 94.252 27.4355 94.4395C27.7168 94.627 28.1289 94.8027 28.6719 94.9668C29.6719 95.2676 30.4004 95.6406 30.8574 96.0859C31.3145 96.5312 31.543 97.0859 31.543 97.75C31.543 98.4883 31.2637 99.0684 30.7051 99.4902C30.1465 99.9082 29.3945 100.117 28.4492 100.117C27.793 100.117 27.1953 99.998 26.6562 99.7598C26.1172 99.5176 25.7051 99.1875 25.4199 98.7695C25.1387 98.3516 24.998 97.8672 24.998 97.3164H26.7617C26.7617 98.2578 27.3242 98.7285 28.4492 98.7285C28.8672 98.7285 29.1934 98.6445 29.4277 98.4766C29.6621 98.3047 29.7793 98.0664 29.7793 97.7617ZM35.0352 91.4688L37.2266 97.6562L39.4062 91.4688H41.7148V100H39.9512V97.668L40.127 93.6426L37.8242 100H36.6172L34.3203 93.6484L34.4961 97.668V100H32.7383V91.4688H35.0352ZM45.9219 96.5781L45.0078 97.5625V100H43.25V91.4688H45.0078V95.3359L45.7812 94.2754L47.9551 91.4688H50.1172L47.0879 95.2598L50.2051 100H48.1133L45.9219 96.5781ZM53.8555 100V91.4688H56.8438C57.8789 91.4688 58.6641 91.668 59.1992 92.0664C59.7344 92.4609 60.002 93.041 60.002 93.8066C60.002 94.2246 59.8945 94.5938 59.6797 94.9141C59.4648 95.2305 59.166 95.4629 58.7832 95.6113C59.2207 95.7207 59.5645 95.9414 59.8145 96.2734C60.0684 96.6055 60.1953 97.0117 60.1953 97.4922C60.1953 98.3125 59.9336 98.9336 59.4102 99.3555C58.8867 99.7773 58.1406 99.9922 57.1719 100H53.8555ZM55.6133 96.2852V98.5879H57.1191C57.5332 98.5879 57.8555 98.4902 58.0859 98.2949C58.3203 98.0957 58.4375 97.8223 58.4375 97.4746C58.4375 96.6934 58.0332 96.2969 57.2246 96.2852H55.6133ZM55.6133 95.043H56.9141C57.8008 95.0273 58.2441 94.6738 58.2441 93.9824C58.2441 93.5957 58.1309 93.3184 57.9043 93.1504C57.6816 92.9785 57.3281 92.8926 56.8438 92.8926H55.6133V95.043ZM65.082 100C65.0039 99.8477 64.9473 99.6582 64.9121 99.4316C64.502 99.8887 63.9688 100.117 63.3125 100.117C62.6914 100.117 62.1758 99.9375 61.7656 99.5781C61.3594 99.2188 61.1562 98.7656 61.1562 98.2188C61.1562 97.5469 61.4043 97.0312 61.9004 96.6719C62.4004 96.3125 63.1211 96.1309 64.0625 96.127H64.8418V95.7637C64.8418 95.4707 64.7656 95.2363 64.6133 95.0605C64.4648 94.8848 64.2285 94.7969 63.9043 94.7969C63.6191 94.7969 63.3945 94.8652 63.2305 95.002C63.0703 95.1387 62.9902 95.3262 62.9902 95.5645H61.2969C61.2969 95.1973 61.4102 94.8574 61.6367 94.5449C61.8633 94.2324 62.1836 93.9883 62.5977 93.8125C63.0117 93.6328 63.4766 93.543 63.9922 93.543C64.7734 93.543 65.3926 93.7402 65.8496 94.1348C66.3105 94.5254 66.541 95.0762 66.541 95.7871V98.5352C66.5449 99.1367 66.6289 99.5918 66.793 99.9004V100H65.082ZM63.6816 98.8223C63.9316 98.8223 64.1621 98.7676 64.373 98.6582C64.584 98.5449 64.7402 98.3945 64.8418 98.207V97.1172H64.209C63.3613 97.1172 62.9102 97.4102 62.8555 97.9961L62.8496 98.0957C62.8496 98.3066 62.9238 98.4805 63.0723 98.6172C63.2207 98.7539 63.4238 98.8223 63.6816 98.8223ZM69.4004 93.6602L69.4531 94.3926C69.9062 93.8262 70.5137 93.543 71.2754 93.543C71.9473 93.543 72.4473 93.7402 72.7754 94.1348C73.1035 94.5293 73.2715 95.1191 73.2793 95.9043V100H71.5859V95.9453C71.5859 95.5859 71.5078 95.3262 71.3516 95.166C71.1953 95.002 70.9355 94.9199 70.5723 94.9199C70.0957 94.9199 69.7383 95.123 69.5 95.5293V100H67.8066V93.6602H69.4004ZM74.3223 96.7832C74.3223 95.8105 74.5527 95.0273 75.0137 94.4336C75.4785 93.8398 76.1035 93.543 76.8887 93.543C77.584 93.543 78.125 93.7812 78.5117 94.2578L78.582 93.6602H80.1172V99.7891C80.1172 100.344 79.9902 100.826 79.7363 101.236C79.4863 101.646 79.1328 101.959 78.6758 102.174C78.2188 102.389 77.6836 102.496 77.0703 102.496C76.6055 102.496 76.1523 102.402 75.7109 102.215C75.2695 102.031 74.9355 101.793 74.709 101.5L75.459 100.469C75.8809 100.941 76.3926 101.178 76.9941 101.178C77.4434 101.178 77.793 101.057 78.043 100.814C78.293 100.576 78.418 100.236 78.418 99.7949V99.4551C78.0273 99.8965 77.5137 100.117 76.877 100.117C76.1152 100.117 75.498 99.8203 75.0254 99.2266C74.5566 98.6289 74.3223 97.8379 74.3223 96.8535V96.7832ZM76.0156 96.9062C76.0156 97.4805 76.1309 97.9316 76.3613 98.2598C76.5918 98.584 76.9082 98.7461 77.3105 98.7461C77.8262 98.7461 78.1953 98.5527 78.418 98.166V95.5C78.1914 95.1133 77.8262 94.9199 77.3223 94.9199C76.916 94.9199 76.5957 95.0859 76.3613 95.418C76.1309 95.75 76.0156 96.2461 76.0156 96.9062ZM85.2207 99.3555C84.8027 99.8633 84.2246 100.117 83.4863 100.117C82.8066 100.117 82.2871 99.9219 81.9277 99.5312C81.5723 99.1406 81.3906 98.5684 81.3828 97.8145V93.6602H83.0762V97.7559C83.0762 98.416 83.377 98.7461 83.9785 98.7461C84.5527 98.7461 84.9473 98.5469 85.1621 98.1484V93.6602H86.8613V100H85.2676L85.2207 99.3555ZM89.6973 93.6602L89.75 94.3926C90.2031 93.8262 90.8105 93.543 91.5723 93.543C92.2441 93.543 92.7441 93.7402 93.0723 94.1348C93.4004 94.5293 93.5684 95.1191 93.5762 95.9043V100H91.8828V95.9453C91.8828 95.5859 91.8047 95.3262 91.6484 95.166C91.4922 95.002 91.2324 94.9199 90.8691 94.9199C90.3926 94.9199 90.0352 95.123 89.7969 95.5293V100H88.1035V93.6602H89.6973ZM104.902 100H103.145L99.7227 94.3867V100H97.9648V91.4688H99.7227L103.15 97.0938V91.4688H104.902V100ZM110.123 99.3555C109.705 99.8633 109.127 100.117 108.389 100.117C107.709 100.117 107.189 99.9219 106.83 99.5312C106.475 99.1406 106.293 98.5684 106.285 97.8145V93.6602H107.979V97.7559C107.979 98.416 108.279 98.7461 108.881 98.7461C109.455 98.7461 109.85 98.5469 110.064 98.1484V93.6602H111.764V100H110.17L110.123 99.3555ZM116.475 98.248C116.475 98.041 116.371 97.8789 116.164 97.7617C115.961 97.6406 115.633 97.5332 115.18 97.4395C113.672 97.123 112.918 96.4824 112.918 95.5176C112.918 94.9551 113.15 94.4863 113.615 94.1113C114.084 93.7324 114.695 93.543 115.449 93.543C116.254 93.543 116.896 93.7324 117.377 94.1113C117.861 94.4902 118.104 94.9824 118.104 95.5879H116.41C116.41 95.3457 116.332 95.1465 116.176 94.9902C116.02 94.8301 115.775 94.75 115.443 94.75C115.158 94.75 114.938 94.8145 114.781 94.9434C114.625 95.0723 114.547 95.2363 114.547 95.4355C114.547 95.623 114.635 95.7754 114.811 95.8926C114.99 96.0059 115.291 96.1055 115.713 96.1914C116.135 96.2734 116.49 96.3672 116.779 96.4727C117.674 96.8008 118.121 97.3691 118.121 98.1777C118.121 98.7559 117.873 99.2246 117.377 99.584C116.881 99.9395 116.24 100.117 115.455 100.117C114.924 100.117 114.451 100.023 114.037 99.8359C113.627 99.6445 113.305 99.3848 113.07 99.0566C112.836 98.7246 112.719 98.3672 112.719 97.9844H114.324C114.34 98.2852 114.451 98.5156 114.658 98.6758C114.865 98.8359 115.143 98.916 115.49 98.916C115.814 98.916 116.059 98.8555 116.223 98.7344C116.391 98.6094 116.475 98.4473 116.475 98.248ZM122.891 100C122.812 99.8477 122.756 99.6582 122.721 99.4316C122.311 99.8887 121.777 100.117 121.121 100.117C120.5 100.117 119.984 99.9375 119.574 99.5781C119.168 99.2188 118.965 98.7656 118.965 98.2188C118.965 97.5469 119.213 97.0312 119.709 96.6719C120.209 96.3125 120.93 96.1309 121.871 96.127H122.65V95.7637C122.65 95.4707 122.574 95.2363 122.422 95.0605C122.273 94.8848 122.037 94.7969 121.713 94.7969C121.428 94.7969 121.203 94.8652 121.039 95.002C120.879 95.1387 120.799 95.3262 120.799 95.5645H119.105C119.105 95.1973 119.219 94.8574 119.445 94.5449C119.672 94.2324 119.992 93.9883 120.406 93.8125C120.82 93.6328 121.285 93.543 121.801 93.543C122.582 93.543 123.201 93.7402 123.658 94.1348C124.119 94.5254 124.35 95.0762 124.35 95.7871V98.5352C124.354 99.1367 124.438 99.5918 124.602 99.9004V100H122.891ZM121.49 98.8223C121.74 98.8223 121.971 98.7676 122.182 98.6582C122.393 98.5449 122.549 98.3945 122.65 98.207V97.1172H122.018C121.17 97.1172 120.719 97.4102 120.664 97.9961L120.658 98.0957C120.658 98.3066 120.732 98.4805 120.881 98.6172C121.029 98.7539 121.232 98.8223 121.49 98.8223ZM85.4727 114V105.469H88.4609C89.4961 105.469 90.2812 105.668 90.8164 106.066C91.3516 106.461 91.6191 107.041 91.6191 107.807C91.6191 108.225 91.5117 108.594 91.2969 108.914C91.082 109.23 90.7832 109.463 90.4004 109.611C90.8379 109.721 91.1816 109.941 91.4316 110.273C91.6855 110.605 91.8125 111.012 91.8125 111.492C91.8125 112.312 91.5508 112.934 91.0273 113.355C90.5039 113.777 89.7578 113.992 88.7891 114H85.4727ZM87.2305 110.285V112.588H88.7363C89.1504 112.588 89.4727 112.49 89.7031 112.295C89.9375 112.096 90.0547 111.822 90.0547 111.475C90.0547 110.693 89.6504 110.297 88.8418 110.285H87.2305ZM87.2305 109.043H88.5312C89.418 109.027 89.8613 108.674 89.8613 107.982C89.8613 107.596 89.748 107.318 89.5215 107.15C89.2988 106.979 88.9453 106.893 88.4609 106.893H87.2305V109.043ZM96.6992 114C96.6211 113.848 96.5645 113.658 96.5293 113.432C96.1191 113.889 95.5859 114.117 94.9297 114.117C94.3086 114.117 93.793 113.938 93.3828 113.578C92.9766 113.219 92.7734 112.766 92.7734 112.219C92.7734 111.547 93.0215 111.031 93.5176 110.672C94.0176 110.312 94.7383 110.131 95.6797 110.127H96.459V109.764C96.459 109.471 96.3828 109.236 96.2305 109.061C96.082 108.885 95.8457 108.797 95.5215 108.797C95.2363 108.797 95.0117 108.865 94.8477 109.002C94.6875 109.139 94.6074 109.326 94.6074 109.564H92.9141C92.9141 109.197 93.0273 108.857 93.2539 108.545C93.4805 108.232 93.8008 107.988 94.2148 107.812C94.6289 107.633 95.0938 107.543 95.6094 107.543C96.3906 107.543 97.0098 107.74 97.4668 108.135C97.9277 108.525 98.1582 109.076 98.1582 109.787V112.535C98.1621 113.137 98.2461 113.592 98.4102 113.9V114H96.6992ZM95.2988 112.822C95.5488 112.822 95.7793 112.768 95.9902 112.658C96.2012 112.545 96.3574 112.395 96.459 112.207V111.117H95.8262C94.9785 111.117 94.5273 111.41 94.4727 111.996L94.4668 112.096C94.4668 112.307 94.541 112.48 94.6895 112.617C94.8379 112.754 95.041 112.822 95.2988 112.822ZM101.018 107.66L101.07 108.393C101.523 107.826 102.131 107.543 102.893 107.543C103.564 107.543 104.064 107.74 104.393 108.135C104.721 108.529 104.889 109.119 104.896 109.904V114H103.203V109.945C103.203 109.586 103.125 109.326 102.969 109.166C102.812 109.002 102.553 108.92 102.189 108.92C101.713 108.92 101.355 109.123 101.117 109.529V114H99.4238V107.66H101.018ZM105.939 110.783C105.939 109.811 106.17 109.027 106.631 108.434C107.096 107.84 107.721 107.543 108.506 107.543C109.201 107.543 109.742 107.781 110.129 108.258L110.199 107.66H111.734V113.789C111.734 114.344 111.607 114.826 111.354 115.236C111.104 115.646 110.75 115.959 110.293 116.174C109.836 116.389 109.301 116.496 108.688 116.496C108.223 116.496 107.77 116.402 107.328 116.215C106.887 116.031 106.553 115.793 106.326 115.5L107.076 114.469C107.498 114.941 108.01 115.178 108.611 115.178C109.061 115.178 109.41 115.057 109.66 114.814C109.91 114.576 110.035 114.236 110.035 113.795V113.455C109.645 113.896 109.131 114.117 108.494 114.117C107.732 114.117 107.115 113.82 106.643 113.227C106.174 112.629 105.939 111.838 105.939 110.854V110.783ZM107.633 110.906C107.633 111.48 107.748 111.932 107.979 112.26C108.209 112.584 108.525 112.746 108.928 112.746C109.443 112.746 109.812 112.553 110.035 112.166V109.5C109.809 109.113 109.443 108.92 108.939 108.92C108.533 108.92 108.213 109.086 107.979 109.418C107.748 109.75 107.633 110.246 107.633 110.906ZM116.475 112.248C116.475 112.041 116.371 111.879 116.164 111.762C115.961 111.641 115.633 111.533 115.18 111.439C113.672 111.123 112.918 110.482 112.918 109.518C112.918 108.955 113.15 108.486 113.615 108.111C114.084 107.732 114.695 107.543 115.449 107.543C116.254 107.543 116.896 107.732 117.377 108.111C117.861 108.49 118.104 108.982 118.104 109.588H116.41C116.41 109.346 116.332 109.146 116.176 108.99C116.02 108.83 115.775 108.75 115.443 108.75C115.158 108.75 114.938 108.814 114.781 108.943C114.625 109.072 114.547 109.236 114.547 109.436C114.547 109.623 114.635 109.775 114.811 109.893C114.99 110.006 115.291 110.105 115.713 110.191C116.135 110.273 116.49 110.367 116.779 110.473C117.674 110.801 118.121 111.369 118.121 112.178C118.121 112.756 117.873 113.225 117.377 113.584C116.881 113.939 116.24 114.117 115.455 114.117C114.924 114.117 114.451 114.023 114.037 113.836C113.627 113.645 113.305 113.385 113.07 113.057C112.836 112.725 112.719 112.367 112.719 111.984H114.324C114.34 112.285 114.451 112.516 114.658 112.676C114.865 112.836 115.143 112.916 115.49 112.916C115.814 112.916 116.059 112.855 116.223 112.734C116.391 112.609 116.475 112.447 116.475 112.248ZM122.891 114C122.812 113.848 122.756 113.658 122.721 113.432C122.311 113.889 121.777 114.117 121.121 114.117C120.5 114.117 119.984 113.938 119.574 113.578C119.168 113.219 118.965 112.766 118.965 112.219C118.965 111.547 119.213 111.031 119.709 110.672C120.209 110.312 120.93 110.131 121.871 110.127H122.65V109.764C122.65 109.471 122.574 109.236 122.422 109.061C122.273 108.885 122.037 108.797 121.713 108.797C121.428 108.797 121.203 108.865 121.039 109.002C120.879 109.139 120.799 109.326 120.799 109.564H119.105C119.105 109.197 119.219 108.857 119.445 108.545C119.672 108.232 119.992 107.988 120.406 107.812C120.82 107.633 121.285 107.543 121.801 107.543C122.582 107.543 123.201 107.74 123.658 108.135C124.119 108.525 124.35 109.076 124.35 109.787V112.535C124.354 113.137 124.438 113.592 124.602 113.9V114H122.891ZM121.49 112.822C121.74 112.822 121.971 112.768 122.182 112.658C122.393 112.545 122.549 112.395 122.65 112.207V111.117H122.018C121.17 111.117 120.719 111.41 120.664 111.996L120.658 112.096C120.658 112.307 120.732 112.48 120.881 112.617C121.029 112.754 121.232 112.822 121.49 112.822Z" fill="#0F4C75"/>
<path d="M75.249 133H70.5908V132.351L73.0518 129.616C73.4163 129.203 73.667 128.868 73.8037 128.61C73.9437 128.35 74.0137 128.081 74.0137 127.805C74.0137 127.434 73.9014 127.129 73.6768 126.892C73.4521 126.654 73.1527 126.535 72.7783 126.535C72.3291 126.535 71.9792 126.664 71.7285 126.921C71.4811 127.175 71.3574 127.53 71.3574 127.985H70.4541C70.4541 127.331 70.6641 126.802 71.084 126.398C71.5072 125.995 72.0719 125.793 72.7783 125.793C73.4391 125.793 73.9616 125.967 74.3457 126.315C74.7298 126.66 74.9219 127.121 74.9219 127.697C74.9219 128.397 74.4759 129.23 73.584 130.197L71.6797 132.263H75.249V133ZM80.6641 129.968C80.6641 131.026 80.4834 131.812 80.1221 132.326C79.7607 132.84 79.196 133.098 78.4277 133.098C77.6693 133.098 77.1077 132.847 76.7432 132.346C76.3786 131.841 76.1898 131.089 76.1768 130.09V128.884C76.1768 127.839 76.3574 127.062 76.7188 126.555C77.0801 126.047 77.6465 125.793 78.418 125.793C79.1829 125.793 79.7461 126.039 80.1074 126.53C80.4688 127.019 80.6543 127.774 80.6641 128.796V129.968ZM79.7607 128.732C79.7607 127.967 79.6533 127.411 79.4385 127.062C79.2236 126.711 78.8835 126.535 78.418 126.535C77.9557 126.535 77.6188 126.709 77.4072 127.058C77.1956 127.406 77.0866 127.941 77.0801 128.664V130.109C77.0801 130.878 77.1908 131.446 77.4121 131.813C77.6367 132.178 77.9753 132.36 78.4277 132.36C78.8737 132.36 79.2041 132.188 79.4189 131.843C79.637 131.498 79.751 130.954 79.7607 130.212V128.732ZM84.79 133H83.8818V126.979L82.0605 127.648V126.828L84.6484 125.856H84.79V133ZM90.8984 129.875C90.7096 130.1 90.4834 130.28 90.2197 130.417C89.9593 130.554 89.6729 130.622 89.3604 130.622C88.9502 130.622 88.5921 130.521 88.2861 130.319C87.9834 130.118 87.749 129.834 87.583 129.47C87.417 129.102 87.334 128.697 87.334 128.254C87.334 127.779 87.4235 127.351 87.6025 126.97C87.7848 126.589 88.042 126.298 88.374 126.096C88.7061 125.894 89.0934 125.793 89.5361 125.793C90.2393 125.793 90.7926 126.057 91.1963 126.584C91.6032 127.108 91.8066 127.824 91.8066 128.732V128.996C91.8066 130.38 91.5332 131.39 90.9863 132.028C90.4395 132.663 89.6143 132.989 88.5107 133.005H88.335V132.243H88.5254C89.2708 132.23 89.8438 132.036 90.2441 131.662C90.6445 131.285 90.8626 130.689 90.8984 129.875ZM89.5068 129.875C89.8096 129.875 90.0879 129.782 90.3418 129.597C90.599 129.411 90.7861 129.182 90.9033 128.908V128.547C90.9033 127.954 90.7747 127.473 90.5176 127.102C90.2604 126.73 89.9349 126.545 89.541 126.545C89.1439 126.545 88.8249 126.698 88.584 127.004C88.3431 127.307 88.2227 127.707 88.2227 128.205C88.2227 128.69 88.3382 129.09 88.5693 129.406C88.8037 129.719 89.1162 129.875 89.5068 129.875ZM97.5049 130.349H95.1221V129.611H97.5049V130.349ZM105.435 133H100.776V132.351L103.237 129.616C103.602 129.203 103.853 128.868 103.989 128.61C104.129 128.35 104.199 128.081 104.199 127.805C104.199 127.434 104.087 127.129 103.862 126.892C103.638 126.654 103.338 126.535 102.964 126.535C102.515 126.535 102.165 126.664 101.914 126.921C101.667 127.175 101.543 127.53 101.543 127.985H100.64C100.64 127.331 100.85 126.802 101.27 126.398C101.693 125.995 102.257 125.793 102.964 125.793C103.625 125.793 104.147 125.967 104.531 126.315C104.915 126.66 105.107 127.121 105.107 127.697C105.107 128.397 104.661 129.23 103.77 130.197L101.865 132.263H105.435V133ZM110.85 129.968C110.85 131.026 110.669 131.812 110.308 132.326C109.946 132.84 109.382 133.098 108.613 133.098C107.855 133.098 107.293 132.847 106.929 132.346C106.564 131.841 106.375 131.089 106.362 130.09V128.884C106.362 127.839 106.543 127.062 106.904 126.555C107.266 126.047 107.832 125.793 108.604 125.793C109.368 125.793 109.932 126.039 110.293 126.53C110.654 127.019 110.84 127.774 110.85 128.796V129.968ZM109.946 128.732C109.946 127.967 109.839 127.411 109.624 127.062C109.409 126.711 109.069 126.535 108.604 126.535C108.141 126.535 107.804 126.709 107.593 127.058C107.381 127.406 107.272 127.941 107.266 128.664V130.109C107.266 130.878 107.376 131.446 107.598 131.813C107.822 132.178 108.161 132.36 108.613 132.36C109.059 132.36 109.39 132.188 109.604 131.843C109.823 131.498 109.937 130.954 109.946 130.212V128.732ZM116.665 133H112.007V132.351L114.468 129.616C114.832 129.203 115.083 128.868 115.22 128.61C115.36 128.35 115.43 128.081 115.43 127.805C115.43 127.434 115.317 127.129 115.093 126.892C114.868 126.654 114.569 126.535 114.194 126.535C113.745 126.535 113.395 126.664 113.145 126.921C112.897 127.175 112.773 127.53 112.773 127.985H111.87C111.87 127.331 112.08 126.802 112.5 126.398C112.923 125.995 113.488 125.793 114.194 125.793C114.855 125.793 115.378 125.967 115.762 126.315C116.146 126.66 116.338 127.121 116.338 127.697C116.338 128.397 115.892 129.23 115 130.197L113.096 132.263H116.665V133ZM118.936 129.006H119.614C120.041 128.999 120.376 128.887 120.62 128.669C120.864 128.451 120.986 128.156 120.986 127.785C120.986 126.952 120.571 126.535 119.741 126.535C119.351 126.535 119.038 126.647 118.804 126.872C118.573 127.093 118.457 127.388 118.457 127.756H117.554C117.554 127.193 117.759 126.726 118.169 126.354C118.582 125.98 119.106 125.793 119.741 125.793C120.412 125.793 120.938 125.97 121.318 126.325C121.699 126.68 121.89 127.173 121.89 127.805C121.89 128.114 121.789 128.413 121.587 128.703C121.388 128.993 121.117 129.209 120.771 129.353C121.162 129.476 121.463 129.681 121.675 129.968C121.89 130.254 121.997 130.604 121.997 131.018C121.997 131.656 121.789 132.162 121.372 132.536C120.955 132.91 120.413 133.098 119.746 133.098C119.079 133.098 118.535 132.917 118.115 132.556C117.699 132.194 117.49 131.717 117.49 131.125H118.398C118.398 131.499 118.521 131.799 118.765 132.023C119.009 132.248 119.336 132.36 119.746 132.36C120.182 132.36 120.516 132.246 120.747 132.019C120.978 131.791 121.094 131.464 121.094 131.037C121.094 130.624 120.967 130.306 120.713 130.085C120.459 129.864 120.093 129.75 119.614 129.743H118.936V129.006Z" fill="#0F4C75"/>
</svg>
