<svg width="323" height="229" viewBox="0 0 323 229" fill="none" xmlns="http://www.w3.org/2000/svg">
<path d="M158 30V208" stroke="#0F4C75" stroke-width="5"/>
<path d="M158 218V222" stroke="#86C7F2" stroke-width="5"/>
<path d="M158 225V229" stroke="#BBE1FA" stroke-width="5"/>
<path d="M158 211V215" stroke="#54A8E0" stroke-width="5"/>
<path d="M163 30C163 32.7614 160.761 35 158 35C155.239 35 153 32.7614 153 30C153 27.2386 155.239 25 158 25C160.761 25 163 27.2386 163 30Z" fill="#892CDC"/>
<rect x="176" width="147" height="60" rx="13" fill="#892CDC"/>
<path d="M192.219 13.4688V19.0879C192.219 20.0215 191.926 20.7598 191.34 21.3027C190.758 21.8457 189.961 22.1172 188.949 22.1172C187.953 22.1172 187.162 21.8535 186.576 21.3262C185.99 20.7988 185.691 20.0742 185.68 19.1523V13.4688H187.438V19.0996C187.438 19.6582 187.57 20.0664 187.836 20.3242C188.105 20.5781 188.477 20.7051 188.949 20.7051C189.938 20.7051 190.439 20.1855 190.455 19.1465V13.4688H192.219ZM195.107 15.6602L195.16 16.3926C195.613 15.8262 196.221 15.543 196.982 15.543C197.654 15.543 198.154 15.7402 198.482 16.1348C198.811 16.5293 198.979 17.1191 198.986 17.9043V22H197.293V17.9453C197.293 17.5859 197.215 17.3262 197.059 17.166C196.902 17.002 196.643 16.9199 196.279 16.9199C195.803 16.9199 195.445 17.123 195.207 17.5293V22H193.514V15.6602H195.107ZM202.062 22H200.363V15.6602H202.062V22ZM200.264 14.0195C200.264 13.7656 200.348 13.5566 200.516 13.3926C200.688 13.2285 200.92 13.1465 201.213 13.1465C201.502 13.1465 201.732 13.2285 201.904 13.3926C202.076 13.5566 202.162 13.7656 202.162 14.0195C202.162 14.2773 202.074 14.4883 201.898 14.6523C201.727 14.8164 201.498 14.8984 201.213 14.8984C200.928 14.8984 200.697 14.8164 200.521 14.6523C200.35 14.4883 200.264 14.2773 200.264 14.0195ZM205.836 19.9316L207.014 15.6602H208.783L206.645 22H205.027L202.889 15.6602H204.658L205.836 19.9316ZM212.369 22.1172C211.439 22.1172 210.682 21.832 210.096 21.2617C209.514 20.6914 209.223 19.9316 209.223 18.9824V18.8184C209.223 18.1816 209.346 17.6133 209.592 17.1133C209.838 16.6094 210.186 16.2227 210.635 15.9531C211.088 15.6797 211.604 15.543 212.182 15.543C213.049 15.543 213.73 15.8164 214.227 16.3633C214.727 16.9102 214.977 17.6855 214.977 18.6895V19.3809H210.939C210.994 19.7949 211.158 20.127 211.432 20.377C211.709 20.627 212.059 20.752 212.48 20.752C213.133 20.752 213.643 20.5156 214.01 20.043L214.842 20.9746C214.588 21.334 214.244 21.6152 213.811 21.8184C213.377 22.0176 212.896 22.1172 212.369 22.1172ZM212.176 16.9141C211.84 16.9141 211.566 17.0273 211.355 17.2539C211.148 17.4805 211.016 17.8047 210.957 18.2266H213.312V18.0918C213.305 17.7168 213.203 17.4277 213.008 17.2246C212.812 17.0176 212.535 16.9141 212.176 16.9141ZM219.506 17.248C219.275 17.2168 219.072 17.2012 218.896 17.2012C218.256 17.2012 217.836 17.418 217.637 17.8516V22H215.943V15.6602H217.543L217.59 16.416C217.93 15.834 218.4 15.543 219.002 15.543C219.189 15.543 219.365 15.5684 219.529 15.6191L219.506 17.248ZM223.76 20.248C223.76 20.041 223.656 19.8789 223.449 19.7617C223.246 19.6406 222.918 19.5332 222.465 19.4395C220.957 19.123 220.203 18.4824 220.203 17.5176C220.203 16.9551 220.436 16.4863 220.9 16.1113C221.369 15.7324 221.98 15.543 222.734 15.543C223.539 15.543 224.182 15.7324 224.662 16.1113C225.146 16.4902 225.389 16.9824 225.389 17.5879H223.695C223.695 17.3457 223.617 17.1465 223.461 16.9902C223.305 16.8301 223.061 16.75 222.729 16.75C222.443 16.75 222.223 16.8145 222.066 16.9434C221.91 17.0723 221.832 17.2363 221.832 17.4355C221.832 17.623 221.92 17.7754 222.096 17.8926C222.275 18.0059 222.576 18.1055 222.998 18.1914C223.42 18.2734 223.775 18.3672 224.064 18.4727C224.959 18.8008 225.406 19.3691 225.406 20.1777C225.406 20.7559 225.158 21.2246 224.662 21.584C224.166 21.9395 223.525 22.1172 222.74 22.1172C222.209 22.1172 221.736 22.0234 221.322 21.8359C220.912 21.6445 220.59 21.3848 220.355 21.0566C220.121 20.7246 220.004 20.3672 220.004 19.9844H221.609C221.625 20.2852 221.736 20.5156 221.943 20.6758C222.15 20.8359 222.428 20.916 222.775 20.916C223.1 20.916 223.344 20.8555 223.508 20.7344C223.676 20.6094 223.76 20.4473 223.76 20.248ZM228.289 22H226.59V15.6602H228.289V22ZM226.49 14.0195C226.49 13.7656 226.574 13.5566 226.742 13.3926C226.914 13.2285 227.146 13.1465 227.439 13.1465C227.729 13.1465 227.959 13.2285 228.131 13.3926C228.303 13.5566 228.389 13.7656 228.389 14.0195C228.389 14.2773 228.301 14.4883 228.125 14.6523C227.953 14.8164 227.725 14.8984 227.439 14.8984C227.154 14.8984 226.924 14.8164 226.748 14.6523C226.576 14.4883 226.49 14.2773 226.49 14.0195ZM231.717 14.1016V15.6602H232.801V16.9023H231.717V20.0664C231.717 20.3008 231.762 20.4688 231.852 20.5703C231.941 20.6719 232.113 20.7227 232.367 20.7227C232.555 20.7227 232.721 20.709 232.865 20.6816V21.9648C232.533 22.0664 232.191 22.1172 231.84 22.1172C230.652 22.1172 230.047 21.5176 230.023 20.3184V16.9023H229.098V15.6602H230.023V14.1016H231.717ZM237.418 22C237.34 21.8477 237.283 21.6582 237.248 21.4316C236.838 21.8887 236.305 22.1172 235.648 22.1172C235.027 22.1172 234.512 21.9375 234.102 21.5781C233.695 21.2188 233.492 20.7656 233.492 20.2188C233.492 19.5469 233.74 19.0312 234.236 18.6719C234.736 18.3125 235.457 18.1309 236.398 18.127H237.178V17.7637C237.178 17.4707 237.102 17.2363 236.949 17.0605C236.801 16.8848 236.564 16.7969 236.24 16.7969C235.955 16.7969 235.73 16.8652 235.566 17.002C235.406 17.1387 235.326 17.3262 235.326 17.5645H233.633C233.633 17.1973 233.746 16.8574 233.973 16.5449C234.199 16.2324 234.52 15.9883 234.934 15.8125C235.348 15.6328 235.812 15.543 236.328 15.543C237.109 15.543 237.729 15.7402 238.186 16.1348C238.646 16.5254 238.877 17.0762 238.877 17.7871V20.5352C238.881 21.1367 238.965 21.5918 239.129 21.9004V22H237.418ZM236.018 20.8223C236.268 20.8223 236.498 20.7676 236.709 20.6582C236.92 20.5449 237.076 20.3945 237.178 20.207V19.1172H236.545C235.697 19.1172 235.246 19.4102 235.191 19.9961L235.186 20.0957C235.186 20.3066 235.26 20.4805 235.408 20.6172C235.557 20.7539 235.76 20.8223 236.018 20.8223ZM243.611 20.248C243.611 20.041 243.508 19.8789 243.301 19.7617C243.098 19.6406 242.77 19.5332 242.316 19.4395C240.809 19.123 240.055 18.4824 240.055 17.5176C240.055 16.9551 240.287 16.4863 240.752 16.1113C241.221 15.7324 241.832 15.543 242.586 15.543C243.391 15.543 244.033 15.7324 244.514 16.1113C244.998 16.4902 245.24 16.9824 245.24 17.5879H243.547C243.547 17.3457 243.469 17.1465 243.312 16.9902C243.156 16.8301 242.912 16.75 242.58 16.75C242.295 16.75 242.074 16.8145 241.918 16.9434C241.762 17.0723 241.684 17.2363 241.684 17.4355C241.684 17.623 241.771 17.7754 241.947 17.8926C242.127 18.0059 242.428 18.1055 242.85 18.1914C243.271 18.2734 243.627 18.3672 243.916 18.4727C244.811 18.8008 245.258 19.3691 245.258 20.1777C245.258 20.7559 245.01 21.2246 244.514 21.584C244.018 21.9395 243.377 22.1172 242.592 22.1172C242.061 22.1172 241.588 22.0234 241.174 21.8359C240.764 21.6445 240.441 21.3848 240.207 21.0566C239.973 20.7246 239.855 20.3672 239.855 19.9844H241.461C241.477 20.2852 241.588 20.5156 241.795 20.6758C242.002 20.8359 242.279 20.916 242.627 20.916C242.951 20.916 243.195 20.8555 243.359 20.7344C243.527 20.6094 243.611 20.4473 243.611 20.248ZM256.203 20.9219C255.887 21.3008 255.439 21.5957 254.861 21.8066C254.283 22.0137 253.643 22.1172 252.939 22.1172C252.201 22.1172 251.553 21.957 250.994 21.6367C250.439 21.3125 250.01 20.8438 249.705 20.2305C249.404 19.6172 249.25 18.8965 249.242 18.0684V17.4883C249.242 16.6367 249.385 15.9004 249.67 15.2793C249.959 14.6543 250.373 14.1777 250.912 13.8496C251.455 13.5176 252.09 13.3516 252.816 13.3516C253.828 13.3516 254.619 13.5938 255.189 14.0781C255.76 14.5586 256.098 15.2598 256.203 16.1816H254.492C254.414 15.6934 254.24 15.3359 253.971 15.1094C253.705 14.8828 253.338 14.7695 252.869 14.7695C252.271 14.7695 251.816 14.9941 251.504 15.4434C251.191 15.8926 251.033 16.5605 251.029 17.4473V17.9922C251.029 18.8867 251.199 19.5625 251.539 20.0195C251.879 20.4766 252.377 20.7051 253.033 20.7051C253.693 20.7051 254.164 20.5645 254.445 20.2832V18.8125H252.846V17.5176H256.203V20.9219ZM261.318 21.3555C260.9 21.8633 260.322 22.1172 259.584 22.1172C258.904 22.1172 258.385 21.9219 258.025 21.5312C257.67 21.1406 257.488 20.5684 257.48 19.8145V15.6602H259.174V19.7559C259.174 20.416 259.475 20.7461 260.076 20.7461C260.65 20.7461 261.045 20.5469 261.26 20.1484V15.6602H262.959V22H261.365L261.318 21.3555ZM265.795 15.6602L265.848 16.3926C266.301 15.8262 266.908 15.543 267.67 15.543C268.342 15.543 268.842 15.7402 269.17 16.1348C269.498 16.5293 269.666 17.1191 269.674 17.9043V22H267.98V17.9453C267.98 17.5859 267.902 17.3262 267.746 17.166C267.59 17.002 267.33 16.9199 266.967 16.9199C266.49 16.9199 266.133 17.123 265.895 17.5293V22H264.201V15.6602H265.795ZM274.637 22C274.559 21.8477 274.502 21.6582 274.467 21.4316C274.057 21.8887 273.523 22.1172 272.867 22.1172C272.246 22.1172 271.73 21.9375 271.32 21.5781C270.914 21.2188 270.711 20.7656 270.711 20.2188C270.711 19.5469 270.959 19.0312 271.455 18.6719C271.955 18.3125 272.676 18.1309 273.617 18.127H274.396V17.7637C274.396 17.4707 274.32 17.2363 274.168 17.0605C274.02 16.8848 273.783 16.7969 273.459 16.7969C273.174 16.7969 272.949 16.8652 272.785 17.002C272.625 17.1387 272.545 17.3262 272.545 17.5645H270.852C270.852 17.1973 270.965 16.8574 271.191 16.5449C271.418 16.2324 271.738 15.9883 272.152 15.8125C272.566 15.6328 273.031 15.543 273.547 15.543C274.328 15.543 274.947 15.7402 275.404 16.1348C275.865 16.5254 276.096 17.0762 276.096 17.7871V20.5352C276.1 21.1367 276.184 21.5918 276.348 21.9004V22H274.637ZM273.236 20.8223C273.486 20.8223 273.717 20.7676 273.928 20.6582C274.139 20.5449 274.295 20.3945 274.396 20.207V19.1172H273.764C272.916 19.1172 272.465 19.4102 272.41 19.9961L272.404 20.0957C272.404 20.3066 272.479 20.4805 272.627 20.6172C272.775 20.7539 272.979 20.8223 273.236 20.8223ZM277.133 18.7832C277.133 17.7949 277.354 17.0078 277.795 16.4219C278.24 15.8359 278.848 15.543 279.617 15.543C280.234 15.543 280.744 15.7734 281.146 16.2344V13H282.846V22H281.316L281.234 21.3262C280.812 21.8535 280.27 22.1172 279.605 22.1172C278.859 22.1172 278.26 21.8242 277.807 21.2383C277.357 20.6484 277.133 19.8301 277.133 18.7832ZM278.826 18.9062C278.826 19.5 278.93 19.9551 279.137 20.2715C279.344 20.5879 279.645 20.7461 280.039 20.7461C280.562 20.7461 280.932 20.5254 281.146 20.084V17.582C280.936 17.1406 280.57 16.9199 280.051 16.9199C279.234 16.9199 278.826 17.582 278.826 18.9062ZM287.832 22C287.754 21.8477 287.697 21.6582 287.662 21.4316C287.252 21.8887 286.719 22.1172 286.062 22.1172C285.441 22.1172 284.926 21.9375 284.516 21.5781C284.109 21.2188 283.906 20.7656 283.906 20.2188C283.906 19.5469 284.154 19.0312 284.65 18.6719C285.15 18.3125 285.871 18.1309 286.812 18.127H287.592V17.7637C287.592 17.4707 287.516 17.2363 287.363 17.0605C287.215 16.8848 286.979 16.7969 286.654 16.7969C286.369 16.7969 286.145 16.8652 285.98 17.002C285.82 17.1387 285.74 17.3262 285.74 17.5645H284.047C284.047 17.1973 284.16 16.8574 284.387 16.5449C284.613 16.2324 284.934 15.9883 285.348 15.8125C285.762 15.6328 286.227 15.543 286.742 15.543C287.523 15.543 288.143 15.7402 288.6 16.1348C289.061 16.5254 289.291 17.0762 289.291 17.7871V20.5352C289.295 21.1367 289.379 21.5918 289.543 21.9004V22H287.832ZM286.432 20.8223C286.682 20.8223 286.912 20.7676 287.123 20.6582C287.334 20.5449 287.49 20.3945 287.592 20.207V19.1172H286.959C286.111 19.1172 285.66 19.4102 285.605 19.9961L285.6 20.0957C285.6 20.3066 285.674 20.4805 285.822 20.6172C285.971 20.7539 286.174 20.8223 286.432 20.8223ZM294.154 17.248C293.924 17.2168 293.721 17.2012 293.545 17.2012C292.904 17.2012 292.484 17.418 292.285 17.8516V22H290.592V15.6602H292.191L292.238 16.416C292.578 15.834 293.049 15.543 293.65 15.543C293.838 15.543 294.014 15.5684 294.178 15.6191L294.154 17.248ZM296.562 15.6602L296.615 16.3691C297.064 15.8184 297.672 15.543 298.438 15.543C299.254 15.543 299.814 15.8652 300.119 16.5098C300.564 15.8652 301.199 15.543 302.023 15.543C302.711 15.543 303.223 15.7441 303.559 16.1465C303.895 16.5449 304.062 17.1465 304.062 17.9512V22H302.363V17.957C302.363 17.5977 302.293 17.3359 302.152 17.1719C302.012 17.0039 301.764 16.9199 301.408 16.9199C300.9 16.9199 300.549 17.1621 300.354 17.6465L300.359 22H298.666V17.9629C298.666 17.5957 298.594 17.3301 298.449 17.166C298.305 17.002 298.059 16.9199 297.711 16.9199C297.23 16.9199 296.883 17.1191 296.668 17.5176V22H294.975V15.6602H296.562ZM309.043 22C308.965 21.8477 308.908 21.6582 308.873 21.4316C308.463 21.8887 307.93 22.1172 307.273 22.1172C306.652 22.1172 306.137 21.9375 305.727 21.5781C305.32 21.2188 305.117 20.7656 305.117 20.2188C305.117 19.5469 305.365 19.0312 305.861 18.6719C306.361 18.3125 307.082 18.1309 308.023 18.127H308.803V17.7637C308.803 17.4707 308.727 17.2363 308.574 17.0605C308.426 16.8848 308.189 16.7969 307.865 16.7969C307.58 16.7969 307.355 16.8652 307.191 17.002C307.031 17.1387 306.951 17.3262 306.951 17.5645H305.258C305.258 17.1973 305.371 16.8574 305.598 16.5449C305.824 16.2324 306.145 15.9883 306.559 15.8125C306.973 15.6328 307.438 15.543 307.953 15.543C308.734 15.543 309.354 15.7402 309.811 16.1348C310.271 16.5254 310.502 17.0762 310.502 17.7871V20.5352C310.506 21.1367 310.59 21.5918 310.754 21.9004V22H309.043ZM307.643 20.8223C307.893 20.8223 308.123 20.7676 308.334 20.6582C308.545 20.5449 308.701 20.3945 308.803 20.207V19.1172H308.17C307.322 19.1172 306.871 19.4102 306.816 19.9961L306.811 20.0957C306.811 20.3066 306.885 20.4805 307.033 20.6172C307.182 20.7539 307.385 20.8223 307.643 20.8223Z" fill="#ECC8FF"/>
<path d="M190.249 44H185.591V43.3506L188.052 40.6162C188.416 40.2028 188.667 39.8675 188.804 39.6104C188.944 39.3499 189.014 39.0814 189.014 38.8047C189.014 38.4336 188.901 38.1292 188.677 37.8916C188.452 37.654 188.153 37.5352 187.778 37.5352C187.329 37.5352 186.979 37.6637 186.729 37.9209C186.481 38.1748 186.357 38.5296 186.357 38.9854H185.454C185.454 38.3311 185.664 37.8021 186.084 37.3984C186.507 36.9948 187.072 36.793 187.778 36.793C188.439 36.793 188.962 36.9671 189.346 37.3154C189.73 37.6605 189.922 38.1211 189.922 38.6973C189.922 39.3971 189.476 40.2305 188.584 41.1973L186.68 43.2627H190.249V44ZM195.664 40.9678C195.664 42.0257 195.483 42.8118 195.122 43.3262C194.761 43.8405 194.196 44.0977 193.428 44.0977C192.669 44.0977 192.108 43.847 191.743 43.3457C191.379 42.8411 191.19 42.0892 191.177 41.0898V39.8838C191.177 38.8389 191.357 38.0625 191.719 37.5547C192.08 37.0469 192.646 36.793 193.418 36.793C194.183 36.793 194.746 37.0387 195.107 37.5303C195.469 38.0186 195.654 38.7738 195.664 39.7959V40.9678ZM194.761 39.7324C194.761 38.9674 194.653 38.4108 194.438 38.0625C194.224 37.7109 193.883 37.5352 193.418 37.5352C192.956 37.5352 192.619 37.7093 192.407 38.0576C192.196 38.4059 192.087 38.9414 192.08 39.6641V41.1094C192.08 41.8776 192.191 42.4456 192.412 42.8135C192.637 43.1781 192.975 43.3604 193.428 43.3604C193.874 43.3604 194.204 43.1878 194.419 42.8428C194.637 42.4977 194.751 41.9541 194.761 41.2119V39.7324ZM199.79 44H198.882V37.9795L197.061 38.6484V37.8281L199.648 36.8564H199.79V44ZM205.898 40.875C205.71 41.0996 205.483 41.2803 205.22 41.417C204.959 41.5537 204.673 41.6221 204.36 41.6221C203.95 41.6221 203.592 41.5212 203.286 41.3193C202.983 41.1175 202.749 40.8343 202.583 40.4697C202.417 40.1019 202.334 39.6966 202.334 39.2539C202.334 38.7786 202.424 38.3506 202.603 37.9697C202.785 37.5889 203.042 37.2975 203.374 37.0957C203.706 36.8939 204.093 36.793 204.536 36.793C205.239 36.793 205.793 37.0566 206.196 37.584C206.603 38.1081 206.807 38.8242 206.807 39.7324V39.9961C206.807 41.3796 206.533 42.3903 205.986 43.0283C205.439 43.6631 204.614 43.9886 203.511 44.0049H203.335V43.2432H203.525C204.271 43.2301 204.844 43.0365 205.244 42.6621C205.645 42.2845 205.863 41.6888 205.898 40.875ZM204.507 40.875C204.81 40.875 205.088 40.7822 205.342 40.5967C205.599 40.4111 205.786 40.1816 205.903 39.9082V39.5469C205.903 38.9544 205.775 38.4727 205.518 38.1016C205.26 37.7305 204.935 37.5449 204.541 37.5449C204.144 37.5449 203.825 37.6979 203.584 38.0039C203.343 38.3066 203.223 38.707 203.223 39.2051C203.223 39.6901 203.338 40.0905 203.569 40.4062C203.804 40.7188 204.116 40.875 204.507 40.875ZM212.505 41.3486H210.122V40.6113H212.505V41.3486ZM220.435 44H215.776V43.3506L218.237 40.6162C218.602 40.2028 218.853 39.8675 218.989 39.6104C219.129 39.3499 219.199 39.0814 219.199 38.8047C219.199 38.4336 219.087 38.1292 218.862 37.8916C218.638 37.654 218.338 37.5352 217.964 37.5352C217.515 37.5352 217.165 37.6637 216.914 37.9209C216.667 38.1748 216.543 38.5296 216.543 38.9854H215.64C215.64 38.3311 215.85 37.8021 216.27 37.3984C216.693 36.9948 217.257 36.793 217.964 36.793C218.625 36.793 219.147 36.9671 219.531 37.3154C219.915 37.6605 220.107 38.1211 220.107 38.6973C220.107 39.3971 219.661 40.2305 218.77 41.1973L216.865 43.2627H220.435V44ZM225.85 40.9678C225.85 42.0257 225.669 42.8118 225.308 43.3262C224.946 43.8405 224.382 44.0977 223.613 44.0977C222.855 44.0977 222.293 43.847 221.929 43.3457C221.564 42.8411 221.375 42.0892 221.362 41.0898V39.8838C221.362 38.8389 221.543 38.0625 221.904 37.5547C222.266 37.0469 222.832 36.793 223.604 36.793C224.368 36.793 224.932 37.0387 225.293 37.5303C225.654 38.0186 225.84 38.7738 225.85 39.7959V40.9678ZM224.946 39.7324C224.946 38.9674 224.839 38.4108 224.624 38.0625C224.409 37.7109 224.069 37.5352 223.604 37.5352C223.141 37.5352 222.804 37.7093 222.593 38.0576C222.381 38.4059 222.272 38.9414 222.266 39.6641V41.1094C222.266 41.8776 222.376 42.4456 222.598 42.8135C222.822 43.1781 223.161 43.3604 223.613 43.3604C224.059 43.3604 224.39 43.1878 224.604 42.8428C224.823 42.4977 224.937 41.9541 224.946 41.2119V39.7324ZM231.665 44H227.007V43.3506L229.468 40.6162C229.832 40.2028 230.083 39.8675 230.22 39.6104C230.36 39.3499 230.43 39.0814 230.43 38.8047C230.43 38.4336 230.317 38.1292 230.093 37.8916C229.868 37.654 229.569 37.5352 229.194 37.5352C228.745 37.5352 228.395 37.6637 228.145 37.9209C227.897 38.1748 227.773 38.5296 227.773 38.9854H226.87C226.87 38.3311 227.08 37.8021 227.5 37.3984C227.923 36.9948 228.488 36.793 229.194 36.793C229.855 36.793 230.378 36.9671 230.762 37.3154C231.146 37.6605 231.338 38.1211 231.338 38.6973C231.338 39.3971 230.892 40.2305 230 41.1973L228.096 43.2627H231.665V44ZM233.936 40.0059H234.614C235.041 39.9993 235.376 39.887 235.62 39.6689C235.864 39.4508 235.986 39.1562 235.986 38.7852C235.986 37.9518 235.571 37.5352 234.741 37.5352C234.351 37.5352 234.038 37.6475 233.804 37.8721C233.573 38.0934 233.457 38.388 233.457 38.7559H232.554C232.554 38.1927 232.759 37.7256 233.169 37.3545C233.582 36.9801 234.106 36.793 234.741 36.793C235.412 36.793 235.938 36.9704 236.318 37.3252C236.699 37.68 236.89 38.1732 236.89 38.8047C236.89 39.1139 236.789 39.4134 236.587 39.7031C236.388 39.9928 236.117 40.2093 235.771 40.3525C236.162 40.4762 236.463 40.6813 236.675 40.9678C236.89 41.2542 236.997 41.6042 236.997 42.0176C236.997 42.6556 236.789 43.1618 236.372 43.5361C235.955 43.9105 235.413 44.0977 234.746 44.0977C234.079 44.0977 233.535 43.917 233.115 43.5557C232.699 43.1943 232.49 42.7174 232.49 42.125H233.398C233.398 42.4993 233.521 42.7988 233.765 43.0234C234.009 43.248 234.336 43.3604 234.746 43.3604C235.182 43.3604 235.516 43.2464 235.747 43.0186C235.978 42.7907 236.094 42.4635 236.094 42.0371C236.094 41.6237 235.967 41.3063 235.713 41.085C235.459 40.8636 235.093 40.7497 234.614 40.7432H233.936V40.0059Z" fill="#ECC8FF"/>
<path d="M163 178C163 180.761 160.761 183 158 183C155.239 183 153 180.761 153 178C153 175.239 155.239 173 158 173C160.761 173 163 175.239 163 178Z" fill="#3282B8"/>
<rect x="175" y="148" width="147" height="60" rx="13" fill="#3282B8"/>
<path d="M189.186 167.762C189.186 167.43 189.068 167.176 188.834 167C188.6 166.82 188.178 166.633 187.568 166.438C186.959 166.238 186.477 166.043 186.121 165.852C185.152 165.328 184.668 164.623 184.668 163.736C184.668 163.275 184.797 162.865 185.055 162.506C185.316 162.143 185.689 161.859 186.174 161.656C186.662 161.453 187.209 161.352 187.814 161.352C188.424 161.352 188.967 161.463 189.443 161.686C189.92 161.904 190.289 162.215 190.551 162.617C190.816 163.02 190.949 163.477 190.949 163.988H189.191C189.191 163.598 189.068 163.295 188.822 163.08C188.576 162.861 188.23 162.752 187.785 162.752C187.355 162.752 187.021 162.844 186.783 163.027C186.545 163.207 186.426 163.445 186.426 163.742C186.426 164.02 186.564 164.252 186.842 164.439C187.123 164.627 187.535 164.803 188.078 164.967C189.078 165.268 189.807 165.641 190.264 166.086C190.721 166.531 190.949 167.086 190.949 167.75C190.949 168.488 190.67 169.068 190.111 169.49C189.553 169.908 188.801 170.117 187.855 170.117C187.199 170.117 186.602 169.998 186.062 169.76C185.523 169.518 185.111 169.188 184.826 168.77C184.545 168.352 184.404 167.867 184.404 167.316H186.168C186.168 168.258 186.73 168.729 187.855 168.729C188.273 168.729 188.6 168.645 188.834 168.477C189.068 168.305 189.186 168.066 189.186 167.762ZM194.441 161.469L196.633 167.656L198.812 161.469H201.121V170H199.357V167.668L199.533 163.643L197.23 170H196.023L193.727 163.648L193.902 167.668V170H192.145V161.469H194.441ZM204.414 166.994V170H202.656V161.469H205.984C206.625 161.469 207.188 161.586 207.672 161.82C208.16 162.055 208.535 162.389 208.797 162.822C209.059 163.252 209.189 163.742 209.189 164.293C209.189 165.129 208.902 165.789 208.328 166.273C207.758 166.754 206.967 166.994 205.955 166.994H204.414ZM204.414 165.57H205.984C206.449 165.57 206.803 165.461 207.045 165.242C207.291 165.023 207.414 164.711 207.414 164.305C207.414 163.887 207.291 163.549 207.045 163.291C206.799 163.033 206.459 162.9 206.025 162.893H204.414V165.57ZM220.088 167.158C220.021 168.076 219.682 168.799 219.068 169.326C218.459 169.854 217.654 170.117 216.654 170.117C215.561 170.117 214.699 169.75 214.07 169.016C213.445 168.277 213.133 167.266 213.133 165.98V165.459C213.133 164.639 213.277 163.916 213.566 163.291C213.855 162.666 214.268 162.188 214.803 161.855C215.342 161.52 215.967 161.352 216.678 161.352C217.662 161.352 218.455 161.615 219.057 162.143C219.658 162.67 220.006 163.41 220.1 164.363H218.342C218.299 163.812 218.145 163.414 217.879 163.168C217.617 162.918 217.217 162.793 216.678 162.793C216.092 162.793 215.652 163.004 215.359 163.426C215.07 163.844 214.922 164.494 214.914 165.377V166.021C214.914 166.943 215.053 167.617 215.33 168.043C215.611 168.469 216.053 168.682 216.654 168.682C217.197 168.682 217.602 168.559 217.867 168.312C218.137 168.062 218.291 167.678 218.33 167.158H220.088ZM222.918 170H221.219V163.66H222.918V170ZM221.119 162.02C221.119 161.766 221.203 161.557 221.371 161.393C221.543 161.229 221.775 161.146 222.068 161.146C222.357 161.146 222.588 161.229 222.76 161.393C222.932 161.557 223.018 161.766 223.018 162.02C223.018 162.277 222.93 162.488 222.754 162.652C222.582 162.816 222.354 162.898 222.068 162.898C221.783 162.898 221.553 162.816 221.377 162.652C221.205 162.488 221.119 162.277 221.119 162.02ZM226.346 162.102V163.66H227.43V164.902H226.346V168.066C226.346 168.301 226.391 168.469 226.48 168.57C226.57 168.672 226.742 168.723 226.996 168.723C227.184 168.723 227.35 168.709 227.494 168.682V169.965C227.162 170.066 226.82 170.117 226.469 170.117C225.281 170.117 224.676 169.518 224.652 168.318V164.902H223.727V163.66H224.652V162.102H226.346ZM231.936 165.248C231.705 165.217 231.502 165.201 231.326 165.201C230.686 165.201 230.266 165.418 230.066 165.852V170H228.373V163.66H229.973L230.02 164.416C230.359 163.834 230.83 163.543 231.432 163.543C231.619 163.543 231.795 163.568 231.959 163.619L231.936 165.248ZM236.254 170C236.176 169.848 236.119 169.658 236.084 169.432C235.674 169.889 235.141 170.117 234.484 170.117C233.863 170.117 233.348 169.938 232.938 169.578C232.531 169.219 232.328 168.766 232.328 168.219C232.328 167.547 232.576 167.031 233.072 166.672C233.572 166.312 234.293 166.131 235.234 166.127H236.014V165.764C236.014 165.471 235.938 165.236 235.785 165.061C235.637 164.885 235.4 164.797 235.076 164.797C234.791 164.797 234.566 164.865 234.402 165.002C234.242 165.139 234.162 165.326 234.162 165.564H232.469C232.469 165.197 232.582 164.857 232.809 164.545C233.035 164.232 233.355 163.988 233.77 163.812C234.184 163.633 234.648 163.543 235.164 163.543C235.945 163.543 236.564 163.74 237.021 164.135C237.482 164.525 237.713 165.076 237.713 165.787V168.535C237.717 169.137 237.801 169.592 237.965 169.9V170H236.254ZM234.854 168.822C235.104 168.822 235.334 168.768 235.545 168.658C235.756 168.545 235.912 168.395 236.014 168.207V167.117H235.381C234.533 167.117 234.082 167.41 234.027 167.996L234.021 168.096C234.021 168.307 234.096 168.48 234.244 168.617C234.393 168.754 234.596 168.822 234.854 168.822ZM249.051 170H247.293L243.871 164.387V170H242.113V161.469H243.871L247.299 167.094V161.469H249.051V170ZM254.271 169.355C253.854 169.863 253.275 170.117 252.537 170.117C251.857 170.117 251.338 169.922 250.979 169.531C250.623 169.141 250.441 168.568 250.434 167.814V163.66H252.127V167.756C252.127 168.416 252.428 168.746 253.029 168.746C253.604 168.746 253.998 168.547 254.213 168.148V163.66H255.912V170H254.318L254.271 169.355ZM260.623 168.248C260.623 168.041 260.52 167.879 260.312 167.762C260.109 167.641 259.781 167.533 259.328 167.439C257.82 167.123 257.066 166.482 257.066 165.518C257.066 164.955 257.299 164.486 257.764 164.111C258.232 163.732 258.844 163.543 259.598 163.543C260.402 163.543 261.045 163.732 261.525 164.111C262.01 164.49 262.252 164.982 262.252 165.588H260.559C260.559 165.346 260.48 165.146 260.324 164.99C260.168 164.83 259.924 164.75 259.592 164.75C259.307 164.75 259.086 164.814 258.93 164.943C258.773 165.072 258.695 165.236 258.695 165.436C258.695 165.623 258.783 165.775 258.959 165.893C259.139 166.006 259.439 166.105 259.861 166.191C260.283 166.273 260.639 166.367 260.928 166.473C261.822 166.801 262.27 167.369 262.27 168.178C262.27 168.756 262.021 169.225 261.525 169.584C261.029 169.939 260.389 170.117 259.604 170.117C259.072 170.117 258.6 170.023 258.186 169.836C257.775 169.645 257.453 169.385 257.219 169.057C256.984 168.725 256.867 168.367 256.867 167.984H258.473C258.488 168.285 258.6 168.516 258.807 168.676C259.014 168.836 259.291 168.916 259.639 168.916C259.963 168.916 260.207 168.855 260.371 168.734C260.539 168.609 260.623 168.447 260.623 168.248ZM267.039 170C266.961 169.848 266.904 169.658 266.869 169.432C266.459 169.889 265.926 170.117 265.27 170.117C264.648 170.117 264.133 169.938 263.723 169.578C263.316 169.219 263.113 168.766 263.113 168.219C263.113 167.547 263.361 167.031 263.857 166.672C264.357 166.312 265.078 166.131 266.02 166.127H266.799V165.764C266.799 165.471 266.723 165.236 266.57 165.061C266.422 164.885 266.186 164.797 265.861 164.797C265.576 164.797 265.352 164.865 265.188 165.002C265.027 165.139 264.947 165.326 264.947 165.564H263.254C263.254 165.197 263.367 164.857 263.594 164.545C263.82 164.232 264.141 163.988 264.555 163.812C264.969 163.633 265.434 163.543 265.949 163.543C266.73 163.543 267.35 163.74 267.807 164.135C268.268 164.525 268.498 165.076 268.498 165.787V168.535C268.502 169.137 268.586 169.592 268.75 169.9V170H267.039ZM265.639 168.822C265.889 168.822 266.119 168.768 266.33 168.658C266.541 168.545 266.697 168.395 266.799 168.207V167.117H266.166C265.318 167.117 264.867 167.41 264.812 167.996L264.807 168.096C264.807 168.307 264.881 168.48 265.029 168.617C265.178 168.754 265.381 168.822 265.639 168.822Z" fill="#BBE1FA"/>
<path d="M189.249 192H184.591V191.351L187.052 188.616C187.416 188.203 187.667 187.868 187.804 187.61C187.944 187.35 188.014 187.081 188.014 186.805C188.014 186.434 187.901 186.129 187.677 185.892C187.452 185.654 187.153 185.535 186.778 185.535C186.329 185.535 185.979 185.664 185.729 185.921C185.481 186.175 185.357 186.53 185.357 186.985H184.454C184.454 186.331 184.664 185.802 185.084 185.398C185.507 184.995 186.072 184.793 186.778 184.793C187.439 184.793 187.962 184.967 188.346 185.315C188.73 185.66 188.922 186.121 188.922 186.697C188.922 187.397 188.476 188.23 187.584 189.197L185.68 191.263H189.249V192ZM194.664 188.968C194.664 190.026 194.483 190.812 194.122 191.326C193.761 191.84 193.196 192.098 192.428 192.098C191.669 192.098 191.108 191.847 190.743 191.346C190.379 190.841 190.19 190.089 190.177 189.09V187.884C190.177 186.839 190.357 186.062 190.719 185.555C191.08 185.047 191.646 184.793 192.418 184.793C193.183 184.793 193.746 185.039 194.107 185.53C194.469 186.019 194.654 186.774 194.664 187.796V188.968ZM193.761 187.732C193.761 186.967 193.653 186.411 193.438 186.062C193.224 185.711 192.883 185.535 192.418 185.535C191.956 185.535 191.619 185.709 191.407 186.058C191.196 186.406 191.087 186.941 191.08 187.664V189.109C191.08 189.878 191.191 190.446 191.412 190.813C191.637 191.178 191.975 191.36 192.428 191.36C192.874 191.36 193.204 191.188 193.419 190.843C193.637 190.498 193.751 189.954 193.761 189.212V187.732ZM198.79 192H197.882V185.979L196.061 186.648V185.828L198.648 184.856H198.79V192ZM202.75 188.006H203.429C203.855 187.999 204.19 187.887 204.435 187.669C204.679 187.451 204.801 187.156 204.801 186.785C204.801 185.952 204.386 185.535 203.556 185.535C203.165 185.535 202.853 185.647 202.618 185.872C202.387 186.093 202.271 186.388 202.271 186.756H201.368C201.368 186.193 201.573 185.726 201.983 185.354C202.397 184.98 202.921 184.793 203.556 184.793C204.226 184.793 204.752 184.97 205.133 185.325C205.514 185.68 205.704 186.173 205.704 186.805C205.704 187.114 205.603 187.413 205.401 187.703C205.203 187.993 204.931 188.209 204.586 188.353C204.977 188.476 205.278 188.681 205.489 188.968C205.704 189.254 205.812 189.604 205.812 190.018C205.812 190.656 205.603 191.162 205.187 191.536C204.77 191.91 204.228 192.098 203.561 192.098C202.893 192.098 202.35 191.917 201.93 191.556C201.513 191.194 201.305 190.717 201.305 190.125H202.213C202.213 190.499 202.335 190.799 202.579 191.023C202.823 191.248 203.15 191.36 203.561 191.36C203.997 191.36 204.33 191.246 204.562 191.019C204.793 190.791 204.908 190.464 204.908 190.037C204.908 189.624 204.781 189.306 204.527 189.085C204.273 188.864 203.907 188.75 203.429 188.743H202.75V188.006ZM211.505 189.349H209.122V188.611H211.505V189.349ZM219.435 192H214.776V191.351L217.237 188.616C217.602 188.203 217.853 187.868 217.989 187.61C218.129 187.35 218.199 187.081 218.199 186.805C218.199 186.434 218.087 186.129 217.862 185.892C217.638 185.654 217.338 185.535 216.964 185.535C216.515 185.535 216.165 185.664 215.914 185.921C215.667 186.175 215.543 186.53 215.543 186.985H214.64C214.64 186.331 214.85 185.802 215.27 185.398C215.693 184.995 216.257 184.793 216.964 184.793C217.625 184.793 218.147 184.967 218.531 185.315C218.915 185.66 219.107 186.121 219.107 186.697C219.107 187.397 218.661 188.23 217.77 189.197L215.865 191.263H219.435V192ZM224.85 188.968C224.85 190.026 224.669 190.812 224.308 191.326C223.946 191.84 223.382 192.098 222.613 192.098C221.855 192.098 221.293 191.847 220.929 191.346C220.564 190.841 220.375 190.089 220.362 189.09V187.884C220.362 186.839 220.543 186.062 220.904 185.555C221.266 185.047 221.832 184.793 222.604 184.793C223.368 184.793 223.932 185.039 224.293 185.53C224.654 186.019 224.84 186.774 224.85 187.796V188.968ZM223.946 187.732C223.946 186.967 223.839 186.411 223.624 186.062C223.409 185.711 223.069 185.535 222.604 185.535C222.141 185.535 221.804 185.709 221.593 186.058C221.381 186.406 221.272 186.941 221.266 187.664V189.109C221.266 189.878 221.376 190.446 221.598 190.813C221.822 191.178 222.161 191.36 222.613 191.36C223.059 191.36 223.39 191.188 223.604 190.843C223.823 190.498 223.937 189.954 223.946 189.212V187.732ZM228.976 192H228.067V185.979L226.246 186.648V185.828L228.834 184.856H228.976V192ZM235.167 184.886V185.652H235.001C234.298 185.665 233.738 185.874 233.321 186.277C232.905 186.681 232.664 187.249 232.599 187.981C232.973 187.552 233.484 187.337 234.132 187.337C234.75 187.337 235.243 187.555 235.611 187.991C235.982 188.427 236.168 188.991 236.168 189.681C236.168 190.413 235.968 190.999 235.567 191.438C235.17 191.878 234.636 192.098 233.966 192.098C233.285 192.098 232.734 191.837 232.311 191.316C231.887 190.792 231.676 190.118 231.676 189.295V188.948C231.676 187.64 231.954 186.64 232.511 185.95C233.071 185.257 233.902 184.902 235.006 184.886H235.167ZM233.98 188.089C233.671 188.089 233.386 188.182 233.126 188.367C232.866 188.553 232.685 188.785 232.584 189.065V189.397C232.584 189.983 232.716 190.455 232.979 190.813C233.243 191.172 233.572 191.351 233.966 191.351C234.373 191.351 234.692 191.201 234.923 190.901C235.157 190.602 235.274 190.21 235.274 189.725C235.274 189.236 235.156 188.842 234.918 188.543C234.684 188.24 234.371 188.089 233.98 188.089Z" fill="#BBE1FA"/>
<path d="M163 111C163 113.761 160.761 116 158 116C155.239 116 153 113.761 153 111C153 108.239 155.239 106 158 106C160.761 106 163 108.239 163 111Z" fill="#BBE1FA"/>
<rect y="77" width="141" height="66" rx="13" fill="#BBE1FA"/>
<path d="M29.7793 97.7617C29.7793 97.4297 29.6621 97.1758 29.4277 97C29.1934 96.8203 28.7715 96.6328 28.1621 96.4375C27.5527 96.2383 27.0703 96.043 26.7148 95.8516C25.7461 95.3281 25.2617 94.623 25.2617 93.7363C25.2617 93.2754 25.3906 92.8652 25.6484 92.5059C25.9102 92.1426 26.2832 91.8594 26.7676 91.6562C27.2559 91.4531 27.8027 91.3516 28.4082 91.3516C29.0176 91.3516 29.5605 91.4629 30.0371 91.6855C30.5137 91.9043 30.8828 92.2148 31.1445 92.6172C31.4102 93.0195 31.543 93.4766 31.543 93.9883H29.7852C29.7852 93.5977 29.6621 93.2949 29.416 93.0801C29.1699 92.8613 28.8242 92.752 28.3789 92.752C27.9492 92.752 27.6152 92.8438 27.377 93.0273C27.1387 93.207 27.0195 93.4453 27.0195 93.7422C27.0195 94.0195 27.1582 94.252 27.4355 94.4395C27.7168 94.627 28.1289 94.8027 28.6719 94.9668C29.6719 95.2676 30.4004 95.6406 30.8574 96.0859C31.3145 96.5312 31.543 97.0859 31.543 97.75C31.543 98.4883 31.2637 99.0684 30.7051 99.4902C30.1465 99.9082 29.3945 100.117 28.4492 100.117C27.793 100.117 27.1953 99.998 26.6562 99.7598C26.1172 99.5176 25.7051 99.1875 25.4199 98.7695C25.1387 98.3516 24.998 97.8672 24.998 97.3164H26.7617C26.7617 98.2578 27.3242 98.7285 28.4492 98.7285C28.8672 98.7285 29.1934 98.6445 29.4277 98.4766C29.6621 98.3047 29.7793 98.0664 29.7793 97.7617ZM35.0352 91.4688L37.2266 97.6562L39.4062 91.4688H41.7148V100H39.9512V97.668L40.127 93.6426L37.8242 100H36.6172L34.3203 93.6484L34.4961 97.668V100H32.7383V91.4688H35.0352ZM45.9219 96.5781L45.0078 97.5625V100H43.25V91.4688H45.0078V95.3359L45.7812 94.2754L47.9551 91.4688H50.1172L47.0879 95.2598L50.2051 100H48.1133L45.9219 96.5781ZM53.8555 100V91.4688H56.8438C57.8789 91.4688 58.6641 91.668 59.1992 92.0664C59.7344 92.4609 60.002 93.041 60.002 93.8066C60.002 94.2246 59.8945 94.5938 59.6797 94.9141C59.4648 95.2305 59.166 95.4629 58.7832 95.6113C59.2207 95.7207 59.5645 95.9414 59.8145 96.2734C60.0684 96.6055 60.1953 97.0117 60.1953 97.4922C60.1953 98.3125 59.9336 98.9336 59.4102 99.3555C58.8867 99.7773 58.1406 99.9922 57.1719 100H53.8555ZM55.6133 96.2852V98.5879H57.1191C57.5332 98.5879 57.8555 98.4902 58.0859 98.2949C58.3203 98.0957 58.4375 97.8223 58.4375 97.4746C58.4375 96.6934 58.0332 96.2969 57.2246 96.2852H55.6133ZM55.6133 95.043H56.9141C57.8008 95.0273 58.2441 94.6738 58.2441 93.9824C58.2441 93.5957 58.1309 93.3184 57.9043 93.1504C57.6816 92.9785 57.3281 92.8926 56.8438 92.8926H55.6133V95.043ZM65.082 100C65.0039 99.8477 64.9473 99.6582 64.9121 99.4316C64.502 99.8887 63.9688 100.117 63.3125 100.117C62.6914 100.117 62.1758 99.9375 61.7656 99.5781C61.3594 99.2188 61.1562 98.7656 61.1562 98.2188C61.1562 97.5469 61.4043 97.0312 61.9004 96.6719C62.4004 96.3125 63.1211 96.1309 64.0625 96.127H64.8418V95.7637C64.8418 95.4707 64.7656 95.2363 64.6133 95.0605C64.4648 94.8848 64.2285 94.7969 63.9043 94.7969C63.6191 94.7969 63.3945 94.8652 63.2305 95.002C63.0703 95.1387 62.9902 95.3262 62.9902 95.5645H61.2969C61.2969 95.1973 61.4102 94.8574 61.6367 94.5449C61.8633 94.2324 62.1836 93.9883 62.5977 93.8125C63.0117 93.6328 63.4766 93.543 63.9922 93.543C64.7734 93.543 65.3926 93.7402 65.8496 94.1348C66.3105 94.5254 66.541 95.0762 66.541 95.7871V98.5352C66.5449 99.1367 66.6289 99.5918 66.793 99.9004V100H65.082ZM63.6816 98.8223C63.9316 98.8223 64.1621 98.7676 64.373 98.6582C64.584 98.5449 64.7402 98.3945 64.8418 98.207V97.1172H64.209C63.3613 97.1172 62.9102 97.4102 62.8555 97.9961L62.8496 98.0957C62.8496 98.3066 62.9238 98.4805 63.0723 98.6172C63.2207 98.7539 63.4238 98.8223 63.6816 98.8223ZM69.4004 93.6602L69.4531 94.3926C69.9062 93.8262 70.5137 93.543 71.2754 93.543C71.9473 93.543 72.4473 93.7402 72.7754 94.1348C73.1035 94.5293 73.2715 95.1191 73.2793 95.9043V100H71.5859V95.9453C71.5859 95.5859 71.5078 95.3262 71.3516 95.166C71.1953 95.002 70.9355 94.9199 70.5723 94.9199C70.0957 94.9199 69.7383 95.123 69.5 95.5293V100H67.8066V93.6602H69.4004ZM74.3223 96.7832C74.3223 95.8105 74.5527 95.0273 75.0137 94.4336C75.4785 93.8398 76.1035 93.543 76.8887 93.543C77.584 93.543 78.125 93.7812 78.5117 94.2578L78.582 93.6602H80.1172V99.7891C80.1172 100.344 79.9902 100.826 79.7363 101.236C79.4863 101.646 79.1328 101.959 78.6758 102.174C78.2188 102.389 77.6836 102.496 77.0703 102.496C76.6055 102.496 76.1523 102.402 75.7109 102.215C75.2695 102.031 74.9355 101.793 74.709 101.5L75.459 100.469C75.8809 100.941 76.3926 101.178 76.9941 101.178C77.4434 101.178 77.793 101.057 78.043 100.814C78.293 100.576 78.418 100.236 78.418 99.7949V99.4551C78.0273 99.8965 77.5137 100.117 76.877 100.117C76.1152 100.117 75.498 99.8203 75.0254 99.2266C74.5566 98.6289 74.3223 97.8379 74.3223 96.8535V96.7832ZM76.0156 96.9062C76.0156 97.4805 76.1309 97.9316 76.3613 98.2598C76.5918 98.584 76.9082 98.7461 77.3105 98.7461C77.8262 98.7461 78.1953 98.5527 78.418 98.166V95.5C78.1914 95.1133 77.8262 94.9199 77.3223 94.9199C76.916 94.9199 76.5957 95.0859 76.3613 95.418C76.1309 95.75 76.0156 96.2461 76.0156 96.9062ZM85.2207 99.3555C84.8027 99.8633 84.2246 100.117 83.4863 100.117C82.8066 100.117 82.2871 99.9219 81.9277 99.5312C81.5723 99.1406 81.3906 98.5684 81.3828 97.8145V93.6602H83.0762V97.7559C83.0762 98.416 83.377 98.7461 83.9785 98.7461C84.5527 98.7461 84.9473 98.5469 85.1621 98.1484V93.6602H86.8613V100H85.2676L85.2207 99.3555ZM89.6973 93.6602L89.75 94.3926C90.2031 93.8262 90.8105 93.543 91.5723 93.543C92.2441 93.543 92.7441 93.7402 93.0723 94.1348C93.4004 94.5293 93.5684 95.1191 93.5762 95.9043V100H91.8828V95.9453C91.8828 95.5859 91.8047 95.3262 91.6484 95.166C91.4922 95.002 91.2324 94.9199 90.8691 94.9199C90.3926 94.9199 90.0352 95.123 89.7969 95.5293V100H88.1035V93.6602H89.6973ZM104.902 100H103.145L99.7227 94.3867V100H97.9648V91.4688H99.7227L103.15 97.0938V91.4688H104.902V100ZM110.123 99.3555C109.705 99.8633 109.127 100.117 108.389 100.117C107.709 100.117 107.189 99.9219 106.83 99.5312C106.475 99.1406 106.293 98.5684 106.285 97.8145V93.6602H107.979V97.7559C107.979 98.416 108.279 98.7461 108.881 98.7461C109.455 98.7461 109.85 98.5469 110.064 98.1484V93.6602H111.764V100H110.17L110.123 99.3555ZM116.475 98.248C116.475 98.041 116.371 97.8789 116.164 97.7617C115.961 97.6406 115.633 97.5332 115.18 97.4395C113.672 97.123 112.918 96.4824 112.918 95.5176C112.918 94.9551 113.15 94.4863 113.615 94.1113C114.084 93.7324 114.695 93.543 115.449 93.543C116.254 93.543 116.896 93.7324 117.377 94.1113C117.861 94.4902 118.104 94.9824 118.104 95.5879H116.41C116.41 95.3457 116.332 95.1465 116.176 94.9902C116.02 94.8301 115.775 94.75 115.443 94.75C115.158 94.75 114.938 94.8145 114.781 94.9434C114.625 95.0723 114.547 95.2363 114.547 95.4355C114.547 95.623 114.635 95.7754 114.811 95.8926C114.99 96.0059 115.291 96.1055 115.713 96.1914C116.135 96.2734 116.49 96.3672 116.779 96.4727C117.674 96.8008 118.121 97.3691 118.121 98.1777C118.121 98.7559 117.873 99.2246 117.377 99.584C116.881 99.9395 116.24 100.117 115.455 100.117C114.924 100.117 114.451 100.023 114.037 99.8359C113.627 99.6445 113.305 99.3848 113.07 99.0566C112.836 98.7246 112.719 98.3672 112.719 97.9844H114.324C114.34 98.2852 114.451 98.5156 114.658 98.6758C114.865 98.8359 115.143 98.916 115.49 98.916C115.814 98.916 116.059 98.8555 116.223 98.7344C116.391 98.6094 116.475 98.4473 116.475 98.248ZM122.891 100C122.812 99.8477 122.756 99.6582 122.721 99.4316C122.311 99.8887 121.777 100.117 121.121 100.117C120.5 100.117 119.984 99.9375 119.574 99.5781C119.168 99.2188 118.965 98.7656 118.965 98.2188C118.965 97.5469 119.213 97.0312 119.709 96.6719C120.209 96.3125 120.93 96.1309 121.871 96.127H122.65V95.7637C122.65 95.4707 122.574 95.2363 122.422 95.0605C122.273 94.8848 122.037 94.7969 121.713 94.7969C121.428 94.7969 121.203 94.8652 121.039 95.002C120.879 95.1387 120.799 95.3262 120.799 95.5645H119.105C119.105 95.1973 119.219 94.8574 119.445 94.5449C119.672 94.2324 119.992 93.9883 120.406 93.8125C120.82 93.6328 121.285 93.543 121.801 93.543C122.582 93.543 123.201 93.7402 123.658 94.1348C124.119 94.5254 124.35 95.0762 124.35 95.7871V98.5352C124.354 99.1367 124.438 99.5918 124.602 99.9004V100H122.891ZM121.49 98.8223C121.74 98.8223 121.971 98.7676 122.182 98.6582C122.393 98.5449 122.549 98.3945 122.65 98.207V97.1172H122.018C121.17 97.1172 120.719 97.4102 120.664 97.9961L120.658 98.0957C120.658 98.3066 120.732 98.4805 120.881 98.6172C121.029 98.7539 121.232 98.8223 121.49 98.8223ZM85.4727 114V105.469H88.4609C89.4961 105.469 90.2812 105.668 90.8164 106.066C91.3516 106.461 91.6191 107.041 91.6191 107.807C91.6191 108.225 91.5117 108.594 91.2969 108.914C91.082 109.23 90.7832 109.463 90.4004 109.611C90.8379 109.721 91.1816 109.941 91.4316 110.273C91.6855 110.605 91.8125 111.012 91.8125 111.492C91.8125 112.312 91.5508 112.934 91.0273 113.355C90.5039 113.777 89.7578 113.992 88.7891 114H85.4727ZM87.2305 110.285V112.588H88.7363C89.1504 112.588 89.4727 112.49 89.7031 112.295C89.9375 112.096 90.0547 111.822 90.0547 111.475C90.0547 110.693 89.6504 110.297 88.8418 110.285H87.2305ZM87.2305 109.043H88.5312C89.418 109.027 89.8613 108.674 89.8613 107.982C89.8613 107.596 89.748 107.318 89.5215 107.15C89.2988 106.979 88.9453 106.893 88.4609 106.893H87.2305V109.043ZM96.6992 114C96.6211 113.848 96.5645 113.658 96.5293 113.432C96.1191 113.889 95.5859 114.117 94.9297 114.117C94.3086 114.117 93.793 113.938 93.3828 113.578C92.9766 113.219 92.7734 112.766 92.7734 112.219C92.7734 111.547 93.0215 111.031 93.5176 110.672C94.0176 110.312 94.7383 110.131 95.6797 110.127H96.459V109.764C96.459 109.471 96.3828 109.236 96.2305 109.061C96.082 108.885 95.8457 108.797 95.5215 108.797C95.2363 108.797 95.0117 108.865 94.8477 109.002C94.6875 109.139 94.6074 109.326 94.6074 109.564H92.9141C92.9141 109.197 93.0273 108.857 93.2539 108.545C93.4805 108.232 93.8008 107.988 94.2148 107.812C94.6289 107.633 95.0938 107.543 95.6094 107.543C96.3906 107.543 97.0098 107.74 97.4668 108.135C97.9277 108.525 98.1582 109.076 98.1582 109.787V112.535C98.1621 113.137 98.2461 113.592 98.4102 113.9V114H96.6992ZM95.2988 112.822C95.5488 112.822 95.7793 112.768 95.9902 112.658C96.2012 112.545 96.3574 112.395 96.459 112.207V111.117H95.8262C94.9785 111.117 94.5273 111.41 94.4727 111.996L94.4668 112.096C94.4668 112.307 94.541 112.48 94.6895 112.617C94.8379 112.754 95.041 112.822 95.2988 112.822ZM101.018 107.66L101.07 108.393C101.523 107.826 102.131 107.543 102.893 107.543C103.564 107.543 104.064 107.74 104.393 108.135C104.721 108.529 104.889 109.119 104.896 109.904V114H103.203V109.945C103.203 109.586 103.125 109.326 102.969 109.166C102.812 109.002 102.553 108.92 102.189 108.92C101.713 108.92 101.355 109.123 101.117 109.529V114H99.4238V107.66H101.018ZM105.939 110.783C105.939 109.811 106.17 109.027 106.631 108.434C107.096 107.84 107.721 107.543 108.506 107.543C109.201 107.543 109.742 107.781 110.129 108.258L110.199 107.66H111.734V113.789C111.734 114.344 111.607 114.826 111.354 115.236C111.104 115.646 110.75 115.959 110.293 116.174C109.836 116.389 109.301 116.496 108.688 116.496C108.223 116.496 107.77 116.402 107.328 116.215C106.887 116.031 106.553 115.793 106.326 115.5L107.076 114.469C107.498 114.941 108.01 115.178 108.611 115.178C109.061 115.178 109.41 115.057 109.66 114.814C109.91 114.576 110.035 114.236 110.035 113.795V113.455C109.645 113.896 109.131 114.117 108.494 114.117C107.732 114.117 107.115 113.82 106.643 113.227C106.174 112.629 105.939 111.838 105.939 110.854V110.783ZM107.633 110.906C107.633 111.48 107.748 111.932 107.979 112.26C108.209 112.584 108.525 112.746 108.928 112.746C109.443 112.746 109.812 112.553 110.035 112.166V109.5C109.809 109.113 109.443 108.92 108.939 108.92C108.533 108.92 108.213 109.086 107.979 109.418C107.748 109.75 107.633 110.246 107.633 110.906ZM116.475 112.248C116.475 112.041 116.371 111.879 116.164 111.762C115.961 111.641 115.633 111.533 115.18 111.439C113.672 111.123 112.918 110.482 112.918 109.518C112.918 108.955 113.15 108.486 113.615 108.111C114.084 107.732 114.695 107.543 115.449 107.543C116.254 107.543 116.896 107.732 117.377 108.111C117.861 108.49 118.104 108.982 118.104 109.588H116.41C116.41 109.346 116.332 109.146 116.176 108.99C116.02 108.83 115.775 108.75 115.443 108.75C115.158 108.75 114.938 108.814 114.781 108.943C114.625 109.072 114.547 109.236 114.547 109.436C114.547 109.623 114.635 109.775 114.811 109.893C114.99 110.006 115.291 110.105 115.713 110.191C116.135 110.273 116.49 110.367 116.779 110.473C117.674 110.801 118.121 111.369 118.121 112.178C118.121 112.756 117.873 113.225 117.377 113.584C116.881 113.939 116.24 114.117 115.455 114.117C114.924 114.117 114.451 114.023 114.037 113.836C113.627 113.645 113.305 113.385 113.07 113.057C112.836 112.725 112.719 112.367 112.719 111.984H114.324C114.34 112.285 114.451 112.516 114.658 112.676C114.865 112.836 115.143 112.916 115.49 112.916C115.814 112.916 116.059 112.855 116.223 112.734C116.391 112.609 116.475 112.447 116.475 112.248ZM122.891 114C122.812 113.848 122.756 113.658 122.721 113.432C122.311 113.889 121.777 114.117 121.121 114.117C120.5 114.117 119.984 113.938 119.574 113.578C119.168 113.219 118.965 112.766 118.965 112.219C118.965 111.547 119.213 111.031 119.709 110.672C120.209 110.312 120.93 110.131 121.871 110.127H122.65V109.764C122.65 109.471 122.574 109.236 122.422 109.061C122.273 108.885 122.037 108.797 121.713 108.797C121.428 108.797 121.203 108.865 121.039 109.002C120.879 109.139 120.799 109.326 120.799 109.564H119.105C119.105 109.197 119.219 108.857 119.445 108.545C119.672 108.232 119.992 107.988 120.406 107.812C120.82 107.633 121.285 107.543 121.801 107.543C122.582 107.543 123.201 107.74 123.658 108.135C124.119 108.525 124.35 109.076 124.35 109.787V112.535C124.354 113.137 124.438 113.592 124.602 113.9V114H122.891ZM121.49 112.822C121.74 112.822 121.971 112.768 122.182 112.658C122.393 112.545 122.549 112.395 122.65 112.207V111.117H122.018C121.17 111.117 120.719 111.41 120.664 111.996L120.658 112.096C120.658 112.307 120.732 112.48 120.881 112.617C121.029 112.754 121.232 112.822 121.49 112.822Z" fill="#0F4C75"/>
<path d="M75.249 133H70.5908V132.351L73.0518 129.616C73.4163 129.203 73.667 128.868 73.8037 128.61C73.9437 128.35 74.0137 128.081 74.0137 127.805C74.0137 127.434 73.9014 127.129 73.6768 126.892C73.4521 126.654 73.1527 126.535 72.7783 126.535C72.3291 126.535 71.9792 126.664 71.7285 126.921C71.4811 127.175 71.3574 127.53 71.3574 127.985H70.4541C70.4541 127.331 70.6641 126.802 71.084 126.398C71.5072 125.995 72.0719 125.793 72.7783 125.793C73.4391 125.793 73.9616 125.967 74.3457 126.315C74.7298 126.66 74.9219 127.121 74.9219 127.697C74.9219 128.397 74.4759 129.23 73.584 130.197L71.6797 132.263H75.249V133ZM80.6641 129.968C80.6641 131.026 80.4834 131.812 80.1221 132.326C79.7607 132.84 79.196 133.098 78.4277 133.098C77.6693 133.098 77.1077 132.847 76.7432 132.346C76.3786 131.841 76.1898 131.089 76.1768 130.09V128.884C76.1768 127.839 76.3574 127.062 76.7188 126.555C77.0801 126.047 77.6465 125.793 78.418 125.793C79.1829 125.793 79.7461 126.039 80.1074 126.53C80.4688 127.019 80.6543 127.774 80.6641 128.796V129.968ZM79.7607 128.732C79.7607 127.967 79.6533 127.411 79.4385 127.062C79.2236 126.711 78.8835 126.535 78.418 126.535C77.9557 126.535 77.6188 126.709 77.4072 127.058C77.1956 127.406 77.0866 127.941 77.0801 128.664V130.109C77.0801 130.878 77.1908 131.446 77.4121 131.813C77.6367 132.178 77.9753 132.36 78.4277 132.36C78.8737 132.36 79.2041 132.188 79.4189 131.843C79.637 131.498 79.751 130.954 79.7607 130.212V128.732ZM84.79 133H83.8818V126.979L82.0605 127.648V126.828L84.6484 125.856H84.79V133ZM90.9814 125.886V126.652H90.8154C90.1123 126.665 89.5524 126.874 89.1357 127.277C88.7191 127.681 88.4782 128.249 88.4131 128.981C88.7874 128.552 89.2985 128.337 89.9463 128.337C90.5648 128.337 91.0579 128.555 91.4258 128.991C91.7969 129.427 91.9824 129.991 91.9824 130.681C91.9824 131.413 91.7822 131.999 91.3818 132.438C90.9847 132.878 90.4508 133.098 89.7803 133.098C89.0999 133.098 88.5482 132.837 88.125 132.316C87.7018 131.792 87.4902 131.118 87.4902 130.295V129.948C87.4902 128.64 87.7686 127.64 88.3252 126.95C88.8851 126.257 89.7168 125.902 90.8203 125.886H90.9814ZM89.7949 129.089C89.4857 129.089 89.2008 129.182 88.9404 129.367C88.68 129.553 88.4993 129.785 88.3984 130.065V130.397C88.3984 130.983 88.5303 131.455 88.7939 131.813C89.0576 132.172 89.3864 132.351 89.7803 132.351C90.1872 132.351 90.5062 132.201 90.7373 131.901C90.9717 131.602 91.0889 131.21 91.0889 130.725C91.0889 130.236 90.9701 129.842 90.7324 129.543C90.498 129.24 90.1855 129.089 89.7949 129.089ZM97.5049 130.349H95.1221V129.611H97.5049V130.349ZM105.435 133H100.776V132.351L103.237 129.616C103.602 129.203 103.853 128.868 103.989 128.61C104.129 128.35 104.199 128.081 104.199 127.805C104.199 127.434 104.087 127.129 103.862 126.892C103.638 126.654 103.338 126.535 102.964 126.535C102.515 126.535 102.165 126.664 101.914 126.921C101.667 127.175 101.543 127.53 101.543 127.985H100.64C100.64 127.331 100.85 126.802 101.27 126.398C101.693 125.995 102.257 125.793 102.964 125.793C103.625 125.793 104.147 125.967 104.531 126.315C104.915 126.66 105.107 127.121 105.107 127.697C105.107 128.397 104.661 129.23 103.77 130.197L101.865 132.263H105.435V133ZM110.85 129.968C110.85 131.026 110.669 131.812 110.308 132.326C109.946 132.84 109.382 133.098 108.613 133.098C107.855 133.098 107.293 132.847 106.929 132.346C106.564 131.841 106.375 131.089 106.362 130.09V128.884C106.362 127.839 106.543 127.062 106.904 126.555C107.266 126.047 107.832 125.793 108.604 125.793C109.368 125.793 109.932 126.039 110.293 126.53C110.654 127.019 110.84 127.774 110.85 128.796V129.968ZM109.946 128.732C109.946 127.967 109.839 127.411 109.624 127.062C109.409 126.711 109.069 126.535 108.604 126.535C108.141 126.535 107.804 126.709 107.593 127.058C107.381 127.406 107.272 127.941 107.266 128.664V130.109C107.266 130.878 107.376 131.446 107.598 131.813C107.822 132.178 108.161 132.36 108.613 132.36C109.059 132.36 109.39 132.188 109.604 131.843C109.823 131.498 109.937 130.954 109.946 130.212V128.732ZM114.976 133H114.067V126.979L112.246 127.648V126.828L114.834 125.856H114.976V133ZM121.084 129.875C120.895 130.1 120.669 130.28 120.405 130.417C120.145 130.554 119.858 130.622 119.546 130.622C119.136 130.622 118.778 130.521 118.472 130.319C118.169 130.118 117.935 129.834 117.769 129.47C117.603 129.102 117.52 128.697 117.52 128.254C117.52 127.779 117.609 127.351 117.788 126.97C117.97 126.589 118.228 126.298 118.56 126.096C118.892 125.894 119.279 125.793 119.722 125.793C120.425 125.793 120.978 126.057 121.382 126.584C121.789 127.108 121.992 127.824 121.992 128.732V128.996C121.992 130.38 121.719 131.39 121.172 132.028C120.625 132.663 119.8 132.989 118.696 133.005H118.521V132.243H118.711C119.456 132.23 120.029 132.036 120.43 131.662C120.83 131.285 121.048 130.689 121.084 129.875ZM119.692 129.875C119.995 129.875 120.273 129.782 120.527 129.597C120.785 129.411 120.972 129.182 121.089 128.908V128.547C121.089 127.954 120.96 127.473 120.703 127.102C120.446 126.73 120.12 126.545 119.727 126.545C119.329 126.545 119.01 126.698 118.77 127.004C118.529 127.307 118.408 127.707 118.408 128.205C118.408 128.69 118.524 129.09 118.755 129.406C118.989 129.719 119.302 129.875 119.692 129.875Z" fill="#0F4C75"/>
</svg>
