<svg width="333" height="340" viewBox="0 0 333 340" fill="none" xmlns="http://www.w3.org/2000/svg">
<path d="M8.23529 11.4118L8.23529 304.588" stroke="#0F4C75" stroke-width="5"/>
<path d="M8.23529 321.059V327.647" stroke="#86C7F2" stroke-width="5"/>
<path d="M8.23529 332.588V339.176" stroke="#BBE1FA" stroke-width="5"/>
<path d="M8.23529 309.529V316.118" stroke="#54A8E0" stroke-width="5"/>
<path d="M16.4706 11.4118C16.4706 15.96 12.7835 19.6471 8.23529 19.6471C3.68707 19.6471 0 15.96 0 11.4118C0 6.86353 3.68707 3.17646 8.23529 3.17646C12.7835 3.17646 16.4706 6.86353 16.4706 11.4118Z" fill="#892CDC"/>
<rect x="38" width="242.118" height="98.8235" rx="13" fill="#892CDC"/>
<path d="M63.9458 22.2031V30.6318C63.9458 32.0322 63.5063 33.1396 62.6274 33.9541C61.7544 34.7686 60.5591 35.1758 59.0415 35.1758C57.5474 35.1758 56.3608 34.7803 55.4819 33.9893C54.603 33.1982 54.1548 32.1113 54.1372 30.7285V22.2031H56.7739V30.6494C56.7739 31.4873 56.9731 32.0996 57.3716 32.4863C57.7759 32.8672 58.3325 33.0576 59.0415 33.0576C60.5239 33.0576 61.2769 32.2783 61.3003 30.7197V22.2031H63.9458ZM68.2788 25.4902L68.3579 26.5889C69.0376 25.7393 69.9487 25.3145 71.0913 25.3145C72.0991 25.3145 72.8491 25.6104 73.3413 26.2021C73.8335 26.7939 74.0854 27.6787 74.0972 28.8564V35H71.5571V28.918C71.5571 28.3789 71.4399 27.9893 71.2056 27.749C70.9712 27.5029 70.5815 27.3799 70.0366 27.3799C69.3218 27.3799 68.7856 27.6846 68.4282 28.2939V35H65.8882V25.4902H68.2788ZM78.7114 35H76.1626V25.4902H78.7114V35ZM76.0132 23.0293C76.0132 22.6484 76.1392 22.335 76.3911 22.0889C76.6489 21.8428 76.9976 21.7197 77.437 21.7197C77.8706 21.7197 78.2163 21.8428 78.4741 22.0889C78.7319 22.335 78.8608 22.6484 78.8608 23.0293C78.8608 23.416 78.729 23.7324 78.4653 23.9785C78.2075 24.2246 77.8647 24.3477 77.437 24.3477C77.0093 24.3477 76.6636 24.2246 76.3999 23.9785C76.1421 23.7324 76.0132 23.416 76.0132 23.0293ZM84.3716 31.8975L86.1382 25.4902H88.7925L85.5845 35H83.1587L79.9507 25.4902H82.605L84.3716 31.8975ZM94.1714 35.1758C92.7769 35.1758 91.6401 34.748 90.7612 33.8926C89.8882 33.0371 89.4517 31.8975 89.4517 30.4736V30.2275C89.4517 29.2725 89.6362 28.4199 90.0054 27.6699C90.3745 26.9141 90.896 26.334 91.5698 25.9297C92.2495 25.5195 93.0229 25.3145 93.8901 25.3145C95.1909 25.3145 96.2134 25.7246 96.9575 26.5449C97.7075 27.3652 98.0825 28.5283 98.0825 30.0342V31.0713H92.0269C92.1089 31.6924 92.355 32.1904 92.7651 32.5654C93.1812 32.9404 93.7056 33.1279 94.3384 33.1279C95.3169 33.1279 96.0815 32.7734 96.6323 32.0645L97.8804 33.4619C97.4995 34.001 96.9839 34.4229 96.3335 34.7275C95.6831 35.0264 94.9624 35.1758 94.1714 35.1758ZM93.8813 27.3711C93.3774 27.3711 92.9673 27.541 92.6509 27.8809C92.3403 28.2207 92.1411 28.707 92.0532 29.3398H95.5864V29.1377C95.5747 28.5752 95.4224 28.1416 95.1294 27.8369C94.8364 27.5264 94.4204 27.3711 93.8813 27.3711ZM104.876 27.8721C104.531 27.8252 104.226 27.8018 103.962 27.8018C103.001 27.8018 102.372 28.127 102.073 28.7773V35H99.5327V25.4902H101.932L102.002 26.624C102.512 25.751 103.218 25.3145 104.121 25.3145C104.402 25.3145 104.666 25.3525 104.912 25.4287L104.876 27.8721ZM111.257 32.3721C111.257 32.0615 111.102 31.8184 110.792 31.6426C110.487 31.4609 109.995 31.2998 109.315 31.1592C107.053 30.6846 105.922 29.7236 105.922 28.2764C105.922 27.4326 106.271 26.7295 106.968 26.167C107.671 25.5986 108.588 25.3145 109.719 25.3145C110.926 25.3145 111.89 25.5986 112.611 26.167C113.337 26.7354 113.701 27.4736 113.701 28.3818H111.161C111.161 28.0186 111.043 27.7197 110.809 27.4854C110.575 27.2451 110.208 27.125 109.71 27.125C109.283 27.125 108.952 27.2217 108.717 27.415C108.483 27.6084 108.366 27.8545 108.366 28.1533C108.366 28.4346 108.498 28.6631 108.761 28.8389C109.031 29.0088 109.482 29.1582 110.115 29.2871C110.748 29.4102 111.281 29.5508 111.714 29.709C113.056 30.2012 113.727 31.0537 113.727 32.2666C113.727 33.1338 113.355 33.8369 112.611 34.376C111.867 34.9092 110.906 35.1758 109.728 35.1758C108.931 35.1758 108.222 35.0352 107.601 34.7539C106.986 34.4668 106.502 34.0771 106.151 33.585C105.799 33.0869 105.624 32.5508 105.624 31.9766H108.032C108.055 32.4277 108.222 32.7734 108.533 33.0137C108.843 33.2539 109.259 33.374 109.781 33.374C110.267 33.374 110.633 33.2832 110.879 33.1016C111.131 32.9141 111.257 32.6709 111.257 32.3721ZM118.051 35H115.502V25.4902H118.051V35ZM115.353 23.0293C115.353 22.6484 115.479 22.335 115.731 22.0889C115.989 21.8428 116.337 21.7197 116.777 21.7197C117.21 21.7197 117.556 21.8428 117.814 22.0889C118.072 22.335 118.201 22.6484 118.201 23.0293C118.201 23.416 118.069 23.7324 117.805 23.9785C117.547 24.2246 117.205 24.3477 116.777 24.3477C116.349 24.3477 116.003 24.2246 115.74 23.9785C115.482 23.7324 115.353 23.416 115.353 23.0293ZM123.193 23.1523V25.4902H124.819V27.3535H123.193V32.0996C123.193 32.4512 123.26 32.7031 123.395 32.8555C123.53 33.0078 123.788 33.084 124.168 33.084C124.45 33.084 124.699 33.0635 124.916 33.0225V34.9473C124.417 35.0996 123.905 35.1758 123.377 35.1758C121.596 35.1758 120.688 34.2764 120.653 32.4775V27.3535H119.264V25.4902H120.653V23.1523H123.193ZM131.745 35C131.627 34.7715 131.542 34.4873 131.49 34.1475C130.875 34.833 130.075 35.1758 129.09 35.1758C128.159 35.1758 127.385 34.9062 126.77 34.3672C126.161 33.8281 125.856 33.1484 125.856 32.3281C125.856 31.3203 126.228 30.5469 126.972 30.0078C127.722 29.4688 128.803 29.1963 130.215 29.1904H131.384V28.6455C131.384 28.2061 131.27 27.8545 131.042 27.5908C130.819 27.3271 130.464 27.1953 129.978 27.1953C129.55 27.1953 129.213 27.2979 128.967 27.5029C128.727 27.708 128.607 27.9893 128.607 28.3467H126.067C126.067 27.7959 126.237 27.2861 126.577 26.8174C126.917 26.3486 127.397 25.9824 128.018 25.7188C128.639 25.4492 129.336 25.3145 130.11 25.3145C131.282 25.3145 132.21 25.6104 132.896 26.2021C133.587 26.7881 133.933 27.6143 133.933 28.6807V32.8027C133.939 33.7051 134.065 34.3877 134.311 34.8506V35H131.745ZM129.644 33.2334C130.019 33.2334 130.365 33.1514 130.681 32.9873C130.998 32.8174 131.232 32.5918 131.384 32.3105V30.6758H130.435C129.164 30.6758 128.487 31.1152 128.405 31.9941L128.396 32.1436C128.396 32.46 128.507 32.7207 128.73 32.9258C128.953 33.1309 129.257 33.2334 129.644 33.2334ZM141.035 32.3721C141.035 32.0615 140.879 31.8184 140.569 31.6426C140.264 31.4609 139.772 31.2998 139.092 31.1592C136.831 30.6846 135.7 29.7236 135.7 28.2764C135.7 27.4326 136.048 26.7295 136.746 26.167C137.449 25.5986 138.366 25.3145 139.497 25.3145C140.704 25.3145 141.667 25.5986 142.388 26.167C143.115 26.7354 143.478 27.4736 143.478 28.3818H140.938C140.938 28.0186 140.821 27.7197 140.586 27.4854C140.352 27.2451 139.986 27.125 139.488 27.125C139.06 27.125 138.729 27.2217 138.495 27.415C138.26 27.6084 138.143 27.8545 138.143 28.1533C138.143 28.4346 138.275 28.6631 138.539 28.8389C138.808 29.0088 139.259 29.1582 139.892 29.2871C140.525 29.4102 141.058 29.5508 141.492 29.709C142.833 30.2012 143.504 31.0537 143.504 32.2666C143.504 33.1338 143.132 33.8369 142.388 34.376C141.644 34.9092 140.683 35.1758 139.505 35.1758C138.708 35.1758 138 35.0352 137.378 34.7539C136.763 34.4668 136.28 34.0771 135.928 33.585C135.577 33.0869 135.401 32.5508 135.401 31.9766H137.809C137.833 32.4277 138 32.7734 138.31 33.0137C138.621 33.2539 139.037 33.374 139.558 33.374C140.044 33.374 140.411 33.2832 140.657 33.1016C140.909 32.9141 141.035 32.6709 141.035 32.3721ZM159.922 33.3828C159.448 33.9512 158.777 34.3936 157.91 34.71C157.042 35.0205 156.082 35.1758 155.027 35.1758C153.919 35.1758 152.947 34.9355 152.109 34.4551C151.277 33.9688 150.632 33.2656 150.175 32.3457C149.724 31.4258 149.493 30.3447 149.481 29.1025V28.2324C149.481 26.9551 149.695 25.8506 150.123 24.9189C150.556 23.9814 151.177 23.2666 151.986 22.7744C152.8 22.2764 153.752 22.0273 154.842 22.0273C156.36 22.0273 157.546 22.3906 158.402 23.1172C159.257 23.8379 159.764 24.8896 159.922 26.2725H157.356C157.239 25.54 156.978 25.0039 156.574 24.6641C156.175 24.3242 155.625 24.1543 154.921 24.1543C154.025 24.1543 153.342 24.4912 152.874 25.165C152.405 25.8389 152.167 26.8408 152.162 28.1709V28.9883C152.162 30.3301 152.417 31.3438 152.926 32.0293C153.436 32.7148 154.183 33.0576 155.167 33.0576C156.158 33.0576 156.864 32.8467 157.286 32.4248V30.2188H154.886V28.2764H159.922V33.3828ZM167.595 34.0332C166.968 34.7949 166.101 35.1758 164.994 35.1758C163.974 35.1758 163.195 34.8828 162.656 34.2969C162.123 33.7109 161.85 32.8525 161.838 31.7217V25.4902H164.378V31.6338C164.378 32.624 164.83 33.1191 165.732 33.1191C166.593 33.1191 167.185 32.8203 167.507 32.2227V25.4902H170.056V35H167.666L167.595 34.0332ZM174.31 25.4902L174.389 26.5889C175.069 25.7393 175.98 25.3145 177.123 25.3145C178.13 25.3145 178.88 25.6104 179.373 26.2021C179.865 26.7939 180.117 27.6787 180.128 28.8564V35H177.588V28.918C177.588 28.3789 177.471 27.9893 177.237 27.749C177.002 27.5029 176.613 27.3799 176.068 27.3799C175.353 27.3799 174.817 27.6846 174.459 28.2939V35H171.919V25.4902H174.31ZM187.573 35C187.456 34.7715 187.371 34.4873 187.318 34.1475C186.703 34.833 185.903 35.1758 184.918 35.1758C183.987 35.1758 183.213 34.9062 182.598 34.3672C181.989 33.8281 181.684 33.1484 181.684 32.3281C181.684 31.3203 182.056 30.5469 182.8 30.0078C183.55 29.4688 184.631 29.1963 186.043 29.1904H187.212V28.6455C187.212 28.2061 187.098 27.8545 186.87 27.5908C186.647 27.3271 186.292 27.1953 185.806 27.1953C185.378 27.1953 185.042 27.2979 184.795 27.5029C184.555 27.708 184.435 27.9893 184.435 28.3467H181.895C181.895 27.7959 182.065 27.2861 182.405 26.8174C182.745 26.3486 183.225 25.9824 183.846 25.7188C184.467 25.4492 185.165 25.3145 185.938 25.3145C187.11 25.3145 188.039 25.6104 188.724 26.2021C189.416 26.7881 189.761 27.6143 189.761 28.6807V32.8027C189.767 33.7051 189.893 34.3877 190.139 34.8506V35H187.573ZM185.472 33.2334C185.847 33.2334 186.193 33.1514 186.509 32.9873C186.826 32.8174 187.06 32.5918 187.212 32.3105V30.6758H186.263C184.992 30.6758 184.315 31.1152 184.233 31.9941L184.224 32.1436C184.224 32.46 184.335 32.7207 184.558 32.9258C184.781 33.1309 185.085 33.2334 185.472 33.2334ZM191.317 30.1748C191.317 28.6924 191.648 27.5117 192.31 26.6328C192.978 25.7539 193.889 25.3145 195.043 25.3145C195.969 25.3145 196.734 25.6602 197.337 26.3516V21.5H199.886V35H197.592L197.469 33.9893C196.836 34.7803 196.022 35.1758 195.026 35.1758C193.907 35.1758 193.007 34.7363 192.328 33.8574C191.654 32.9727 191.317 31.7451 191.317 30.1748ZM193.857 30.3594C193.857 31.25 194.012 31.9326 194.323 32.4072C194.633 32.8818 195.084 33.1191 195.676 33.1191C196.461 33.1191 197.015 32.7881 197.337 32.126V28.373C197.021 27.7109 196.473 27.3799 195.694 27.3799C194.469 27.3799 193.857 28.373 193.857 30.3594ZM207.366 35C207.249 34.7715 207.164 34.4873 207.111 34.1475C206.496 34.833 205.696 35.1758 204.711 35.1758C203.78 35.1758 203.006 34.9062 202.391 34.3672C201.782 33.8281 201.477 33.1484 201.477 32.3281C201.477 31.3203 201.849 30.5469 202.593 30.0078C203.343 29.4688 204.424 29.1963 205.836 29.1904H207.005V28.6455C207.005 28.2061 206.891 27.8545 206.663 27.5908C206.44 27.3271 206.085 27.1953 205.599 27.1953C205.171 27.1953 204.834 27.2979 204.588 27.5029C204.348 27.708 204.228 27.9893 204.228 28.3467H201.688C201.688 27.7959 201.858 27.2861 202.198 26.8174C202.538 26.3486 203.018 25.9824 203.639 25.7188C204.26 25.4492 204.958 25.3145 205.731 25.3145C206.903 25.3145 207.832 25.6104 208.517 26.2021C209.208 26.7881 209.554 27.6143 209.554 28.6807V32.8027C209.56 33.7051 209.686 34.3877 209.932 34.8506V35H207.366ZM205.265 33.2334C205.64 33.2334 205.986 33.1514 206.302 32.9873C206.619 32.8174 206.853 32.5918 207.005 32.3105V30.6758H206.056C204.785 30.6758 204.108 31.1152 204.026 31.9941L204.017 32.1436C204.017 32.46 204.128 32.7207 204.351 32.9258C204.574 33.1309 204.878 33.2334 205.265 33.2334ZM216.849 27.8721C216.503 27.8252 216.199 27.8018 215.935 27.8018C214.974 27.8018 214.344 28.127 214.045 28.7773V35H211.505V25.4902H213.905L213.975 26.624C214.485 25.751 215.191 25.3145 216.093 25.3145C216.375 25.3145 216.638 25.3525 216.884 25.4287L216.849 27.8721ZM220.461 25.4902L220.541 26.5537C221.214 25.7275 222.125 25.3145 223.274 25.3145C224.499 25.3145 225.339 25.7979 225.796 26.7646C226.464 25.7979 227.417 25.3145 228.653 25.3145C229.684 25.3145 230.452 25.6162 230.956 26.2197C231.459 26.8174 231.711 27.7197 231.711 28.9268V35H229.163V28.9355C229.163 28.3965 229.057 28.0039 228.846 27.7578C228.635 27.5059 228.263 27.3799 227.73 27.3799C226.968 27.3799 226.441 27.7432 226.148 28.4697L226.157 35H223.617V28.9443C223.617 28.3936 223.508 27.9951 223.292 27.749C223.075 27.5029 222.706 27.3799 222.184 27.3799C221.463 27.3799 220.942 27.6787 220.62 28.2764V35H218.08V25.4902H220.461ZM239.182 35C239.065 34.7715 238.98 34.4873 238.927 34.1475C238.312 34.833 237.512 35.1758 236.528 35.1758C235.596 35.1758 234.823 34.9062 234.208 34.3672C233.598 33.8281 233.293 33.1484 233.293 32.3281C233.293 31.3203 233.666 30.5469 234.41 30.0078C235.16 29.4688 236.241 29.1963 237.653 29.1904H238.822V28.6455C238.822 28.2061 238.708 27.8545 238.479 27.5908C238.256 27.3271 237.902 27.1953 237.416 27.1953C236.988 27.1953 236.651 27.2979 236.405 27.5029C236.165 27.708 236.044 27.9893 236.044 28.3467H233.504C233.504 27.7959 233.674 27.2861 234.014 26.8174C234.354 26.3486 234.834 25.9824 235.456 25.7188C236.077 25.4492 236.774 25.3145 237.547 25.3145C238.719 25.3145 239.648 25.6104 240.333 26.2021C241.025 26.7881 241.371 27.6143 241.371 28.6807V32.8027C241.376 33.7051 241.502 34.3877 241.749 34.8506V35H239.182ZM237.082 33.2334C237.457 33.2334 237.802 33.1514 238.119 32.9873C238.435 32.8174 238.669 32.5918 238.822 32.3105V30.6758H237.873C236.601 30.6758 235.924 31.1152 235.842 31.9941L235.833 32.1436C235.833 32.46 235.945 32.7207 236.167 32.9258C236.39 33.1309 236.695 33.2334 237.082 33.2334Z" fill="#ECC8FF"/>
<path d="M60.1722 70.6471H53.6508V69.7379L57.0961 65.9098C57.6065 65.331 57.9574 64.8616 58.1488 64.5016C58.3448 64.137 58.4427 63.761 58.4427 63.3736C58.4427 62.8541 58.2855 62.428 57.9711 62.0953C57.6566 61.7626 57.2373 61.5963 56.7133 61.5963C56.0844 61.5963 55.5944 61.7763 55.2435 62.1363C54.8972 62.4918 54.724 62.9885 54.724 63.6266H53.4594C53.4594 62.7105 53.7533 61.97 54.3412 61.4049C54.9336 60.8398 55.7243 60.5572 56.7133 60.5572C57.6384 60.5572 58.3698 60.801 58.9076 61.2887C59.4454 61.7717 59.7142 62.4166 59.7142 63.2232C59.7142 64.203 59.0899 65.3697 57.8412 66.7232L55.1752 69.6148H60.1722V70.6471ZM67.7533 66.4019C67.7533 67.8831 67.5004 68.9836 66.9945 69.7037C66.4886 70.4238 65.698 70.7838 64.6224 70.7838C63.5606 70.7838 62.7745 70.4329 62.264 69.731C61.7536 69.0247 61.4893 67.9719 61.4711 66.5728V64.8844C61.4711 63.4215 61.724 62.3346 62.2299 61.6236C62.7357 60.9127 63.5287 60.5572 64.6088 60.5572C65.6797 60.5572 66.4681 60.9013 66.974 61.5894C67.4799 62.273 67.7396 63.3303 67.7533 64.7613V66.4019ZM66.4886 64.6725C66.4886 63.6015 66.3383 62.8222 66.0375 62.3346C65.7367 61.8424 65.2605 61.5963 64.6088 61.5963C63.9616 61.5963 63.4899 61.8401 63.1937 62.3277C62.8975 62.8154 62.7448 63.565 62.7357 64.5767V66.6002C62.7357 67.6757 62.8907 68.471 63.2006 68.9859C63.515 69.4963 63.989 69.7516 64.6224 69.7516C65.2468 69.7516 65.7094 69.51 66.0101 69.0269C66.3155 68.5439 66.475 67.7828 66.4886 66.7437V64.6725ZM73.5297 70.6471H72.2582V62.2183L69.7084 63.1549V62.0064L73.3314 60.6461H73.5297V70.6471ZM82.0814 66.2721C81.8171 66.5865 81.5004 66.8394 81.1312 67.0308C80.7666 67.2223 80.3656 67.318 79.9281 67.318C79.3539 67.318 78.8526 67.1767 78.4242 66.8941C78.0004 66.6116 77.6722 66.2151 77.4398 65.7047C77.2074 65.1897 77.0912 64.6223 77.0912 64.0025C77.0912 63.3372 77.2165 62.7379 77.4672 62.2047C77.7224 61.6715 78.0824 61.2636 78.5472 60.981C79.0121 60.6985 79.5544 60.5572 80.1742 60.5572C81.1586 60.5572 81.9333 60.9264 82.4984 61.6646C83.0681 62.3984 83.3529 63.401 83.3529 64.6725V65.0416C83.3529 66.9784 82.9701 68.3935 82.2045 69.2867C81.4388 70.1754 80.2836 70.6311 78.7386 70.6539H78.4926V69.5875H78.7592C79.8028 69.5693 80.6049 69.2981 81.1654 68.774C81.726 68.2454 82.0313 67.4114 82.0814 66.2721ZM80.1332 66.2721C80.557 66.2721 80.9467 66.1422 81.3021 65.8824C81.6622 65.6226 81.9242 65.3014 82.0883 64.9185V64.4127C82.0883 63.5833 81.9082 62.9088 81.5482 62.3892C81.1882 61.8697 80.7325 61.61 80.181 61.61C79.625 61.61 79.1784 61.8241 78.8412 62.2525C78.5039 62.6764 78.3353 63.2369 78.3353 63.9342C78.3353 64.6132 78.4971 65.1738 78.8207 65.6158C79.1488 66.0533 79.5863 66.2721 80.1332 66.2721ZM91.3304 66.9351H87.9945V65.9029H91.3304V66.9351ZM102.432 70.6471H95.9105V69.7379L99.3558 65.9098C99.8663 65.331 100.217 64.8616 100.409 64.5016C100.605 64.137 100.703 63.761 100.703 63.3736C100.703 62.8541 100.545 62.428 100.231 62.0953C99.9164 61.7626 99.4971 61.5963 98.973 61.5963C98.3441 61.5963 97.8542 61.7763 97.5033 62.1363C97.1569 62.4918 96.9838 62.9885 96.9838 63.6266H95.7191C95.7191 62.7105 96.0131 61.97 96.601 61.4049C97.1934 60.8398 97.9841 60.5572 98.973 60.5572C99.8982 60.5572 100.63 60.801 101.167 61.2887C101.705 61.7717 101.974 62.4166 101.974 63.2232C101.974 64.203 101.35 65.3697 100.101 66.7232L97.4349 69.6148H102.432V70.6471ZM110.013 66.4019C110.013 67.8831 109.76 68.9836 109.254 69.7037C108.748 70.4238 107.958 70.7838 106.882 70.7838C105.82 70.7838 105.034 70.4329 104.524 69.731C104.013 69.0247 103.749 67.9719 103.731 66.5728V64.8844C103.731 63.4215 103.984 62.3346 104.49 61.6236C104.995 60.9127 105.788 60.5572 106.869 60.5572C107.939 60.5572 108.728 60.9013 109.234 61.5894C109.74 62.273 109.999 63.3303 110.013 64.7613V66.4019ZM108.748 64.6725C108.748 63.6015 108.598 62.8222 108.297 62.3346C107.996 61.8424 107.52 61.5963 106.869 61.5963C106.221 61.5963 105.75 61.8401 105.453 62.3277C105.157 62.8154 105.005 63.565 104.995 64.5767V66.6002C104.995 67.6757 105.15 68.471 105.46 68.9859C105.775 69.4963 106.249 69.7516 106.882 69.7516C107.507 69.7516 107.969 69.51 108.27 69.0269C108.575 68.5439 108.735 67.7828 108.748 66.7437V64.6725ZM118.155 70.6471H111.633V69.7379L115.078 65.9098C115.589 65.331 115.94 64.8616 116.131 64.5016C116.327 64.137 116.425 63.761 116.425 63.3736C116.425 62.8541 116.268 62.428 115.953 62.0953C115.639 61.7626 115.22 61.5963 114.696 61.5963C114.067 61.5963 113.577 61.7763 113.226 62.1363C112.88 62.4918 112.706 62.9885 112.706 63.6266H111.442C111.442 62.7105 111.736 61.97 112.324 61.4049C112.916 60.8398 113.707 60.5572 114.696 60.5572C115.621 60.5572 116.352 60.801 116.89 61.2887C117.428 61.7717 117.697 62.4166 117.697 63.2232C117.697 64.203 117.072 65.3697 115.824 66.7232L113.158 69.6148H118.155V70.6471ZM121.333 65.0553H122.284C122.881 65.0461 123.35 64.8889 123.692 64.5836C124.034 64.2782 124.204 63.8658 124.204 63.3463C124.204 62.1796 123.623 61.5963 122.461 61.5963C121.914 61.5963 121.477 61.7535 121.149 62.068C120.825 62.3779 120.663 62.7903 120.663 63.3053H119.399C119.399 62.5169 119.686 61.8629 120.26 61.3433C120.839 60.8193 121.573 60.5572 122.461 60.5572C123.4 60.5572 124.136 60.8056 124.669 61.3023C125.203 61.7991 125.469 62.4895 125.469 63.3736C125.469 63.8066 125.328 64.2258 125.045 64.6314C124.767 65.037 124.387 65.3401 123.904 65.5406C124.451 65.7138 124.872 66.0009 125.168 66.4019C125.469 66.803 125.62 67.2929 125.62 67.8717C125.62 68.7649 125.328 69.4736 124.745 69.9976C124.161 70.5217 123.402 70.7838 122.468 70.7838C121.534 70.7838 120.773 70.5308 120.185 70.025C119.602 69.5191 119.31 68.8515 119.31 68.0221H120.581C120.581 68.5461 120.752 68.9654 121.094 69.2799C121.436 69.5943 121.894 69.7516 122.468 69.7516C123.079 69.7516 123.546 69.592 123.87 69.273C124.193 68.954 124.355 68.496 124.355 67.899C124.355 67.3202 124.177 66.8759 123.822 66.566C123.466 66.2561 122.953 66.0966 122.284 66.0875H121.333V65.0553Z" fill="#ECC8FF"/>
<path d="M16.4706 255.176C16.4706 259.725 12.7835 263.412 8.23529 263.412C3.68707 263.412 0 259.725 0 255.176C0 250.628 3.68707 246.941 8.23529 246.941C12.7835 246.941 16.4706 250.628 16.4706 255.176Z" fill="#3282B8"/>
<rect x="38" y="240" width="242.118" height="98.8235" rx="13" fill="#3282B8"/>
<path d="M60.6018 271.76C60.6018 271.262 60.426 270.881 60.0745 270.618C59.7229 270.348 59.0901 270.067 58.176 269.774C57.262 269.475 56.5383 269.182 56.0051 268.895C54.552 268.11 53.8254 267.052 53.8254 265.722C53.8254 265.031 54.0188 264.415 54.4055 263.876C54.7981 263.332 55.3577 262.907 56.0842 262.602C56.8167 262.297 57.637 262.145 58.5452 262.145C59.4592 262.145 60.2737 262.312 60.9885 262.646C61.7034 262.974 62.2571 263.44 62.6497 264.043C63.0481 264.647 63.2473 265.332 63.2473 266.1H60.6106C60.6106 265.514 60.426 265.06 60.0569 264.738C59.6877 264.41 59.1692 264.246 58.5012 264.246C57.8567 264.246 57.3557 264.383 56.9983 264.659C56.6409 264.928 56.4622 265.286 56.4622 265.731C56.4622 266.147 56.6702 266.496 57.0862 266.777C57.5081 267.058 58.1262 267.322 58.9407 267.568C60.4407 268.019 61.5334 268.579 62.219 269.247C62.9045 269.915 63.2473 270.747 63.2473 271.743C63.2473 272.85 62.8284 273.72 61.9905 274.353C61.1526 274.98 60.0247 275.293 58.6067 275.293C57.6223 275.293 56.7258 275.115 55.9172 274.757C55.1086 274.394 54.4905 273.899 54.0627 273.272C53.6409 272.645 53.4299 271.918 53.4299 271.092H56.0754C56.0754 272.504 56.9192 273.21 58.6067 273.21C59.2336 273.21 59.7229 273.084 60.0745 272.832C60.426 272.575 60.6018 272.217 60.6018 271.76ZM68.4856 262.321L71.7727 271.602L75.0422 262.321H78.5051V275.118H75.8596V271.62L76.1233 265.582L72.6692 275.118H70.8586L67.4133 265.59L67.677 271.62V275.118H65.0403V262.321H68.4856ZM83.4446 270.609V275.118H80.8079V262.321H85.8C86.761 262.321 87.6047 262.497 88.3313 262.848C89.0637 263.2 89.6262 263.701 90.0188 264.351C90.4114 264.996 90.6077 265.731 90.6077 266.557C90.6077 267.811 90.177 268.801 89.3157 269.528C88.4602 270.249 87.2737 270.609 85.7561 270.609H83.4446ZM83.4446 268.473H85.8C86.4973 268.473 87.0276 268.309 87.3909 267.981C87.76 267.653 87.9446 267.184 87.9446 266.575C87.9446 265.948 87.76 265.441 87.3909 265.054C87.0217 264.667 86.512 264.468 85.8616 264.457H83.4446V268.473ZM106.955 270.855C106.856 272.232 106.346 273.316 105.426 274.107C104.512 274.898 103.305 275.293 101.805 275.293C100.164 275.293 98.8723 274.743 97.929 273.641C96.9915 272.534 96.5227 271.016 96.5227 269.088V268.306C96.5227 267.076 96.7395 265.992 97.1731 265.054C97.6067 264.117 98.2249 263.399 99.0276 262.901C99.8362 262.397 100.774 262.145 101.84 262.145C103.317 262.145 104.506 262.54 105.408 263.332C106.311 264.123 106.832 265.233 106.973 266.663H104.336C104.272 265.836 104.04 265.239 103.642 264.87C103.249 264.495 102.649 264.307 101.84 264.307C100.961 264.307 100.302 264.624 99.8625 265.256C99.429 265.883 99.2063 266.859 99.1946 268.183V269.15C99.1946 270.533 99.4026 271.543 99.8186 272.182C100.24 272.821 100.903 273.14 101.805 273.14C102.619 273.14 103.226 272.956 103.624 272.586C104.029 272.211 104.26 271.634 104.319 270.855H106.955ZM111.2 275.118H108.652V265.608H111.2V275.118ZM108.502 263.147C108.502 262.766 108.628 262.453 108.88 262.207C109.138 261.96 109.487 261.837 109.926 261.837C110.36 261.837 110.705 261.96 110.963 262.207C111.221 262.453 111.35 262.766 111.35 263.147C111.35 263.534 111.218 263.85 110.954 264.096C110.697 264.342 110.354 264.465 109.926 264.465C109.498 264.465 109.153 264.342 108.889 264.096C108.631 263.85 108.502 263.534 108.502 263.147ZM116.342 263.27V265.608H117.968V267.471H116.342V272.217C116.342 272.569 116.409 272.821 116.544 272.973C116.679 273.125 116.937 273.202 117.318 273.202C117.599 273.202 117.848 273.181 118.065 273.14V275.065C117.567 275.217 117.054 275.293 116.527 275.293C114.745 275.293 113.837 274.394 113.802 272.595V267.471H112.413V265.608H113.802V263.27H116.342ZM124.727 267.99C124.381 267.943 124.076 267.919 123.813 267.919C122.852 267.919 122.222 268.245 121.923 268.895V275.118H119.383V265.608H121.782L121.853 266.742C122.363 265.869 123.069 265.432 123.971 265.432C124.252 265.432 124.516 265.47 124.762 265.546L124.727 267.99ZM131.204 275.118C131.087 274.889 131.002 274.605 130.949 274.265C130.334 274.951 129.534 275.293 128.55 275.293C127.618 275.293 126.845 275.024 126.23 274.485C125.62 273.946 125.316 273.266 125.316 272.446C125.316 271.438 125.688 270.665 126.432 270.125C127.182 269.586 128.263 269.314 129.675 269.308H130.844V268.763C130.844 268.324 130.73 267.972 130.501 267.708C130.279 267.445 129.924 267.313 129.438 267.313C129.01 267.313 128.673 267.415 128.427 267.621C128.187 267.826 128.067 268.107 128.067 268.464H125.527C125.527 267.914 125.697 267.404 126.036 266.935C126.376 266.466 126.857 266.1 127.478 265.836C128.099 265.567 128.796 265.432 129.57 265.432C130.741 265.432 131.67 265.728 132.356 266.32C133.047 266.906 133.393 267.732 133.393 268.798V272.92C133.399 273.823 133.525 274.505 133.771 274.968V275.118H131.204ZM129.104 273.351C129.479 273.351 129.824 273.269 130.141 273.105C130.457 272.935 130.692 272.709 130.844 272.428V270.793H129.895C128.623 270.793 127.947 271.233 127.865 272.112L127.856 272.261C127.856 272.578 127.967 272.838 128.19 273.043C128.412 273.249 128.717 273.351 129.104 273.351ZM150.4 275.118H147.763L142.63 266.698V275.118H139.993V262.321H142.63L147.772 270.758V262.321H150.4V275.118ZM158.231 274.151C157.604 274.913 156.737 275.293 155.629 275.293C154.61 275.293 153.83 275 153.291 274.415C152.758 273.829 152.486 272.97 152.474 271.839V265.608H155.014V271.751C155.014 272.742 155.465 273.237 156.367 273.237C157.229 273.237 157.821 272.938 158.143 272.34V265.608H160.692V275.118H158.301L158.231 274.151ZM167.758 272.49C167.758 272.179 167.603 271.936 167.292 271.76C166.988 271.579 166.495 271.417 165.816 271.277C163.554 270.802 162.423 269.841 162.423 268.394C162.423 267.55 162.772 266.847 163.469 266.285C164.172 265.716 165.089 265.432 166.22 265.432C167.427 265.432 168.391 265.716 169.112 266.285C169.838 266.853 170.201 267.591 170.201 268.499H167.661C167.661 268.136 167.544 267.837 167.31 267.603C167.075 267.363 166.709 267.243 166.211 267.243C165.783 267.243 165.452 267.339 165.218 267.533C164.984 267.726 164.866 267.972 164.866 268.271C164.866 268.552 164.998 268.781 165.262 268.957C165.531 269.126 165.983 269.276 166.615 269.405C167.248 269.528 167.781 269.668 168.215 269.827C169.557 270.319 170.228 271.171 170.228 272.384C170.228 273.251 169.856 273.955 169.112 274.494C168.367 275.027 167.406 275.293 166.229 275.293C165.432 275.293 164.723 275.153 164.102 274.872C163.487 274.584 163.003 274.195 162.652 273.703C162.3 273.205 162.124 272.668 162.124 272.094H164.532C164.556 272.545 164.723 272.891 165.033 273.131C165.344 273.372 165.76 273.492 166.281 273.492C166.768 273.492 167.134 273.401 167.38 273.219C167.632 273.032 167.758 272.789 167.758 272.49ZM177.382 275.118C177.265 274.889 177.18 274.605 177.127 274.265C176.512 274.951 175.712 275.293 174.728 275.293C173.796 275.293 173.023 275.024 172.407 274.485C171.798 273.946 171.493 273.266 171.493 272.446C171.493 271.438 171.865 270.665 172.61 270.125C173.36 269.586 174.441 269.314 175.853 269.308H177.022V268.763C177.022 268.324 176.907 267.972 176.679 267.708C176.456 267.445 176.102 267.313 175.615 267.313C175.188 267.313 174.851 267.415 174.605 267.621C174.365 267.826 174.244 268.107 174.244 268.464H171.704C171.704 267.914 171.874 267.404 172.214 266.935C172.554 266.466 173.034 266.1 173.656 265.836C174.277 265.567 174.974 265.432 175.747 265.432C176.919 265.432 177.848 265.728 178.533 266.32C179.225 266.906 179.571 267.732 179.571 268.798V272.92C179.576 273.823 179.702 274.505 179.948 274.968V275.118H177.382ZM175.281 273.351C175.656 273.351 176.002 273.269 176.319 273.105C176.635 272.935 176.869 272.709 177.022 272.428V270.793H176.073C174.801 270.793 174.124 271.233 174.042 272.112L174.033 272.261C174.033 272.578 174.145 272.838 174.367 273.043C174.59 273.249 174.895 273.351 175.281 273.351Z" fill="#BBE1FA"/>
<path d="M60.1721 310.647H53.6506V309.738L57.0959 305.91C57.6064 305.331 57.9573 304.862 58.1487 304.502C58.3446 304.137 58.4426 303.761 58.4426 303.374C58.4426 302.854 58.2854 302.428 57.9709 302.095C57.6565 301.763 57.2372 301.596 56.7131 301.596C56.0842 301.596 55.5943 301.776 55.2434 302.136C54.8971 302.492 54.7239 302.989 54.7239 303.627H53.4592C53.4592 302.711 53.7532 301.97 54.3411 301.405C54.9335 300.84 55.7242 300.557 56.7131 300.557C57.6383 300.557 58.3697 300.801 58.9075 301.289C59.4452 301.772 59.7141 302.417 59.7141 303.223C59.7141 304.203 59.0898 305.37 57.8411 306.723L55.175 309.615H60.1721V310.647ZM67.7532 306.402C67.7532 307.883 67.5002 308.984 66.9944 309.704C66.4885 310.424 65.6978 310.784 64.6223 310.784C63.5605 310.784 62.7743 310.433 62.2639 309.731C61.7535 309.025 61.4892 307.972 61.4709 306.573V304.884C61.4709 303.421 61.7239 302.335 62.2297 301.624C62.7356 300.913 63.5286 300.557 64.6086 300.557C65.6796 300.557 66.468 300.901 66.9739 301.589C67.4797 302.273 67.7395 303.33 67.7532 304.761V306.402ZM66.4885 304.672C66.4885 303.601 66.3381 302.822 66.0374 302.335C65.7366 301.842 65.2603 301.596 64.6086 301.596C63.9615 301.596 63.4898 301.84 63.1936 302.328C62.8974 302.815 62.7447 303.565 62.7356 304.577V306.6C62.7356 307.676 62.8905 308.471 63.2004 308.986C63.5149 309.496 63.9889 309.752 64.6223 309.752C65.2467 309.752 65.7092 309.51 66.01 309.027C66.3153 308.544 66.4749 307.783 66.4885 306.744V304.672ZM73.5295 310.647H72.2581V302.218L69.7083 303.155V302.006L73.3313 300.646H73.5295V310.647ZM82.0813 306.272C81.817 306.586 81.5002 306.839 81.1311 307.031C80.7665 307.222 80.3655 307.318 79.928 307.318C79.3538 307.318 78.8525 307.177 78.4241 306.894C78.0002 306.612 77.6721 306.215 77.4397 305.705C77.2073 305.19 77.0911 304.622 77.0911 304.003C77.0911 303.337 77.2164 302.738 77.467 302.205C77.7222 301.671 78.0823 301.264 78.5471 300.981C79.012 300.698 79.5543 300.557 80.1741 300.557C81.1584 300.557 81.9332 300.926 82.4983 301.665C83.068 302.398 83.3528 303.401 83.3528 304.672V305.042C83.3528 306.978 82.97 308.393 82.2043 309.287C81.4387 310.175 80.2834 310.631 78.7385 310.654H78.4924V309.587H78.759C79.8027 309.569 80.6047 309.298 81.1653 308.774C81.7258 308.245 82.0312 307.411 82.0813 306.272ZM80.1331 306.272C80.5569 306.272 80.9465 306.142 81.302 305.882C81.662 305.623 81.9241 305.301 82.0881 304.919V304.413C82.0881 303.583 81.9081 302.909 81.5481 302.389C81.1881 301.87 80.7323 301.61 80.1809 301.61C79.6249 301.61 79.1783 301.824 78.8411 302.253C78.5038 302.676 78.3352 303.237 78.3352 303.934C78.3352 304.613 78.497 305.174 78.8206 305.616C79.1487 306.053 79.5862 306.272 80.1331 306.272ZM91.3303 306.935H87.9944V305.903H91.3303V306.935ZM102.432 310.647H95.9104V309.738L99.3557 305.91C99.8661 305.331 100.217 304.862 100.408 304.502C100.604 304.137 100.702 303.761 100.702 303.374C100.702 302.854 100.545 302.428 100.231 302.095C99.9163 301.763 99.497 301.596 98.9729 301.596C98.344 301.596 97.8541 301.776 97.5032 302.136C97.1568 302.492 96.9836 302.989 96.9836 303.627H95.719C95.719 302.711 96.0129 301.97 96.6008 301.405C97.1933 300.84 97.984 300.557 98.9729 300.557C99.898 300.557 100.629 300.801 101.167 301.289C101.705 301.772 101.974 302.417 101.974 303.223C101.974 304.203 101.35 305.37 100.101 306.723L97.4348 309.615H102.432V310.647ZM110.013 306.402C110.013 307.883 109.76 308.984 109.254 309.704C108.748 310.424 107.958 310.784 106.882 310.784C105.82 310.784 105.034 310.433 104.524 309.731C104.013 309.025 103.749 307.972 103.731 306.573V304.884C103.731 303.421 103.984 302.335 104.49 301.624C104.995 300.913 105.788 300.557 106.868 300.557C107.939 300.557 108.728 300.901 109.234 301.589C109.74 302.273 109.999 303.33 110.013 304.761V306.402ZM108.748 304.672C108.748 303.601 108.598 302.822 108.297 302.335C107.996 301.842 107.52 301.596 106.868 301.596C106.221 301.596 105.75 301.84 105.453 302.328C105.157 302.815 105.004 303.565 104.995 304.577V306.6C104.995 307.676 105.15 308.471 105.46 308.986C105.775 309.496 106.249 309.752 106.882 309.752C107.506 309.752 107.969 309.51 108.27 309.027C108.575 308.544 108.735 307.783 108.748 306.744V304.672ZM118.155 310.647H111.633V309.738L115.078 305.91C115.589 305.331 115.94 304.862 116.131 304.502C116.327 304.137 116.425 303.761 116.425 303.374C116.425 302.854 116.268 302.428 115.953 302.095C115.639 301.763 115.22 301.596 114.696 301.596C114.067 301.596 113.577 301.776 113.226 302.136C112.879 302.492 112.706 302.989 112.706 303.627H111.442C111.442 302.711 111.736 301.97 112.323 301.405C112.916 300.84 113.707 300.557 114.696 300.557C115.621 300.557 116.352 300.801 116.89 301.289C117.428 301.772 117.697 302.417 117.697 303.223C117.697 304.203 117.072 305.37 115.823 306.723L113.157 309.615H118.155V310.647ZM121.333 305.055H122.283C122.88 305.046 123.35 304.889 123.692 304.584C124.033 304.278 124.204 303.866 124.204 303.346C124.204 302.18 123.623 301.596 122.461 301.596C121.914 301.596 121.477 301.753 121.149 302.068C120.825 302.378 120.663 302.79 120.663 303.305H119.399C119.399 302.517 119.686 301.863 120.26 301.343C120.839 300.819 121.573 300.557 122.461 300.557C123.4 300.557 124.136 300.806 124.669 301.302C125.202 301.799 125.469 302.489 125.469 303.374C125.469 303.807 125.328 304.226 125.045 304.631C124.767 305.037 124.387 305.34 123.904 305.541C124.45 305.714 124.872 306.001 125.168 306.402C125.469 306.803 125.619 307.293 125.619 307.872C125.619 308.765 125.328 309.474 124.744 309.998C124.161 310.522 123.402 310.784 122.468 310.784C121.534 310.784 120.773 310.531 120.185 310.025C119.601 309.519 119.31 308.851 119.31 308.022H120.581C120.581 308.546 120.752 308.965 121.094 309.28C121.436 309.594 121.894 309.752 122.468 309.752C123.079 309.752 123.546 309.592 123.869 309.273C124.193 308.954 124.355 308.496 124.355 307.899C124.355 307.32 124.177 306.876 123.822 306.566C123.466 306.256 122.953 306.097 122.283 306.087H121.333V305.055Z" fill="#BBE1FA"/>
<path d="M17.0657 133.235C17.0657 137.784 13.2454 141.471 8.53287 141.471C3.8203 141.471 0 137.784 0 133.235C0 128.687 3.8203 125 8.53287 125C13.2454 125 17.0657 128.687 17.0657 133.235Z" fill="#BBE1FA"/>
<rect x="39.3731" y="116" width="240.627" height="108.706" rx="13" fill="#BBE1FA"/>
<path d="M61.4744 146.407C61.4744 145.909 61.2986 145.528 60.9471 145.265C60.5955 144.995 59.9627 144.714 59.0486 144.421C58.1346 144.122 57.4109 143.829 56.8777 143.542C55.4246 142.757 54.6981 141.699 54.6981 140.369C54.6981 139.678 54.8914 139.063 55.2781 138.523C55.6707 137.979 56.2303 137.554 56.9568 137.249C57.6893 136.944 58.5096 136.792 59.4178 136.792C60.3318 136.792 61.1463 136.959 61.8611 137.293C62.576 137.621 63.1297 138.087 63.5223 138.69C63.9207 139.294 64.1199 139.98 64.1199 140.747H61.4832C61.4832 140.161 61.2986 139.707 60.9295 139.385C60.5604 139.057 60.0418 138.893 59.3738 138.893C58.7293 138.893 58.2283 139.03 57.8709 139.306C57.5135 139.575 57.3348 139.933 57.3348 140.378C57.3348 140.794 57.5428 141.143 57.9588 141.424C58.3807 141.705 58.9988 141.969 59.8133 142.215C61.3133 142.666 62.4061 143.226 63.0916 143.894C63.7772 144.562 64.1199 145.394 64.1199 146.39C64.1199 147.497 63.701 148.367 62.8631 149C62.0252 149.627 60.8973 149.94 59.4793 149.94C58.4949 149.94 57.5984 149.762 56.7899 149.404C55.9813 149.041 55.3631 148.546 54.9354 147.919C54.5135 147.292 54.3026 146.565 54.3026 145.739H56.9481C56.9481 147.151 57.7918 147.857 59.4793 147.857C60.1063 147.857 60.5955 147.732 60.9471 147.48C61.2986 147.222 61.4744 146.864 61.4744 146.407ZM69.3582 136.968L72.6453 146.249L75.9149 136.968H79.3777V149.765H76.7322V146.267L76.9959 140.229L73.5418 149.765H71.7313L68.2859 140.237L68.5496 146.267V149.765H65.9129V136.968H69.3582ZM85.6883 144.632L84.3172 146.108V149.765H81.6805V136.968H84.3172V142.769L85.4774 141.178L88.7381 136.968H91.9813L87.4373 142.654L92.1131 149.765H88.9754L85.6883 144.632ZM97.5887 149.765V136.968H102.071C103.624 136.968 104.802 137.267 105.604 137.864C106.407 138.456 106.808 139.326 106.808 140.475C106.808 141.102 106.647 141.655 106.325 142.136C106.003 142.61 105.555 142.959 104.98 143.182C105.637 143.346 106.152 143.677 106.527 144.175C106.908 144.673 107.098 145.282 107.098 146.003C107.098 147.233 106.706 148.165 105.921 148.798C105.136 149.431 104.016 149.753 102.563 149.765H97.5887ZM100.225 144.192V147.647H102.484C103.105 147.647 103.589 147.5 103.934 147.207C104.286 146.908 104.462 146.498 104.462 145.977C104.462 144.805 103.855 144.21 102.642 144.192H100.225ZM100.225 142.329H102.177C103.507 142.306 104.172 141.775 104.172 140.738C104.172 140.158 104.002 139.742 103.662 139.49C103.328 139.232 102.798 139.104 102.071 139.104H100.225V142.329ZM114.429 149.765C114.311 149.536 114.226 149.252 114.174 148.912C113.558 149.598 112.759 149.94 111.774 149.94C110.843 149.94 110.069 149.671 109.454 149.132C108.845 148.593 108.54 147.913 108.54 147.093C108.54 146.085 108.912 145.312 109.656 144.773C110.406 144.233 111.487 143.961 112.899 143.955H114.068V143.41C114.068 142.971 113.954 142.619 113.725 142.356C113.503 142.092 113.148 141.96 112.662 141.96C112.234 141.96 111.897 142.063 111.651 142.268C111.411 142.473 111.291 142.754 111.291 143.111H108.751C108.751 142.561 108.921 142.051 109.261 141.582C109.6 141.113 110.081 140.747 110.702 140.483C111.323 140.214 112.02 140.079 112.794 140.079C113.966 140.079 114.894 140.375 115.58 140.967C116.271 141.553 116.617 142.379 116.617 143.445V147.567C116.623 148.47 116.749 149.152 116.995 149.615V149.765H114.429ZM112.328 147.998C112.703 147.998 113.049 147.916 113.365 147.752C113.681 147.582 113.916 147.357 114.068 147.075V145.44H113.119C111.847 145.44 111.171 145.88 111.089 146.759L111.08 146.908C111.08 147.225 111.191 147.485 111.414 147.69C111.637 147.896 111.941 147.998 112.328 147.998ZM120.906 140.255L120.985 141.354C121.665 140.504 122.576 140.079 123.719 140.079C124.726 140.079 125.476 140.375 125.969 140.967C126.461 141.559 126.713 142.443 126.724 143.621V149.765H124.184V143.683C124.184 143.144 124.067 142.754 123.833 142.514C123.598 142.268 123.209 142.145 122.664 142.145C121.949 142.145 121.413 142.449 121.055 143.059V149.765H118.515V140.255H120.906ZM128.289 144.94C128.289 143.481 128.635 142.306 129.326 141.415C130.023 140.524 130.961 140.079 132.138 140.079C133.181 140.079 133.993 140.437 134.573 141.151L134.679 140.255H136.981V149.448C136.981 150.28 136.791 151.004 136.41 151.619C136.035 152.234 135.505 152.703 134.819 153.025C134.134 153.348 133.331 153.509 132.411 153.509C131.714 153.509 131.034 153.368 130.372 153.087C129.71 152.812 129.209 152.454 128.869 152.015L129.994 150.468C130.627 151.177 131.394 151.531 132.297 151.531C132.971 151.531 133.495 151.35 133.87 150.986C134.245 150.629 134.432 150.119 134.432 149.457V148.947C133.846 149.609 133.076 149.94 132.121 149.94C130.978 149.94 130.053 149.495 129.344 148.605C128.64 147.708 128.289 146.522 128.289 145.045V144.94ZM130.829 145.124C130.829 145.985 131.002 146.662 131.347 147.154C131.693 147.641 132.168 147.884 132.771 147.884C133.545 147.884 134.098 147.594 134.432 147.014V143.015C134.093 142.435 133.545 142.145 132.789 142.145C132.18 142.145 131.699 142.394 131.347 142.892C131.002 143.39 130.829 144.134 130.829 145.124ZM144.637 148.798C144.01 149.56 143.142 149.94 142.035 149.94C141.015 149.94 140.236 149.648 139.697 149.062C139.164 148.476 138.891 147.617 138.88 146.486V140.255H141.42V146.398C141.42 147.389 141.871 147.884 142.773 147.884C143.635 147.884 144.226 147.585 144.549 146.987V140.255H147.097V149.765H144.707L144.637 148.798ZM151.351 140.255L151.43 141.354C152.11 140.504 153.021 140.079 154.164 140.079C155.172 140.079 155.922 140.375 156.414 140.967C156.906 141.559 157.158 142.443 157.17 143.621V149.765H154.63V143.683C154.63 143.144 154.513 142.754 154.278 142.514C154.044 142.268 153.654 142.145 153.109 142.145C152.394 142.145 151.858 142.449 151.501 143.059V149.765H148.961V140.255H151.351ZM174.159 149.765H171.522L166.389 141.345V149.765H163.753V136.968H166.389L171.531 145.405V136.968H174.159V149.765ZM181.99 148.798C181.363 149.56 180.496 149.94 179.388 149.94C178.369 149.94 177.59 149.648 177.051 149.062C176.517 148.476 176.245 147.617 176.233 146.486V140.255H178.773V146.398C178.773 147.389 179.224 147.884 180.127 147.884C180.988 147.884 181.58 147.585 181.902 146.987V140.255H184.451V149.765H182.06L181.99 148.798ZM191.517 147.137C191.517 146.826 191.362 146.583 191.052 146.407C190.747 146.226 190.255 146.065 189.575 145.924C187.313 145.449 186.182 144.488 186.182 143.041C186.182 142.197 186.531 141.494 187.228 140.932C187.931 140.363 188.848 140.079 189.979 140.079C191.186 140.079 192.15 140.363 192.871 140.932C193.597 141.5 193.961 142.238 193.961 143.147H191.421C191.421 142.783 191.304 142.484 191.069 142.25C190.835 142.01 190.469 141.89 189.971 141.89C189.543 141.89 189.212 141.986 188.977 142.18C188.743 142.373 188.626 142.619 188.626 142.918C188.626 143.199 188.758 143.428 189.021 143.604C189.291 143.773 189.742 143.923 190.375 144.052C191.008 144.175 191.541 144.315 191.974 144.474C193.316 144.966 193.987 145.818 193.987 147.031C193.987 147.898 193.615 148.602 192.871 149.141C192.127 149.674 191.166 149.94 189.988 149.94C189.191 149.94 188.482 149.8 187.861 149.519C187.246 149.232 186.763 148.842 186.411 148.35C186.059 147.852 185.884 147.315 185.884 146.741H188.292C188.315 147.192 188.482 147.538 188.793 147.778C189.103 148.019 189.519 148.139 190.041 148.139C190.527 148.139 190.893 148.048 191.139 147.866C191.391 147.679 191.517 147.436 191.517 147.137ZM201.141 149.765C201.024 149.536 200.939 149.252 200.887 148.912C200.271 149.598 199.471 149.94 198.487 149.94C197.555 149.94 196.782 149.671 196.167 149.132C195.557 148.593 195.253 147.913 195.253 147.093C195.253 146.085 195.625 145.312 196.369 144.773C197.119 144.233 198.2 143.961 199.612 143.955H200.781V143.41C200.781 142.971 200.667 142.619 200.438 142.356C200.216 142.092 199.861 141.96 199.375 141.96C198.947 141.96 198.61 142.063 198.364 142.268C198.124 142.473 198.004 142.754 198.004 143.111H195.464C195.464 142.561 195.634 142.051 195.973 141.582C196.313 141.113 196.794 140.747 197.415 140.483C198.036 140.214 198.733 140.079 199.507 140.079C200.679 140.079 201.607 140.375 202.293 140.967C202.984 141.553 203.33 142.379 203.33 143.445V147.567C203.336 148.47 203.462 149.152 203.708 149.615V149.765H201.141ZM199.041 147.998C199.416 147.998 199.762 147.916 200.078 147.752C200.394 147.582 200.629 147.357 200.781 147.075V145.44H199.832C198.56 145.44 197.884 145.88 197.802 146.759L197.793 146.908C197.793 147.225 197.904 147.485 198.127 147.69C198.349 147.896 198.654 147.998 199.041 147.998ZM54.8387 170.765V157.968H59.3211C60.8738 157.968 62.0516 158.267 62.8543 158.864C63.657 159.456 64.0584 160.326 64.0584 161.475C64.0584 162.102 63.8973 162.655 63.575 163.136C63.2527 163.61 62.8045 163.959 62.2303 164.182C62.8865 164.346 63.4022 164.677 63.7772 165.175C64.158 165.673 64.3484 166.282 64.3484 167.003C64.3484 168.233 63.9559 169.165 63.1707 169.798C62.3856 170.431 61.2664 170.753 59.8133 170.765H54.8387ZM57.4754 165.192V168.647H59.7342C60.3553 168.647 60.8387 168.5 61.1844 168.207C61.5359 167.908 61.7117 167.498 61.7117 166.977C61.7117 165.805 61.1053 165.21 59.8924 165.192H57.4754ZM57.4754 163.329H59.4266C60.7567 163.306 61.4217 162.775 61.4217 161.738C61.4217 161.158 61.2518 160.742 60.9119 160.49C60.5779 160.232 60.0477 160.104 59.3211 160.104H57.4754V163.329ZM71.6785 170.765C71.5613 170.536 71.4764 170.252 71.4236 169.912C70.8084 170.598 70.0086 170.94 69.0242 170.94C68.0926 170.94 67.3192 170.671 66.7039 170.132C66.0945 169.593 65.7899 168.913 65.7899 168.093C65.7899 167.085 66.1619 166.312 66.9061 165.773C67.6561 165.233 68.7371 164.961 70.1492 164.955H71.3182V164.41C71.3182 163.971 71.2039 163.619 70.9754 163.356C70.7527 163.092 70.3983 162.96 69.9119 162.96C69.4842 162.96 69.1473 163.063 68.9012 163.268C68.6609 163.473 68.5408 163.754 68.5408 164.111H66.0008C66.0008 163.561 66.1707 163.051 66.5106 162.582C66.8504 162.113 67.3309 161.747 67.952 161.483C68.5731 161.214 69.2703 161.079 70.0438 161.079C71.2156 161.079 72.1443 161.375 72.8299 161.967C73.5213 162.553 73.867 163.379 73.867 164.445V168.567C73.8729 169.47 73.9988 170.152 74.2449 170.615V170.765H71.6785ZM69.5779 168.998C69.9529 168.998 70.2986 168.916 70.6151 168.752C70.9315 168.582 71.1658 168.357 71.3182 168.075V166.44H70.369C69.0975 166.44 68.4207 166.88 68.3387 167.759L68.3299 167.908C68.3299 168.225 68.4412 168.485 68.6639 168.69C68.8865 168.896 69.1912 168.998 69.5779 168.998ZM78.1561 161.255L78.2352 162.354C78.9149 161.504 79.826 161.079 80.9686 161.079C81.9764 161.079 82.7264 161.375 83.2186 161.967C83.7108 162.559 83.9627 163.443 83.9744 164.621V170.765H81.4344V164.683C81.4344 164.144 81.3172 163.754 81.0828 163.514C80.8484 163.268 80.4588 163.145 79.9139 163.145C79.199 163.145 78.6629 163.449 78.3055 164.059V170.765H75.7654V161.255H78.1561ZM85.5389 165.94C85.5389 164.481 85.8846 163.306 86.576 162.415C87.2733 161.524 88.2108 161.079 89.3885 161.079C90.4315 161.079 91.243 161.437 91.8231 162.151L91.9285 161.255H94.2313V170.448C94.2313 171.28 94.0408 172.004 93.66 172.619C93.285 173.234 92.7547 173.703 92.0692 174.025C91.3836 174.348 90.5809 174.509 89.6609 174.509C88.9637 174.509 88.284 174.368 87.6219 174.087C86.9598 173.812 86.4588 173.454 86.119 173.015L87.244 171.468C87.8768 172.177 88.6443 172.531 89.5467 172.531C90.2205 172.531 90.7449 172.35 91.1199 171.986C91.4949 171.629 91.6824 171.119 91.6824 170.457V169.947C91.0965 170.609 90.326 170.94 89.3709 170.94C88.2283 170.94 87.3026 170.495 86.5936 169.605C85.8904 168.708 85.5389 167.522 85.5389 166.045V165.94ZM88.0789 166.124C88.0789 166.985 88.2518 167.662 88.5975 168.154C88.9432 168.641 89.4178 168.884 90.0213 168.884C90.7947 168.884 91.3484 168.594 91.6824 168.014V164.015C91.3426 163.435 90.7947 163.145 90.0389 163.145C89.4295 163.145 88.949 163.394 88.5975 163.892C88.2518 164.39 88.0789 165.134 88.0789 166.124ZM101.342 168.137C101.342 167.826 101.186 167.583 100.876 167.407C100.571 167.226 100.079 167.065 99.3992 166.924C97.1375 166.449 96.0067 165.488 96.0067 164.041C96.0067 163.197 96.3553 162.494 97.0526 161.932C97.7557 161.363 98.6727 161.079 99.8035 161.079C101.011 161.079 101.974 161.363 102.695 161.932C103.422 162.5 103.785 163.238 103.785 164.147H101.245C101.245 163.783 101.128 163.484 100.893 163.25C100.659 163.01 100.293 162.89 99.7947 162.89C99.367 162.89 99.0359 162.986 98.8016 163.18C98.5672 163.373 98.45 163.619 98.45 163.918C98.45 164.199 98.5818 164.428 98.8455 164.604C99.1151 164.773 99.5662 164.923 100.199 165.052C100.832 165.175 101.365 165.315 101.799 165.474C103.14 165.966 103.811 166.818 103.811 168.031C103.811 168.898 103.439 169.602 102.695 170.141C101.951 170.674 100.99 170.94 99.8123 170.94C99.0154 170.94 98.3065 170.8 97.6854 170.519C97.0701 170.232 96.5867 169.842 96.2352 169.35C95.8836 168.852 95.7078 168.315 95.7078 167.741H98.116C98.1395 168.192 98.3065 168.538 98.617 168.778C98.9276 169.019 99.3436 169.139 99.8651 169.139C100.351 169.139 100.718 169.048 100.964 168.866C101.216 168.679 101.342 168.436 101.342 168.137ZM110.966 170.765C110.848 170.536 110.763 170.252 110.711 169.912C110.096 170.598 109.296 170.94 108.311 170.94C107.38 170.94 106.606 170.671 105.991 170.132C105.382 169.593 105.077 168.913 105.077 168.093C105.077 167.085 105.449 166.312 106.193 165.773C106.943 165.233 108.024 164.961 109.436 164.955H110.605V164.41C110.605 163.971 110.491 163.619 110.263 163.356C110.04 163.092 109.685 162.96 109.199 162.96C108.771 162.96 108.434 163.063 108.188 163.268C107.948 163.473 107.828 163.754 107.828 164.111H105.288C105.288 163.561 105.458 163.051 105.798 162.582C106.138 162.113 106.618 161.747 107.239 161.483C107.86 161.214 108.557 161.079 109.331 161.079C110.503 161.079 111.431 161.375 112.117 161.967C112.808 162.553 113.154 163.379 113.154 164.445V168.567C113.16 169.47 113.286 170.152 113.532 170.615V170.765H110.966ZM108.865 168.998C109.24 168.998 109.586 168.916 109.902 168.752C110.219 168.582 110.453 168.357 110.605 168.075V166.44H109.656C108.385 166.44 107.708 166.88 107.626 167.759L107.617 167.908C107.617 168.225 107.728 168.485 107.951 168.69C108.174 168.896 108.478 168.998 108.865 168.998Z" fill="#0F4C75"/>
<path d="M61.0447 204.765H54.5233V203.856L57.9686 200.027C58.479 199.449 58.8299 198.979 59.0213 198.619C59.2173 198.255 59.3152 197.879 59.3152 197.491C59.3152 196.972 59.158 196.546 58.8436 196.213C58.5291 195.88 58.1098 195.714 57.5858 195.714C56.9568 195.714 56.4669 195.894 56.116 196.254C55.7697 196.609 55.5965 197.106 55.5965 197.744H54.3318C54.3318 196.828 54.6258 196.088 55.2137 195.523C55.8061 194.957 56.5968 194.675 57.5858 194.675C58.5109 194.675 59.2423 194.919 59.7801 195.406C60.3179 195.889 60.5867 196.534 60.5867 197.341C60.5867 198.321 59.9624 199.487 58.7137 200.841L56.0477 203.732H61.0447V204.765ZM68.6258 200.52C68.6258 202.001 68.3729 203.101 67.867 203.821C67.3611 204.541 66.5705 204.901 65.4949 204.901C64.4331 204.901 63.647 204.551 63.1365 203.849C62.6261 203.142 62.3618 202.09 62.3436 200.69V199.002C62.3436 197.539 62.5965 196.452 63.1024 195.741C63.6082 195.03 64.4012 194.675 65.4813 194.675C66.5522 194.675 67.3406 195.019 67.8465 195.707C68.3524 196.391 68.6121 197.448 68.6258 198.879V200.52ZM67.3611 198.79C67.3611 197.719 67.2108 196.94 66.91 196.452C66.6092 195.96 66.133 195.714 65.4813 195.714C64.8341 195.714 64.3624 195.958 64.0662 196.445C63.77 196.933 63.6173 197.683 63.6082 198.694V200.718C63.6082 201.793 63.7632 202.589 64.0731 203.104C64.3875 203.614 64.8615 203.869 65.4949 203.869C66.1193 203.869 66.5818 203.628 66.8826 203.145C67.188 202.662 67.3475 201.9 67.3611 200.861V198.79ZM74.4022 204.765H73.1307V196.336L70.5809 197.273V196.124L74.2039 194.764H74.4022V204.765ZM82.9539 200.39C82.6896 200.704 82.3729 200.957 82.0037 201.148C81.6391 201.34 81.2381 201.436 80.8006 201.436C80.2264 201.436 79.7251 201.294 79.2967 201.012C78.8729 200.729 78.5447 200.333 78.3123 199.822C78.0799 199.307 77.9637 198.74 77.9637 198.12C77.9637 197.455 78.089 196.856 78.3397 196.322C78.5949 195.789 78.9549 195.381 79.4197 195.099C79.8846 194.816 80.4269 194.675 81.0467 194.675C82.0311 194.675 82.8058 195.044 83.3709 195.782C83.9406 196.516 84.2254 197.519 84.2254 198.79V199.159C84.2254 201.096 83.8426 202.511 83.077 203.404C82.3113 204.293 81.1561 204.749 79.6111 204.772H79.3651V203.705H79.6317C80.6753 203.687 81.4774 203.416 82.0379 202.892C82.5984 202.363 82.9038 201.529 82.9539 200.39ZM81.0057 200.39C81.4295 200.39 81.8192 200.26 82.1746 200C82.5346 199.74 82.7967 199.419 82.9608 199.036V198.53C82.9608 197.701 82.7807 197.026 82.4207 196.507C82.0607 195.987 81.605 195.728 81.0535 195.728C80.4975 195.728 80.0509 195.942 79.7137 196.37C79.3764 196.794 79.2078 197.355 79.2078 198.052C79.2078 198.731 79.3696 199.291 79.6932 199.733C80.0213 200.171 80.4588 200.39 81.0057 200.39ZM92.2029 201.053H88.867V200.021H92.2029V201.053ZM103.305 204.765H96.783V203.856L100.228 200.027C100.739 199.449 101.09 198.979 101.281 198.619C101.477 198.255 101.575 197.879 101.575 197.491C101.575 196.972 101.418 196.546 101.103 196.213C100.789 195.88 100.37 195.714 99.8455 195.714C99.2166 195.714 98.7267 195.894 98.3758 196.254C98.0294 196.609 97.8563 197.106 97.8563 197.744H96.5916C96.5916 196.828 96.8856 196.088 97.4734 195.523C98.0659 194.957 98.8566 194.675 99.8455 194.675C100.771 194.675 101.502 194.919 102.04 195.406C102.578 195.889 102.846 196.534 102.846 197.341C102.846 198.321 102.222 199.487 100.973 200.841L98.3074 203.732H103.305V204.765ZM110.886 200.52C110.886 202.001 110.633 203.101 110.127 203.821C109.621 204.541 108.83 204.901 107.755 204.901C106.693 204.901 105.907 204.551 105.396 203.849C104.886 203.142 104.622 202.09 104.603 200.69V199.002C104.603 197.539 104.856 196.452 105.362 195.741C105.868 195.03 106.661 194.675 107.741 194.675C108.812 194.675 109.6 195.019 110.106 195.707C110.612 196.391 110.872 197.448 110.886 198.879V200.52ZM109.621 198.79C109.621 197.719 109.471 196.94 109.17 196.452C108.869 195.96 108.393 195.714 107.741 195.714C107.094 195.714 106.622 195.958 106.326 196.445C106.03 196.933 105.877 197.683 105.868 198.694V200.718C105.868 201.793 106.023 202.589 106.333 203.104C106.647 203.614 107.121 203.869 107.755 203.869C108.379 203.869 108.842 203.628 109.142 203.145C109.448 202.662 109.607 201.9 109.621 200.861V198.79ZM119.027 204.765H112.506V203.856L115.951 200.027C116.461 199.449 116.812 198.979 117.004 198.619C117.2 198.255 117.298 197.879 117.298 197.491C117.298 196.972 117.14 196.546 116.826 196.213C116.512 195.88 116.092 195.714 115.568 195.714C114.939 195.714 114.449 195.894 114.098 196.254C113.752 196.609 113.579 197.106 113.579 197.744H112.314C112.314 196.828 112.608 196.088 113.196 195.523C113.789 194.957 114.579 194.675 115.568 194.675C116.493 194.675 117.225 194.919 117.763 195.406C118.3 195.889 118.569 196.534 118.569 197.341C118.569 198.321 117.945 199.487 116.696 200.841L114.03 203.732H119.027V204.765ZM122.206 199.173H123.156C123.753 199.164 124.222 199.007 124.564 198.701C124.906 198.396 125.077 197.983 125.077 197.464C125.077 196.297 124.496 195.714 123.334 195.714C122.787 195.714 122.349 195.871 122.021 196.186C121.698 196.496 121.536 196.908 121.536 197.423H120.271C120.271 196.635 120.558 195.981 121.133 195.461C121.711 194.937 122.445 194.675 123.334 194.675C124.273 194.675 125.009 194.923 125.542 195.42C126.075 195.917 126.342 196.607 126.342 197.491C126.342 197.924 126.2 198.343 125.918 198.749C125.64 199.155 125.259 199.458 124.776 199.658C125.323 199.831 125.745 200.119 126.041 200.52C126.342 200.921 126.492 201.411 126.492 201.989C126.492 202.883 126.2 203.591 125.617 204.115C125.034 204.639 124.275 204.901 123.341 204.901C122.406 204.901 121.645 204.648 121.057 204.143C120.474 203.637 120.182 202.969 120.182 202.14H121.454C121.454 202.664 121.625 203.083 121.967 203.398C122.308 203.712 122.766 203.869 123.341 203.869C123.951 203.869 124.418 203.71 124.742 203.391C125.066 203.072 125.227 202.614 125.227 202.017C125.227 201.438 125.05 200.994 124.694 200.684C124.339 200.374 123.826 200.214 123.156 200.205H122.206V199.173Z" fill="#0F4C75"/>
</svg>
