<svg width="200" height="100" viewBox="0 0 200 100" fill="none" xmlns="http://www.w3.org/2000/svg">
<g clip-path="url(#clip0)">
<rect width="200" height="100" fill="white"/>
<path d="M31.2305 42.4727C32.4102 42.4727 33.5352 42.3945 34.6055 42.2383C35.6758 42.082 36.7539 41.875 37.8398 41.6172V36.7188H31.8633C31.7695 36.7188 31.6719 36.7188 31.5703 36.7188C31.4766 36.7109 31.3867 36.6953 31.3008 36.6719C31.2227 36.6406 31.1562 36.5977 31.1016 36.543C31.0547 36.4883 31.0312 36.4102 31.0312 36.3086C31.0312 36.207 31.0547 36.1289 31.1016 36.0742C31.1562 36.0195 31.2227 35.9805 31.3008 35.957C31.3789 35.9258 31.4648 35.9102 31.5586 35.9102C31.6602 35.9023 31.7617 35.8984 31.8633 35.8984H37.8398C38.168 35.8984 38.3906 35.9609 38.5078 36.0859C38.625 36.2109 38.6836 36.4219 38.6836 36.7188V41.6172C38.6836 41.8594 38.5938 42.0469 38.4141 42.1797C38.2344 42.3047 38.043 42.3867 37.8398 42.4258C36.6836 42.6523 35.5625 42.8438 34.4766 43C33.3906 43.1641 32.3086 43.2461 31.2305 43.2461C29.7773 43.2461 28.5 43.1211 27.3984 42.8711C26.3047 42.6211 25.3906 42.2266 24.6562 41.6875C23.9219 41.1406 23.3672 40.4414 22.9922 39.5898C22.625 38.7305 22.4414 37.6914 22.4414 36.4727C22.4414 35.2539 22.625 34.2188 22.9922 33.3672C23.3672 32.5078 23.9219 31.8086 24.6562 31.2695C25.3906 30.7227 26.3047 30.3242 27.3984 30.0742C28.5 29.8242 29.7773 29.6992 31.2305 29.6992C32.2461 29.6992 33.2305 29.793 34.1836 29.9805C35.1367 30.1602 36.1055 30.4531 37.0898 30.8594C37.2148 30.9141 37.3047 30.9844 37.3594 31.0703C37.4141 31.1484 37.4414 31.2266 37.4414 31.3047C37.4414 31.3984 37.4062 31.4805 37.3359 31.5508C37.2656 31.6211 37.1758 31.6562 37.0664 31.6562C37.0352 31.6562 36.9609 31.6367 36.8438 31.5977C35.9453 31.2227 35.0156 30.9414 34.0547 30.7539C33.0938 30.5664 32.1523 30.4727 31.2305 30.4727C29.8398 30.4727 28.6523 30.5898 27.668 30.8242C26.6836 31.0508 25.875 31.4102 25.2422 31.9023C24.6172 32.3867 24.1602 33.0078 23.8711 33.7656C23.582 34.5156 23.4375 35.418 23.4375 36.4727C23.4375 37.5273 23.582 38.4336 23.8711 39.1914C24.1602 39.9414 24.6172 40.5625 25.2422 41.0547C25.875 41.5391 26.6836 41.8984 27.668 42.1328C28.6523 42.3594 29.8398 42.4727 31.2305 42.4727ZM53.0569 43.1172C51.9788 43.1172 51.0686 43.0117 50.3264 42.8008C49.5842 42.582 48.9827 42.2734 48.5217 41.875C48.0686 41.4766 47.7405 40.9922 47.5373 40.4219C47.3342 39.8516 47.2327 39.207 47.2327 38.4883C47.2327 37.6602 47.3459 36.9531 47.5725 36.3672C47.8069 35.7734 48.1623 35.2852 48.6389 34.9023C49.1233 34.5195 49.7288 34.2383 50.4553 34.0586C51.1897 33.8789 52.0569 33.7891 53.0569 33.7891C54.0569 33.7891 54.9202 33.8789 55.6467 34.0586C56.3811 34.2383 56.9866 34.5195 57.4631 34.9023C57.9475 35.2852 58.303 35.7734 58.5295 36.3672C58.7639 36.9531 58.8811 37.6602 58.8811 38.4883C58.8811 39.207 58.7795 39.8516 58.5764 40.4219C58.3733 40.9922 58.0413 41.4766 57.5803 41.875C57.1272 42.2734 56.5295 42.582 55.7873 42.8008C55.0452 43.0117 54.135 43.1172 53.0569 43.1172ZM53.0569 42.4258C53.7678 42.4258 54.3811 42.375 54.8967 42.2734C55.4123 42.1641 55.8498 42.0156 56.2092 41.8281C56.5764 41.6406 56.8694 41.4219 57.0881 41.1719C57.3147 40.9219 57.4905 40.6523 57.6155 40.3633C57.7483 40.0664 57.8342 39.7617 57.8733 39.4492C57.9202 39.1289 57.9436 38.8086 57.9436 38.4883C57.9436 37.7617 57.8498 37.1445 57.6623 36.6367C57.4748 36.1289 57.1819 35.7148 56.7834 35.3945C56.385 35.0742 55.8772 34.8438 55.26 34.7031C54.6428 34.5547 53.9084 34.4805 53.0569 34.4805C52.1975 34.4805 51.4592 34.5547 50.842 34.7031C50.2327 34.8438 49.7288 35.0742 49.3303 35.3945C48.9319 35.7148 48.6389 36.1289 48.4514 36.6367C48.2639 37.1445 48.1702 37.7617 48.1702 38.4883C48.1702 38.8086 48.1897 39.1289 48.2288 39.4492C48.2756 39.7617 48.3616 40.0664 48.4866 40.3633C48.6194 40.6523 48.7952 40.9219 49.0139 41.1719C49.2405 41.4219 49.5334 41.6406 49.8928 41.8281C50.26 42.0156 50.7014 42.1641 51.217 42.2734C51.7327 42.375 52.3459 42.4258 53.0569 42.4258ZM73.3481 43.1172C72.27 43.1172 71.3598 43.0117 70.6177 42.8008C69.8755 42.582 69.2739 42.2734 68.813 41.875C68.3598 41.4766 68.0317 40.9922 67.8286 40.4219C67.6255 39.8516 67.5239 39.207 67.5239 38.4883C67.5239 37.6602 67.6372 36.9531 67.8638 36.3672C68.0981 35.7734 68.4536 35.2852 68.9302 34.9023C69.4145 34.5195 70.02 34.2383 70.7466 34.0586C71.4809 33.8789 72.3481 33.7891 73.3481 33.7891C74.3481 33.7891 75.2114 33.8789 75.938 34.0586C76.6723 34.2383 77.2778 34.5195 77.7544 34.9023C78.2388 35.2852 78.5942 35.7734 78.8208 36.3672C79.0552 36.9531 79.1723 37.6602 79.1723 38.4883C79.1723 39.207 79.0708 39.8516 78.8677 40.4219C78.6645 40.9922 78.3325 41.4766 77.8716 41.875C77.4184 42.2734 76.8208 42.582 76.0786 42.8008C75.3364 43.0117 74.4263 43.1172 73.3481 43.1172ZM73.3481 42.4258C74.0591 42.4258 74.6723 42.375 75.188 42.2734C75.7036 42.1641 76.1411 42.0156 76.5005 41.8281C76.8677 41.6406 77.1606 41.4219 77.3794 41.1719C77.6059 40.9219 77.7817 40.6523 77.9067 40.3633C78.0395 40.0664 78.1255 39.7617 78.1645 39.4492C78.2114 39.1289 78.2348 38.8086 78.2348 38.4883C78.2348 37.7617 78.1411 37.1445 77.9536 36.6367C77.7661 36.1289 77.4731 35.7148 77.0747 35.3945C76.6763 35.0742 76.1684 34.8438 75.5513 34.7031C74.9341 34.5547 74.1997 34.4805 73.3481 34.4805C72.4888 34.4805 71.7505 34.5547 71.1333 34.7031C70.5239 34.8438 70.02 35.0742 69.6216 35.3945C69.2231 35.7148 68.9302 36.1289 68.7427 36.6367C68.5552 37.1445 68.4614 37.7617 68.4614 38.4883C68.4614 38.8086 68.4809 39.1289 68.52 39.4492C68.5669 39.7617 68.6528 40.0664 68.7778 40.3633C68.9106 40.6523 69.0864 40.9219 69.3052 41.1719C69.5317 41.4219 69.8247 41.6406 70.1841 41.8281C70.5513 42.0156 70.9927 42.1641 71.5083 42.2734C72.0239 42.375 72.6372 42.4258 73.3481 42.4258ZM93.9558 34.5977C93.0261 34.5977 92.2292 34.668 91.5652 34.8086C90.9089 34.9414 90.3698 35.1641 89.948 35.4766C89.5261 35.7812 89.2175 36.1836 89.0222 36.6836C88.8269 37.1836 88.7292 37.793 88.7292 38.5117C88.7292 39.2305 88.8112 39.8398 88.9753 40.3398C89.1394 40.8398 89.405 41.2461 89.7722 41.5586C90.1472 41.8633 90.6355 42.0859 91.237 42.2266C91.8464 42.3594 92.5925 42.4258 93.4753 42.4258C93.8816 42.4258 94.2878 42.4062 94.6941 42.3672C95.1081 42.3203 95.5144 42.25 95.9128 42.1562C96.3112 42.0547 96.6941 41.9297 97.0612 41.7812C97.4284 41.6328 97.7722 41.4531 98.0925 41.2422V36.8594C98.0378 36.6406 97.9362 36.4023 97.7878 36.1445C97.6472 35.8789 97.4206 35.6328 97.1081 35.4062C96.8034 35.1719 96.3972 34.9805 95.8894 34.832C95.3816 34.6758 94.737 34.5977 93.9558 34.5977ZM93.6511 46.1641C94.2917 46.1641 94.8816 46.1055 95.4206 45.9883C95.9675 45.8789 96.4362 45.707 96.8269 45.4727C97.2253 45.2383 97.5339 44.9375 97.7527 44.5703C97.9792 44.2109 98.0925 43.7773 98.0925 43.2695V41.875C97.7566 42.1094 97.3972 42.3086 97.0144 42.4727C96.6316 42.6289 96.237 42.7539 95.8308 42.8477C95.4323 42.9414 95.0261 43.0078 94.612 43.0469C94.2058 43.0938 93.8112 43.1172 93.4284 43.1172C92.5378 43.1172 91.7448 43.0508 91.0495 42.918C90.3542 42.7773 89.7644 42.5352 89.28 42.1914C88.7956 41.8477 88.4245 41.3789 88.1667 40.7852C87.9167 40.1836 87.7917 39.4258 87.7917 38.5117C87.7917 37.5977 87.9362 36.8398 88.2253 36.2383C88.5144 35.6289 88.9245 35.1445 89.4558 34.7852C89.987 34.418 90.6237 34.1602 91.3659 34.0117C92.1159 33.8633 92.948 33.7891 93.862 33.7891C94.6667 33.7891 95.3269 33.8672 95.8425 34.0234C96.3659 34.1719 96.7839 34.3594 97.0964 34.5859C97.4167 34.8047 97.6472 35.0469 97.7878 35.3125C97.9362 35.5781 98.0378 35.8203 98.0925 36.0391C98.0925 35.8984 98.0847 35.7383 98.0691 35.5586C98.0612 35.3711 98.0573 35.1875 98.0573 35.0078C98.0573 34.7422 98.0808 34.5117 98.1277 34.3164C98.1823 34.1211 98.2956 34.0234 98.4675 34.0234C98.5847 34.0234 98.6784 34.0508 98.7487 34.1055C98.8191 34.1523 98.8737 34.2148 98.9128 34.293C98.9597 34.3711 98.9909 34.4609 99.0066 34.5625C99.0222 34.6562 99.03 34.75 99.03 34.8438V43.2695C99.03 44.5039 98.5612 45.4297 97.6237 46.0469C96.6941 46.6719 95.3698 46.9844 93.6511 46.9844C93.0886 46.9844 92.5847 46.957 92.1394 46.9023C91.7019 46.8477 91.3112 46.7734 90.9675 46.6797C90.6316 46.5938 90.3308 46.4922 90.0652 46.375C89.7995 46.2578 89.5612 46.1406 89.3503 46.0234C89.2644 46 89.1628 45.9375 89.0456 45.8359C88.9284 45.7422 88.8698 45.6289 88.8698 45.4961C88.8698 45.3477 88.9206 45.2422 89.0222 45.1797C89.1316 45.1172 89.2097 45.0859 89.2566 45.0859C89.3269 45.0859 89.4089 45.1094 89.5027 45.1562C89.5964 45.2109 89.7019 45.2695 89.8191 45.332C89.9441 45.4023 90.0808 45.4727 90.2292 45.543C90.3777 45.6211 90.5417 45.6836 90.7214 45.7305C91.0495 45.8398 91.448 45.9375 91.9167 46.0234C92.3855 46.1172 92.9636 46.1641 93.6511 46.1641ZM109.478 42.1797C109.478 42.4062 109.45 42.6016 109.395 42.7656C109.341 42.9219 109.216 43 109.02 43C108.903 43 108.813 42.9805 108.751 42.9414C108.688 42.8945 108.642 42.8359 108.61 42.7656C108.579 42.6875 108.56 42.6016 108.552 42.5078C108.544 42.4141 108.54 42.3125 108.54 42.2031V30.7891C108.54 30.6719 108.544 30.5625 108.552 30.4609C108.56 30.3594 108.579 30.2734 108.61 30.2031C108.649 30.125 108.7 30.0625 108.763 30.0156C108.833 29.9688 108.927 29.9453 109.044 29.9453C109.138 29.9453 109.212 29.9688 109.267 30.0156C109.329 30.0625 109.376 30.125 109.407 30.2031C109.438 30.2812 109.458 30.3711 109.466 30.4727C109.474 30.5664 109.478 30.6641 109.478 30.7656V42.1797ZM124.144 34.4805C123.417 34.4805 122.773 34.543 122.21 34.668C121.648 34.793 121.167 34.9961 120.769 35.2773C120.378 35.5508 120.073 35.9062 119.855 36.3438C119.636 36.7812 119.511 37.3164 119.48 37.9492H128.316V37.3164C128.316 36.9258 128.241 36.5586 128.093 36.2148C127.952 35.8711 127.718 35.5703 127.39 35.3125C127.062 35.0547 126.632 34.8516 126.101 34.7031C125.57 34.5547 124.917 34.4805 124.144 34.4805ZM123.534 42.4258C124.277 42.4258 124.925 42.3789 125.48 42.2852C126.034 42.1914 126.511 42.0781 126.909 41.9453C127.308 41.8125 127.632 41.6758 127.882 41.5352C128.14 41.3945 128.339 41.2773 128.48 41.1836C128.527 41.168 128.558 41.1602 128.573 41.1602C128.659 41.1602 128.738 41.2031 128.808 41.2891C128.886 41.3672 128.925 41.4531 128.925 41.5469C128.925 41.6328 128.886 41.7031 128.808 41.7578C128.738 41.8281 128.585 41.9375 128.351 42.0859C128.124 42.2344 127.796 42.3867 127.366 42.543C126.937 42.6914 126.405 42.8242 125.773 42.9414C125.14 43.0586 124.39 43.1172 123.523 43.1172C122.616 43.1172 121.847 43.0039 121.214 42.7773C120.581 42.5508 120.066 42.2344 119.667 41.8281C119.269 41.4219 118.98 40.9336 118.8 40.3633C118.62 39.793 118.53 39.168 118.53 38.4883C118.53 37.582 118.675 36.8281 118.964 36.2266C119.253 35.625 119.648 35.1445 120.148 34.7852C120.655 34.418 121.249 34.1602 121.929 34.0117C122.616 33.8633 123.355 33.7891 124.144 33.7891C125.769 33.7891 126.984 34.1016 127.788 34.7266C128.601 35.3438 129.007 36.2305 129.007 37.3867C129.007 37.4961 128.999 37.6172 128.984 37.75C128.968 37.8828 128.945 38.0117 128.913 38.1367C128.89 38.2539 128.859 38.3555 128.82 38.4414C128.788 38.5195 128.757 38.5586 128.726 38.5586H125.28L119.468 38.4414C119.484 39.168 119.577 39.7852 119.749 40.293C119.929 40.793 120.187 41.2031 120.523 41.5234C120.866 41.8359 121.288 42.0664 121.788 42.2148C122.288 42.3555 122.87 42.4258 123.534 42.4258ZM30.3047 65.4727C31.5781 65.4727 32.6406 65.3516 33.4922 65.1094C34.3438 64.8594 35.0234 64.4844 35.5312 63.9844C36.0469 63.4844 36.4102 62.8594 36.6211 62.1094C36.832 61.3516 36.9375 60.4609 36.9375 59.4375V53.7656C36.9375 53.5625 36.9688 53.375 37.0312 53.2031C37.0938 53.0312 37.2227 52.9453 37.418 52.9453C37.5352 52.9453 37.625 52.9688 37.6875 53.0156C37.7578 53.0625 37.8086 53.125 37.8398 53.2031C37.8789 53.2812 37.9023 53.3711 37.9102 53.4727C37.9258 53.5664 37.9336 53.6641 37.9336 53.7656V59.4375C37.9336 60.6562 37.7734 61.6992 37.4531 62.5664C37.1406 63.4258 36.668 64.1289 36.0352 64.6758C35.4023 65.2227 34.6055 65.6211 33.6445 65.8711C32.6914 66.1211 31.5781 66.2461 30.3047 66.2461C29.0234 66.2461 27.9062 66.1211 26.9531 65.8711C26 65.6211 25.2031 65.2227 24.5625 64.6758C23.9219 64.1289 23.4414 63.4258 23.1211 62.5664C22.8086 61.6992 22.6523 60.6562 22.6523 59.4375V53.7656C22.6523 53.6641 22.6562 53.5664 22.6641 53.4727C22.6797 53.3711 22.707 53.2812 22.7461 53.2031C22.7852 53.125 22.8359 53.0625 22.8984 53.0156C22.9688 52.9688 23.0625 52.9453 23.1797 52.9453C23.375 52.9453 23.5 53.0312 23.5547 53.2031C23.6172 53.375 23.6484 53.5625 23.6484 53.7656V59.4375C23.6484 60.4609 23.7539 61.3516 23.9648 62.1094C24.1836 62.8594 24.5469 63.4844 25.0547 63.9844C25.5703 64.4844 26.2539 64.8594 27.1055 65.1094C27.957 65.3516 29.0234 65.4727 30.3047 65.4727ZM57.3108 65.1562C57.3108 65.2578 57.303 65.3594 57.2873 65.4609C57.2717 65.5625 57.2444 65.6523 57.2053 65.7305C57.1741 65.8086 57.1272 65.875 57.0647 65.9297C57.0022 65.9766 56.9241 66 56.8303 66C56.7131 66 56.6233 65.9766 56.5608 65.9297C56.5061 65.875 56.4631 65.8086 56.4319 65.7305C56.4006 65.6523 56.3811 65.5625 56.3733 65.4609C56.3733 65.3594 56.3733 65.2578 56.3733 65.1562V61.1016C56.3733 60.4922 56.3264 59.9609 56.2327 59.5078C56.1467 59.0547 55.9709 58.6797 55.7053 58.3828C55.4475 58.0781 55.0842 57.8516 54.6155 57.7031C54.1545 57.5547 53.5491 57.4805 52.7991 57.4805C52.3381 57.4805 51.8498 57.5195 51.3342 57.5977C50.8186 57.668 50.3264 57.7969 49.8577 57.9844C49.3889 58.1641 48.9748 58.4062 48.6155 58.7109C48.2561 59.0156 48.0061 59.3984 47.8655 59.8594V65.1562C47.8655 65.2578 47.8616 65.3594 47.8538 65.4609C47.8459 65.5625 47.8264 65.6523 47.7952 65.7305C47.7639 65.8086 47.717 65.875 47.6545 65.9297C47.5998 65.9766 47.5256 66 47.4319 66C47.3225 66 47.2327 65.9766 47.1623 65.9297C47.0998 65.875 47.0491 65.8086 47.01 65.7305C46.9788 65.6523 46.9553 65.5625 46.9397 65.4609C46.9319 65.3594 46.928 65.2578 46.928 65.1562V57.5625C46.928 57.4297 46.9553 57.3086 47.01 57.1992C47.0647 57.082 47.2014 57.0234 47.4202 57.0234C47.6155 57.0234 47.7366 57.0781 47.7834 57.1875C47.8381 57.2891 47.8655 57.4141 47.8655 57.5625V59.0391C48.0842 58.5391 48.3889 58.1406 48.7795 57.8438C49.1702 57.5391 49.5959 57.3125 50.0569 57.1641C50.5256 57.0078 50.9983 56.9062 51.4748 56.8594C51.9592 56.8125 52.4006 56.7891 52.7991 56.7891C53.6428 56.7891 54.3498 56.8633 54.9202 57.0117C55.4983 57.1523 55.9631 57.3906 56.3147 57.7266C56.6741 58.0625 56.928 58.5078 57.0764 59.0625C57.2327 59.6094 57.3108 60.2891 57.3108 61.1016V65.1562ZM67.7466 65.2617C67.7466 65.3633 67.7427 65.4609 67.7348 65.5547C67.727 65.6406 67.7075 65.7188 67.6763 65.7891C67.6528 65.8516 67.6098 65.9023 67.5473 65.9414C67.4848 65.9805 67.395 66 67.2778 66C67.0591 66 66.9263 65.9336 66.8794 65.8008C66.8325 65.668 66.8091 65.4883 66.8091 65.2617V57.7383C66.8091 57.543 66.8364 57.375 66.8911 57.2344C66.9458 57.0938 67.0825 57.0234 67.3013 57.0234C67.4966 57.0234 67.6177 57.0938 67.6645 57.2344C67.7192 57.375 67.7466 57.5352 67.7466 57.7148V65.2617ZM66.6567 54.375C66.6567 54.1953 66.7153 54.0469 66.8325 53.9297C66.9497 53.8047 67.0981 53.7422 67.2778 53.7422C67.4575 53.7422 67.6098 53.8047 67.7348 53.9297C67.8598 54.0469 67.9223 54.1953 67.9223 54.375C67.9223 54.5547 67.8598 54.6992 67.7348 54.8086C67.6098 54.918 67.4575 54.9727 67.2778 54.9727C67.0981 54.9727 66.9497 54.918 66.8325 54.8086C66.7153 54.6992 66.6567 54.5547 66.6567 54.375ZM81.5456 66.1172C81.3659 66.1172 81.2331 66.0625 81.1472 65.9531C81.0612 65.8438 80.9948 65.7461 80.948 65.6602L76.3777 57.8555C76.3308 57.7773 76.2995 57.707 76.2839 57.6445C76.2683 57.5742 76.2605 57.5078 76.2605 57.4453C76.2605 57.3125 76.2995 57.2109 76.3777 57.1406C76.4558 57.0625 76.5495 57.0234 76.6589 57.0234C76.7448 57.0234 76.8347 57.0547 76.9284 57.1172C77.0222 57.1719 77.1042 57.2617 77.1745 57.3867L81.5456 65.1445L85.9167 57.3867C85.987 57.2617 86.0691 57.1719 86.1628 57.1172C86.2566 57.0547 86.3464 57.0234 86.4323 57.0234C86.5417 57.0234 86.6355 57.0625 86.7136 57.1406C86.7917 57.2109 86.8308 57.3125 86.8308 57.4453C86.8308 57.5703 86.7917 57.707 86.7136 57.8555L82.1433 65.6602C82.0886 65.7461 82.0144 65.8438 81.9206 65.9531C81.8269 66.0625 81.7019 66.1172 81.5456 66.1172ZM100.126 57.4805C99.3994 57.4805 98.7548 57.543 98.1923 57.668C97.6298 57.793 97.1494 57.9961 96.7509 58.2773C96.3603 58.5508 96.0556 58.9062 95.8369 59.3438C95.6181 59.7812 95.4931 60.3164 95.4619 60.9492H104.298V60.3164C104.298 59.9258 104.224 59.5586 104.075 59.2148C103.935 58.8711 103.7 58.5703 103.372 58.3125C103.044 58.0547 102.614 57.8516 102.083 57.7031C101.552 57.5547 100.899 57.4805 100.126 57.4805ZM99.5166 65.4258C100.259 65.4258 100.907 65.3789 101.462 65.2852C102.017 65.1914 102.493 65.0781 102.892 64.9453C103.29 64.8125 103.614 64.6758 103.864 64.5352C104.122 64.3945 104.321 64.2773 104.462 64.1836C104.509 64.168 104.54 64.1602 104.556 64.1602C104.642 64.1602 104.72 64.2031 104.79 64.2891C104.868 64.3672 104.907 64.4531 104.907 64.5469C104.907 64.6328 104.868 64.7031 104.79 64.7578C104.72 64.8281 104.567 64.9375 104.333 65.0859C104.106 65.2344 103.778 65.3867 103.349 65.543C102.919 65.6914 102.388 65.8242 101.755 65.9414C101.122 66.0586 100.372 66.1172 99.5048 66.1172C98.5986 66.1172 97.8291 66.0039 97.1963 65.7773C96.5634 65.5508 96.0478 65.2344 95.6494 64.8281C95.2509 64.4219 94.9619 63.9336 94.7822 63.3633C94.6025 62.793 94.5127 62.168 94.5127 61.4883C94.5127 60.582 94.6572 59.8281 94.9463 59.2266C95.2353 58.625 95.6298 58.1445 96.1298 57.7852C96.6377 57.418 97.2314 57.1602 97.9111 57.0117C98.5986 56.8633 99.3369 56.7891 100.126 56.7891C101.751 56.7891 102.966 57.1016 103.77 57.7266C104.583 58.3438 104.989 59.2305 104.989 60.3867C104.989 60.4961 104.981 60.6172 104.966 60.75C104.95 60.8828 104.927 61.0117 104.895 61.1367C104.872 61.2539 104.841 61.3555 104.802 61.4414C104.77 61.5195 104.739 61.5586 104.708 61.5586H101.263L95.4502 61.4414C95.4658 62.168 95.5595 62.7852 95.7314 63.293C95.9111 63.793 96.1689 64.2031 96.5048 64.5234C96.8486 64.8359 97.2705 65.0664 97.7705 65.2148C98.2705 65.3555 98.8525 65.4258 99.5166 65.4258ZM120.863 57.0703C120.948 57.0938 121.011 57.1406 121.05 57.2109C121.089 57.2734 121.109 57.3438 121.109 57.4219C121.109 57.5234 121.073 57.6172 121.003 57.7031C120.941 57.7891 120.843 57.832 120.71 57.832C120.671 57.832 120.648 57.832 120.64 57.832C120.632 57.8242 120.609 57.8164 120.57 57.8086C120.265 57.7227 119.972 57.6562 119.691 57.6094C119.417 57.5625 119.116 57.5391 118.788 57.5391C118.327 57.5391 117.886 57.5859 117.464 57.6797C117.05 57.7656 116.671 57.9023 116.327 58.0898C115.991 58.2695 115.698 58.5039 115.448 58.793C115.198 59.0742 115.011 59.4062 114.886 59.7891V65.1797C114.886 65.3828 114.859 65.5703 114.804 65.7422C114.749 65.9141 114.624 66 114.429 66C114.32 66 114.23 65.9766 114.159 65.9297C114.097 65.8828 114.05 65.8203 114.019 65.7422C113.988 65.6641 113.968 65.5781 113.96 65.4844C113.952 65.3828 113.948 65.2812 113.948 65.1797V57.6797C113.948 57.5 113.98 57.3477 114.042 57.2227C114.105 57.0898 114.249 57.0234 114.476 57.0234C114.648 57.0234 114.757 57.0859 114.804 57.2109C114.859 57.3359 114.886 57.4922 114.886 57.6797V59.0391C115.011 58.5625 115.226 58.1758 115.53 57.8789C115.843 57.582 116.187 57.3555 116.562 57.1992C116.945 57.0352 117.335 56.9258 117.734 56.8711C118.132 56.8164 118.484 56.7891 118.788 56.7891C119.085 56.7891 119.339 56.8008 119.55 56.8242C119.769 56.8398 119.956 56.8633 120.113 56.8945C120.269 56.918 120.405 56.9453 120.523 56.9766C120.64 57.0078 120.753 57.0391 120.863 57.0703ZM138.974 63.5508C138.974 63.1367 138.826 62.8164 138.529 62.5898C138.24 62.3633 137.853 62.1992 137.369 62.0977C136.892 61.9883 136.345 61.9219 135.728 61.8984C135.119 61.8672 134.494 61.8438 133.853 61.8281C133.22 61.8047 132.595 61.7695 131.978 61.7227C131.369 61.668 130.822 61.5625 130.337 61.4062C129.861 61.2422 129.474 61.0117 129.177 60.7148C128.888 60.4102 128.744 59.9961 128.744 59.4727C128.744 58.9336 128.888 58.4922 129.177 58.1484C129.474 57.8047 129.861 57.5312 130.337 57.3281C130.814 57.125 131.353 56.9844 131.955 56.9062C132.556 56.8281 133.169 56.7891 133.794 56.7891C134.818 56.7891 135.771 56.875 136.654 57.0469C137.537 57.2109 138.357 57.4922 139.115 57.8906C139.193 57.9297 139.244 57.9805 139.267 58.043C139.298 58.0977 139.318 58.1562 139.326 58.2188C139.326 58.3203 139.294 58.4102 139.232 58.4883C139.169 58.5664 139.099 58.6055 139.021 58.6055C138.974 58.6055 138.943 58.5977 138.927 58.582C138.263 58.2461 137.509 57.9805 136.665 57.7852C135.83 57.582 134.888 57.4805 133.841 57.4805C133.31 57.4805 132.794 57.5156 132.294 57.5859C131.794 57.6484 131.349 57.7578 130.958 57.9141C130.576 58.0625 130.267 58.2656 130.033 58.5234C129.798 58.7734 129.681 59.0898 129.681 59.4727C129.681 59.8633 129.826 60.1641 130.115 60.375C130.412 60.5859 130.798 60.7422 131.275 60.8438C131.759 60.9375 132.306 60.9961 132.915 61.0195C133.533 61.043 134.158 61.0664 134.79 61.0898C135.431 61.1133 136.056 61.1562 136.665 61.2188C137.283 61.2734 137.83 61.3867 138.306 61.5586C138.79 61.7227 139.177 61.9648 139.466 62.2852C139.763 62.5977 139.912 63.0195 139.912 63.5508C139.912 64.0273 139.763 64.4297 139.466 64.7578C139.169 65.0859 138.775 65.3516 138.283 65.5547C137.79 65.75 137.22 65.8945 136.572 65.9883C135.931 66.0742 135.267 66.1172 134.58 66.1172C134.158 66.1172 133.701 66.1055 133.208 66.082C132.724 66.0664 132.236 66.0234 131.744 65.9531C131.259 65.875 130.79 65.7617 130.337 65.6133C129.892 65.457 129.501 65.2461 129.165 64.9805C129.056 64.8945 129.001 64.793 129.001 64.6758C129.001 64.5742 129.029 64.4883 129.083 64.418C129.146 64.3398 129.22 64.3008 129.306 64.3008C129.369 64.3008 129.415 64.3164 129.447 64.3477C129.775 64.5742 130.126 64.7578 130.501 64.8984C130.884 65.0391 131.287 65.1484 131.708 65.2266C132.13 65.3047 132.572 65.3594 133.033 65.3906C133.494 65.4141 133.97 65.4258 134.462 65.4258C135.048 65.4258 135.611 65.3984 136.15 65.3438C136.697 65.2812 137.177 65.1797 137.591 65.0391C138.013 64.8906 138.349 64.6992 138.599 64.4648C138.849 64.2227 138.974 63.918 138.974 63.5508ZM149.914 65.2617C149.914 65.3633 149.91 65.4609 149.902 65.5547C149.894 65.6406 149.875 65.7188 149.843 65.7891C149.82 65.8516 149.777 65.9023 149.715 65.9414C149.652 65.9805 149.562 66 149.445 66C149.226 66 149.093 65.9336 149.047 65.8008C149 65.668 148.976 65.4883 148.976 65.2617V57.7383C148.976 57.543 149.004 57.375 149.058 57.2344C149.113 57.0938 149.25 57.0234 149.468 57.0234C149.664 57.0234 149.785 57.0938 149.832 57.2344C149.886 57.375 149.914 57.5352 149.914 57.7148V65.2617ZM148.824 54.375C148.824 54.1953 148.882 54.0469 149 53.9297C149.117 53.8047 149.265 53.7422 149.445 53.7422C149.625 53.7422 149.777 53.8047 149.902 53.9297C150.027 54.0469 150.09 54.1953 150.09 54.375C150.09 54.5547 150.027 54.6992 149.902 54.8086C149.777 54.918 149.625 54.9727 149.445 54.9727C149.265 54.9727 149.117 54.918 149 54.8086C148.882 54.6992 148.824 54.5547 148.824 54.375ZM164.709 57.1992C164.826 57.1992 164.912 57.2305 164.967 57.293C165.029 57.3477 165.06 57.4102 165.06 57.4805C165.06 57.5508 165.029 57.6172 164.967 57.6797C164.912 57.7344 164.826 57.7617 164.709 57.7617H160.818V62.7305C160.818 63.3008 160.877 63.7617 160.994 64.1133C161.111 64.4648 161.268 64.7383 161.463 64.9336C161.666 65.1289 161.9 65.2617 162.166 65.332C162.439 65.3945 162.728 65.4258 163.033 65.4258C163.408 65.4258 163.775 65.3594 164.135 65.2266C164.494 65.0938 164.908 64.9023 165.377 64.6523C165.471 64.6055 165.56 64.582 165.646 64.582C165.748 64.582 165.826 64.6133 165.881 64.6758C165.943 64.7305 165.975 64.8008 165.975 64.8867C165.975 65.043 165.889 65.168 165.717 65.2617C165.389 65.4414 165.096 65.5859 164.838 65.6953C164.588 65.8047 164.353 65.8906 164.135 65.9531C163.924 66.0156 163.717 66.0586 163.514 66.082C163.31 66.1055 163.096 66.1172 162.869 66.1172C162.447 66.1172 162.053 66.0586 161.685 65.9414C161.326 65.8242 161.01 65.6367 160.736 65.3789C160.471 65.1133 160.26 64.7656 160.103 64.3359C159.955 63.8984 159.881 63.3633 159.881 62.7305V57.7617H158.85C158.74 57.7617 158.658 57.7344 158.603 57.6797C158.549 57.6172 158.521 57.5508 158.521 57.4805C158.521 57.4102 158.549 57.3477 158.603 57.293C158.658 57.2305 158.74 57.1992 158.85 57.1992H159.881V54.2812C159.881 54.0312 159.932 53.875 160.033 53.8125C160.135 53.7422 160.24 53.707 160.35 53.707C160.482 53.707 160.592 53.7422 160.678 53.8125C160.771 53.875 160.818 54.0312 160.818 54.2812V57.1992H164.709ZM178.719 69.2227C179.524 69.2227 180.195 69.1328 180.735 68.9531C181.274 68.7812 181.703 68.4922 182.024 68.0859C182.352 67.6875 182.582 67.1523 182.715 66.4805C182.856 65.8164 182.926 64.9922 182.926 64.0078C182.84 64.3281 182.699 64.6016 182.504 64.8281C182.309 65.0547 182.074 65.2461 181.801 65.4023C181.535 65.5586 181.242 65.6836 180.922 65.7773C180.61 65.8711 180.289 65.9453 179.961 66C179.633 66.0469 179.309 66.0781 178.988 66.0938C178.676 66.1094 178.387 66.1172 178.121 66.1172C177.277 66.1172 176.567 66.043 175.988 65.8945C175.41 65.7383 174.942 65.4805 174.582 65.1211C174.223 64.7539 173.961 64.2734 173.797 63.6797C173.641 63.0859 173.563 62.3477 173.563 61.4648V57.8672C173.563 57.7656 173.567 57.6641 173.574 57.5625C173.582 57.4609 173.602 57.3711 173.633 57.293C173.664 57.2148 173.707 57.1523 173.762 57.1055C173.824 57.0508 173.91 57.0234 174.02 57.0234C174.137 57.0234 174.227 57.0508 174.289 57.1055C174.352 57.1523 174.399 57.2148 174.43 57.293C174.461 57.3711 174.481 57.4609 174.488 57.5625C174.496 57.6641 174.5 57.7656 174.5 57.8672V61.4648C174.5 62.2305 174.547 62.8672 174.641 63.375C174.742 63.8828 174.926 64.2891 175.192 64.5938C175.457 64.8984 175.824 65.1133 176.293 65.2383C176.77 65.3633 177.379 65.4258 178.121 65.4258C178.567 65.4258 179.043 65.3945 179.551 65.332C180.059 65.2695 180.539 65.1562 180.992 64.9922C181.453 64.8281 181.856 64.6016 182.199 64.3125C182.551 64.0234 182.793 63.6484 182.926 63.1875V57.8672C182.926 57.7656 182.93 57.6641 182.938 57.5625C182.953 57.4609 182.977 57.3711 183.008 57.293C183.039 57.2148 183.082 57.1523 183.137 57.1055C183.199 57.0508 183.277 57.0234 183.371 57.0234C183.488 57.0234 183.578 57.0508 183.641 57.1055C183.703 57.1523 183.75 57.2148 183.781 57.293C183.82 57.3711 183.844 57.4609 183.852 57.5625C183.86 57.6641 183.863 57.7656 183.863 57.8672V63.6211C183.863 64.8242 183.766 65.8281 183.57 66.6328C183.383 67.4375 183.082 68.082 182.668 68.5664C182.254 69.0586 181.723 69.4062 181.074 69.6094C180.426 69.8125 179.641 69.9141 178.719 69.9141C178.063 69.9141 177.508 69.8789 177.055 69.8086C176.61 69.7383 176.231 69.6484 175.918 69.5391C175.613 69.4375 175.36 69.3203 175.156 69.1875C174.953 69.0547 174.777 68.9297 174.629 68.8125C174.567 68.75 174.535 68.6758 174.535 68.5898C174.535 68.4805 174.563 68.3867 174.617 68.3086C174.68 68.2383 174.774 68.2031 174.899 68.2031C174.961 68.2031 175.027 68.2266 175.098 68.2734C175.246 68.3828 175.418 68.4922 175.613 68.6016C175.817 68.7188 176.059 68.8203 176.34 68.9062C176.629 69 176.965 69.0742 177.348 69.1289C177.738 69.1914 178.195 69.2227 178.719 69.2227Z" fill="black"/>
</g>
<defs>
<clipPath id="clip0">
<rect width="200" height="100" fill="white"/>
</clipPath>
</defs>
</svg>
